SplineFontDB: 3.2
FontName: Nunito-LightItalic
FullName: Nunito Light Italic
FamilyName: Nunito Light
Weight: Light
Copyright: Copyright 2014 The Nunito Project Authors (https://github.com/googlefonts/nunito)
Version: 3.602-ef
ItalicAngle: -9
UnderlinePosition: -94
UnderlineWidth: 28
Ascent: 800
Descent: 200
InvalidEm: 0
sfntRevision: 0x00039a1d
LayerCount: 2
Layer: 0 1 "Back" 1
Layer: 1 1 "Fore" 0
XUID: [1021 965 1680887925 13212338]
StyleMap: 0x0001
FSType: 0
OS2Version: 4
OS2_WeightWidthSlopeOnly: 0
OS2_UseTypoMetrics: 1
CreationTime: 1592915285
ModificationTime: 1719074393
PfmFamily: 81
TTFWeight: 300
TTFWidth: 5
LineGap: 0
VLineGap: 0
Panose: 0 0 0 0 0 0 0 0 0 0
OS2TypoAscent: 1011
OS2TypoAOffset: 0
OS2TypoDescent: -353
OS2TypoDOffset: 0
OS2TypoLinegap: 0
OS2WinAscent: 1077
OS2WinAOffset: 0
OS2WinDescent: 300
OS2WinDOffset: 0
HheadAscent: 1011
HheadAOffset: 0
HheadDescent: -353
HheadDOffset: 0
OS2SubXSize: 650
OS2SubYSize: 600
OS2SubXOff: 0
OS2SubYOff: 75
OS2SupXSize: 650
OS2SupYSize: 600
OS2SupXOff: 0
OS2SupYOff: 350
OS2StrikeYSize: 28
OS2StrikeYPos: 290
OS2CapHeight: 705
OS2XHeight: 484
OS2Vendor: 'NONE'
OS2CodePages: 20000197.00000000
OS2UnicodeRanges: a00002ff.5000204b.00000000.00000000
Lookup: 1 0 0 "'aalt' Access All Alternates lookup 0" { "'aalt' Access All Alternates lookup 0 subtable"  } ['aalt' ('DFLT' <'dflt' > 'cyrl' <'BSH ' 'CHU ' 'dflt' > 'latn' <'AZE ' 'CAT ' 'CRT ' 'KAZ ' 'MOL ' 'NLD ' 'ROM ' 'TAT ' 'TRK ' 'dflt' > ) ]
Lookup: 3 0 0 "'aalt' Access All Alternates lookup 1" { "'aalt' Access All Alternates lookup 1 subtable"  } ['aalt' ('DFLT' <'dflt' > 'cyrl' <'BSH ' 'CHU ' 'dflt' > 'latn' <'AZE ' 'CAT ' 'CRT ' 'KAZ ' 'MOL ' 'NLD ' 'ROM ' 'TAT ' 'TRK ' 'dflt' > ) ]

StartChar: .notdef
Encoding: 65536 -1 0
Width: 500
GlyphClass: 1
Flags: W
LayerCount: 2
Fore
SplineSet
50 -180 m 1,0,-1
 50 705 l 1,1,-1
 450 705 l 1,2,-1
 450 -180 l 1,3,-1
 50 -180 l 1,0,-1
100 -130 m 1,4,-1
 400 -130 l 1,5,-1
 400 655 l 1,6,-1
 100 655 l 1,7,-1
 100 -130 l 1,4,-1
EndSplineSet
EndChar

StartChar: A
Encoding: 65 65 1
Width: 722
GlyphClass: 2
Flags: W
AnchorPoint: "Anchor-3" 649 0 basechar 0
AnchorPoint: "Anchor-2" 341 0 basechar 0
AnchorPoint: "Anchor-0" 437 705 basechar 0
LayerCount: 2
Fore
SplineSet
34 -6 m 256,0,1
 23 -6 23 -6 15 -0.5 c 128,-1,2
 7 5 7 5 5.5 15 c 128,-1,3
 4 25 4 25 11 37 c 2,4,-1
 399 690 l 2,5,6
 406 701 406 701 415 706 c 128,-1,7
 424 711 424 711 436 711 c 0,8,9
 449 711 449 711 457 705 c 128,-1,10
 465 699 465 699 468 687 c 2,11,-1
 646 39 l 2,12,13
 651 23 651 23 649 13 c 128,-1,14
 647 3 647 3 640 -1.5 c 128,-1,15
 633 -6 633 -6 623 -6 c 0,16,17
 611 -6 611 -6 602 1.5 c 128,-1,18
 593 9 593 9 590 24 c 2,19,-1
 543 201 l 1,20,-1
 570 188 l 1,21,-1
 139 188 l 1,22,-1
 176 200 l 1,23,-1
 67 15 l 2,24,25
 61 4 61 4 53 -1 c 128,-1,26
 45 -6 45 -6 34 -6 c 256,0,1
426 629 m 1,27,-1
 194 231 l 1,28,-1
 171 241 l 1,29,-1
 556 241 l 1,30,-1
 534 231 l 1,31,-1
 428 629 l 1,32,-1
 426 629 l 1,27,-1
EndSplineSet
Substitution2: "Single Substitution lookup 29 subtable" ordfeminine
Substitution2: "'aalt' Access All Alternates lookup 0 subtable" ordfeminine
EndChar

StartChar: Aogonek
Encoding: 260 260 24
Width: 722
GlyphClass: 1
Flags: W
LayerCount: 2
Fore
SplineSet
617 -191 m 0,0,1
 572 -191 572 -191 548 -166 c 128,-1,2
 524 -141 524 -141 524 -103 c 0,3,4
 524 -63 524 -63 546 -31.5 c 128,-1,5
 568 0 568 0 602 20 c 1,6,-1
 599 5 l 1,7,8
 596 9 596 9 593.5 13.5 c 128,-1,9
 591 18 591 18 590 24 c 2,10,-1
 543 201 l 1,11,-1
 570 188 l 1,12,-1
 139 188 l 1,13,-1
 176 200 l 1,14,-1
 67 15 l 2,15,16
 61 4 61 4 53 -1 c 128,-1,17
 45 -6 45 -6 34 -6 c 256,18,19
 23 -6 23 -6 15 -0.5 c 128,-1,20
 7 5 7 5 5.5 15 c 128,-1,21
 4 25 4 25 11 37 c 2,22,-1
 399 690 l 2,23,24
 406 701 406 701 415 706 c 128,-1,25
 424 711 424 711 436 711 c 0,26,27
 449 711 449 711 457 705 c 128,-1,28
 465 699 465 699 468 687 c 2,29,-1
 646 39 l 2,30,31
 651 22 651 22 648.5 12 c 128,-1,32
 646 2 646 2 637 -3 c 0,33,34
 615 -17 615 -17 600.5 -32 c 128,-1,35
 586 -47 586 -47 579 -62.5 c 128,-1,36
 572 -78 572 -78 572 -95 c 0,37,38
 572 -119 572 -119 586 -133.5 c 128,-1,39
 600 -148 600 -148 626 -148 c 0,40,41
 635 -148 635 -148 644 -146.5 c 128,-1,42
 653 -145 653 -145 664 -142 c 0,43,44
 675 -138 675 -138 680.5 -142.5 c 128,-1,45
 686 -147 686 -147 687.5 -155 c 128,-1,46
 689 -163 689 -163 686.5 -170.5 c 128,-1,47
 684 -178 684 -178 676 -181 c 0,48,49
 663 -186 663 -186 646.5 -188.5 c 128,-1,50
 630 -191 630 -191 617 -191 c 0,0,1
426 629 m 1,51,-1
 194 231 l 1,52,-1
 171 241 l 1,53,-1
 556 241 l 1,54,-1
 534 231 l 1,55,-1
 428 629 l 1,56,-1
 426 629 l 1,51,-1
EndSplineSet
EndChar

StartChar: AE
Encoding: 198 198 28
Width: 976
GlyphClass: 2
Flags: W
AnchorPoint: "Anchor-2" 448 0 basechar 0
AnchorPoint: "Anchor-0" 545 705 basechar 0
LayerCount: 2
Fore
SplineSet
1 -6 m 0,0,1
 -12 -6 -12 -6 -19 0 c 128,-1,2
 -26 6 -26 6 -26 16 c 128,-1,3
 -26 26 -26 26 -18 36 c 2,4,-1
 477 687 l 2,5,6
 484 698 484 698 493 701.5 c 128,-1,7
 502 705 502 705 513 705 c 2,8,-1
 974 705 l 2,9,10
 987 705 987 705 994.5 700 c 128,-1,11
 1002 695 1002 695 1002 684 c 0,12,13
 1002 667 1002 667 993 659.5 c 128,-1,14
 984 652 984 652 970 652 c 2,15,-1
 534 652 l 1,16,-1
 552 678 l 1,17,-1
 568 368 l 1,18,-1
 546 384 l 1,19,-1
 902 384 l 2,20,21
 916 384 916 384 923.5 379 c 128,-1,22
 931 374 931 374 931 363 c 0,23,24
 931 347 931 347 921.5 339 c 128,-1,25
 912 331 912 331 899 331 c 2,26,-1
 549 331 l 1,27,-1
 569 347 l 1,28,-1
 585 30 l 1,29,-1
 562 53 l 1,30,-1
 871 53 l 2,31,32
 885 53 885 53 892 48 c 128,-1,33
 899 43 899 43 899 32 c 0,34,35
 899 18 899 18 890.5 9 c 128,-1,36
 882 0 882 0 867 0 c 2,37,-1
 560 0 l 2,38,39
 532 0 532 0 530 29 c 2,40,-1
 521 206 l 1,41,-1
 543 188 l 1,42,-1
 150 188 l 1,43,-1
 179 205 l 1,44,-1
 36 14 l 2,45,46
 27 3 27 3 19 -1.5 c 128,-1,47
 11 -6 11 -6 1 -6 c 0,0,1
496 628 m 1,48,-1
 195 226 l 1,49,-1
 188 241 l 1,50,-1
 532 241 l 1,51,-1
 520 226 l 1,52,-1
 498 628 l 1,53,-1
 496 628 l 1,48,-1
EndSplineSet
EndChar

StartChar: B
Encoding: 66 66 30
Width: 671
GlyphClass: 2
Flags: W
AnchorPoint: "Anchor-2" 302 0 basechar 0
AnchorPoint: "Anchor-0" 413 705 basechar 0
LayerCount: 2
Fore
SplineSet
91 0 m 2,0,1
 73 0 73 0 65 10 c 128,-1,2
 57 20 57 20 59 38 c 2,3,-1
 160 673 l 2,4,5
 163 689 163 689 172.5 697 c 128,-1,6
 182 705 182 705 198 705 c 2,7,-1
 422 705 l 2,8,9
 493 705 493 705 540 685 c 128,-1,10
 587 665 587 665 610 628 c 128,-1,11
 633 591 633 591 633 540 c 0,12,13
 633 461 633 461 584 411 c 128,-1,14
 535 361 535 361 453 350 c 1,15,-1
 453 364 l 1,16,17
 520 354 520 354 558.5 312 c 128,-1,18
 597 270 597 270 597 208 c 0,19,20
 597 105 597 105 533.5 52.5 c 128,-1,21
 470 0 470 0 352 0 c 2,22,-1
 91 0 l 2,0,1
123 52 m 1,23,-1
 354 52 l 2,24,25
 444 52 444 52 489.5 92 c 128,-1,26
 535 132 535 132 535 209 c 0,27,28
 535 269 535 269 495 300 c 128,-1,29
 455 331 455 331 380 331 c 2,30,-1
 167 331 l 1,31,-1
 123 52 l 1,23,-1
175 383 m 1,32,-1
 389 383 l 2,33,34
 473 383 473 383 522 422.5 c 128,-1,35
 571 462 571 462 571 536 c 0,36,37
 571 593 571 593 533 623 c 128,-1,38
 495 653 495 653 415 653 c 2,39,-1
 218 653 l 1,40,-1
 175 383 l 1,32,-1
EndSplineSet
EndChar

StartChar: uni0181
Encoding: 385 385 31
Width: 783
GlyphClass: 1
Flags: W
LayerCount: 2
Fore
SplineSet
204 0 m 2,0,1
 186 0 186 0 178 10 c 128,-1,2
 170 20 170 20 172 38 c 2,3,-1
 270 654 l 1,4,-1
 234 654 l 2,5,6
 175 654 175 654 144 629 c 128,-1,7
 113 604 113 604 102 541 c 2,8,-1
 98 517 l 2,9,10
 97 509 97 509 93 503 c 128,-1,11
 89 497 89 497 83 494 c 128,-1,12
 77 491 77 491 68 491 c 256,13,14
 59 491 59 491 53.5 495 c 128,-1,15
 48 499 48 499 46 507 c 128,-1,16
 44 515 44 515 45 524 c 2,17,-1
 49 548 l 2,18,19
 61 627 61 627 104.5 666 c 128,-1,20
 148 705 148 705 241 705 c 2,21,-1
 534 705 l 2,22,23
 606 705 606 705 652.5 685 c 128,-1,24
 699 665 699 665 722.5 628 c 128,-1,25
 746 591 746 591 746 540 c 0,26,27
 746 461 746 461 696.5 411 c 128,-1,28
 647 361 647 361 566 350 c 1,29,-1
 566 364 l 1,30,31
 632 354 632 354 670.5 312 c 128,-1,32
 709 270 709 270 709 208 c 0,33,34
 709 105 709 105 646 52.5 c 128,-1,35
 583 0 583 0 464 0 c 2,36,-1
 204 0 l 2,0,1
235 52 m 1,37,-1
 466 52 l 2,38,39
 556 52 556 52 601.5 92 c 128,-1,40
 647 132 647 132 647 209 c 0,41,42
 647 269 647 269 607.5 300 c 128,-1,43
 568 331 568 331 493 331 c 2,44,-1
 279 331 l 1,45,-1
 235 52 l 1,37,-1
287 383 m 1,46,-1
 502 383 l 2,47,48
 585 383 585 383 634 422.5 c 128,-1,49
 683 462 683 462 683 536 c 0,50,51
 683 593 683 593 645 623 c 128,-1,52
 607 653 607 653 528 653 c 2,53,-1
 330 653 l 1,54,-1
 287 383 l 1,46,-1
EndSplineSet
EndChar

StartChar: C
Encoding: 67 67 32
Width: 670
GlyphClass: 2
Flags: W
AnchorPoint: "Anchor-2" 366 0 basechar 0
AnchorPoint: "Anchor-0" 435 705 basechar 0
LayerCount: 2
Fore
SplineSet
378 -8 m 0,0,1
 289 -8 289 -8 222 25.5 c 128,-1,2
 155 59 155 59 117.5 128.5 c 128,-1,3
 80 198 80 198 80 306 c 0,4,5
 80 393 80 393 105 467 c 128,-1,6
 130 541 130 541 176.5 596 c 128,-1,7
 223 651 223 651 289 682 c 128,-1,8
 355 713 355 713 437 713 c 0,9,10
 502 713 502 713 557.5 693 c 128,-1,11
 613 673 613 673 653 635 c 0,12,13
 661 628 661 628 663.5 618 c 128,-1,14
 666 608 666 608 662.5 599.5 c 128,-1,15
 659 591 659 591 652 585.5 c 128,-1,16
 645 580 645 580 636 580 c 128,-1,17
 627 580 627 580 618 588 c 0,18,19
 579 624 579 624 534 640 c 128,-1,20
 489 656 489 656 434 656 c 0,21,22
 345 656 345 656 280.5 610.5 c 128,-1,23
 216 565 216 565 181 486.5 c 128,-1,24
 146 408 146 408 146 306 c 0,25,26
 146 215 146 215 174.5 158 c 128,-1,27
 203 101 203 101 256 75 c 128,-1,28
 309 49 309 49 383 49 c 0,29,30
 433 49 433 49 475.5 64.5 c 128,-1,31
 518 80 518 80 560 115 c 0,32,33
 570 123 570 123 579 123 c 128,-1,34
 588 123 588 123 595 117.5 c 128,-1,35
 602 112 602 112 604.5 103.5 c 128,-1,36
 607 95 607 95 604.5 85.5 c 128,-1,37
 602 76 602 76 592 69 c 0,38,39
 545 29 545 29 492 10.5 c 128,-1,40
 439 -8 439 -8 378 -8 c 0,0,1
EndSplineSet
EndChar

StartChar: D
Encoding: 68 68 39
Width: 733
GlyphClass: 2
Flags: W
AnchorPoint: "Anchor-5" 196 358 basechar 0
AnchorPoint: "Anchor-2" 330 0 basechar 0
AnchorPoint: "Anchor-0" 430 705 basechar 0
LayerCount: 2
Fore
SplineSet
91 0 m 2,0,1
 73 0 73 0 64.5 10 c 128,-1,2
 56 20 56 20 59 38 c 2,3,-1
 160 673 l 2,4,5
 163 689 163 689 172.5 697 c 128,-1,6
 182 705 182 705 198 705 c 2,7,-1
 364 705 l 2,8,9
 520 705 520 705 605 628.5 c 128,-1,10
 690 552 690 552 690 413 c 0,11,12
 690 328 690 328 667 253.5 c 128,-1,13
 644 179 644 179 595.5 122 c 128,-1,14
 547 65 547 65 472 32.5 c 128,-1,15
 397 0 397 0 293 0 c 2,16,-1
 91 0 l 2,0,1
124 54 m 1,17,-1
 295 54 l 2,18,19
 385 54 385 54 448 82.5 c 128,-1,20
 511 111 511 111 550 161 c 128,-1,21
 589 211 589 211 607 276 c 128,-1,22
 625 341 625 341 625 413 c 0,23,24
 625 529 625 529 559 590 c 128,-1,25
 493 651 493 651 363 651 c 2,26,-1
 219 651 l 1,27,-1
 124 54 l 1,17,-1
EndSplineSet
EndChar

StartChar: uni018A
Encoding: 394 394 45
Width: 846
GlyphClass: 1
Flags: W
LayerCount: 2
Fore
SplineSet
204 0 m 2,0,1
 186 0 186 0 177.5 10 c 128,-1,2
 169 20 169 20 171 38 c 2,3,-1
 270 654 l 1,4,-1
 234 654 l 2,5,6
 177 654 177 654 144.5 629 c 128,-1,7
 112 604 112 604 102 541 c 2,8,-1
 98 517 l 2,9,10
 97 509 97 509 93 503 c 128,-1,11
 89 497 89 497 83 494 c 128,-1,12
 77 491 77 491 68 491 c 256,13,14
 59 491 59 491 53.5 495 c 128,-1,15
 48 499 48 499 45.5 507 c 128,-1,16
 43 515 43 515 45 524 c 2,17,-1
 49 548 l 2,18,19
 62 627 62 627 105 666 c 128,-1,20
 148 705 148 705 241 705 c 2,21,-1
 476 705 l 2,22,23
 632 705 632 705 717 628.5 c 128,-1,24
 802 552 802 552 802 413 c 0,25,26
 802 328 802 328 779 253.5 c 128,-1,27
 756 179 756 179 707.5 122 c 128,-1,28
 659 65 659 65 584 32.5 c 128,-1,29
 509 0 509 0 405 0 c 2,30,-1
 204 0 l 2,0,1
236 54 m 1,31,-1
 407 54 l 2,32,33
 497 54 497 54 560 82.5 c 128,-1,34
 623 111 623 111 662 161 c 128,-1,35
 701 211 701 211 719 276 c 128,-1,36
 737 341 737 341 737 413 c 0,37,38
 737 529 737 529 671 590 c 128,-1,39
 605 651 605 651 475 651 c 2,40,-1
 330 651 l 1,41,-1
 236 54 l 1,31,-1
EndSplineSet
EndChar

StartChar: E
Encoding: 69 69 48
Width: 576
GlyphClass: 2
Flags: W
AnchorPoint: "Anchor-3" 451 0 basechar 0
AnchorPoint: "Anchor-2" 290 0 basechar 0
AnchorPoint: "Anchor-0" 397 705 basechar 0
LayerCount: 2
Fore
SplineSet
91 0 m 2,0,1
 73 0 73 0 65 9.5 c 128,-1,2
 57 19 57 19 59 38 c 2,3,-1
 160 673 l 2,4,5
 163 689 163 689 172.5 697 c 128,-1,6
 182 705 182 705 198 705 c 2,7,-1
 574 705 l 2,8,9
 587 705 587 705 594.5 700 c 128,-1,10
 602 695 602 695 602 684 c 0,11,12
 602 667 602 667 593 659.5 c 128,-1,13
 584 652 584 652 571 652 c 2,14,-1
 218 652 l 1,15,-1
 175 384 l 1,16,-1
 503 384 l 2,17,18
 516 384 516 384 523.5 379 c 128,-1,19
 531 374 531 374 531 363 c 0,20,21
 531 347 531 347 522 339 c 128,-1,22
 513 331 513 331 499 331 c 2,23,-1
 166 331 l 1,24,-1
 122 53 l 1,25,-1
 470 53 l 2,26,27
 484 53 484 53 491.5 48 c 128,-1,28
 499 43 499 43 499 32 c 0,29,30
 499 16 499 16 489.5 8 c 128,-1,31
 480 0 480 0 467 0 c 2,32,-1
 91 0 l 2,0,1
EndSplineSet
EndChar

StartChar: uni018F
Encoding: 399 399 72
Width: 759
GlyphClass: 2
Flags: W
AnchorPoint: "Anchor-2" 337 0 basechar 0
AnchorPoint: "Anchor-0" 449 705 basechar 0
LayerCount: 2
Fore
SplineSet
357 -8 m 0,0,1
 276 -8 276 -8 218 21.5 c 128,-1,2
 160 51 160 51 126.5 102.5 c 128,-1,3
 93 154 93 154 81.5 219.5 c 128,-1,4
 70 285 70 285 81 354 c 0,5,6
 83 370 83 370 90 376.5 c 128,-1,7
 97 383 97 383 111 383 c 2,8,-1
 668 383 l 1,9,-1
 660 329 l 1,10,-1
 124 329 l 1,11,-1
 144 353 l 1,12,13
 132 268 132 268 149.5 198.5 c 128,-1,14
 167 129 167 129 219.5 88 c 128,-1,15
 272 47 272 47 363 47 c 0,16,17
 457 47 457 47 520.5 95.5 c 128,-1,18
 584 144 584 144 616.5 227.5 c 128,-1,19
 649 311 649 311 649 413 c 0,20,21
 649 487 649 487 619 541.5 c 128,-1,22
 589 596 589 596 534.5 626.5 c 128,-1,23
 480 657 480 657 404 657 c 0,24,25
 333 657 333 657 278.5 640.5 c 128,-1,26
 224 624 224 624 178 588 c 0,27,28
 167 580 167 580 157.5 580 c 128,-1,29
 148 580 148 580 141.5 585.5 c 128,-1,30
 135 591 135 591 133 600 c 128,-1,31
 131 609 131 609 135 618 c 128,-1,32
 139 627 139 627 148 635 c 0,33,34
 199 676 199 676 266.5 694.5 c 128,-1,35
 334 713 334 713 414 713 c 0,36,37
 503 713 503 713 570.5 674.5 c 128,-1,38
 638 636 638 636 676 568 c 128,-1,39
 714 500 714 500 714 412 c 0,40,41
 714 320 714 320 690.5 243 c 128,-1,42
 667 166 667 166 621 109.5 c 128,-1,43
 575 53 575 53 509 22.5 c 128,-1,44
 443 -8 443 -8 357 -8 c 0,0,1
EndSplineSet
EndChar

StartChar: F
Encoding: 70 70 73
Width: 542
GlyphClass: 2
Flags: W
AnchorPoint: "Anchor-2" 256 0 basechar 0
AnchorPoint: "Anchor-0" 369 705 basechar 0
LayerCount: 2
Fore
SplineSet
88 -6 m 0,0,1
 70 -6 70 -6 63 3.5 c 128,-1,2
 56 13 56 13 58 31 c 2,3,-1
 160 673 l 2,4,5
 163 689 163 689 172.5 697 c 128,-1,6
 182 705 182 705 198 705 c 2,7,-1
 558 705 l 2,8,9
 573 705 573 705 580 699.5 c 128,-1,10
 587 694 587 694 587 683 c 0,11,12
 587 668 587 668 578.5 660 c 128,-1,13
 570 652 570 652 555 652 c 2,14,-1
 219 652 l 1,15,-1
 176 383 l 1,16,-1
 487 383 l 2,17,18
 501 383 501 383 508.5 377.5 c 128,-1,19
 516 372 516 372 516 361 c 0,20,21
 516 347 516 347 507.5 338.5 c 128,-1,22
 499 330 499 330 484 330 c 2,23,-1
 168 330 l 1,24,-1
 120 26 l 2,25,26
 114 -6 114 -6 88 -6 c 0,0,1
EndSplineSet
EndChar

StartChar: G
Encoding: 71 71 74
Width: 722
GlyphClass: 2
Flags: W
AnchorPoint: "Anchor-2" 376 0 basechar 0
AnchorPoint: "Anchor-0" 437 705 basechar 0
LayerCount: 2
Fore
SplineSet
387 -8 m 0,0,1
 290 -8 290 -8 221 26 c 128,-1,2
 152 60 152 60 115.5 127.5 c 128,-1,3
 79 195 79 195 79 292 c 0,4,5
 79 387 79 387 104 464 c 128,-1,6
 129 541 129 541 176 597 c 128,-1,7
 223 653 223 653 289 683 c 128,-1,8
 355 713 355 713 439 713 c 0,9,10
 505 713 505 713 562.5 694 c 128,-1,11
 620 675 620 675 658 637 c 0,12,13
 667 629 667 629 669.5 618.5 c 128,-1,14
 672 608 672 608 669 599.5 c 128,-1,15
 666 591 666 591 659.5 585.5 c 128,-1,16
 653 580 653 580 643.5 580 c 128,-1,17
 634 580 634 580 623 589 c 0,18,19
 587 624 587 624 540 640 c 128,-1,20
 493 656 493 656 435 656 c 0,21,22
 345 656 345 656 280 611.5 c 128,-1,23
 215 567 215 567 180 485.5 c 128,-1,24
 145 404 145 404 145 293 c 0,25,26
 145 169 145 169 208 108.5 c 128,-1,27
 271 48 271 48 393 48 c 0,28,29
 446 48 446 48 489 57.5 c 128,-1,30
 532 67 532 67 571 82 c 1,31,-1
 550 44 l 1,32,-1
 592 309 l 1,33,-1
 433 309 l 2,34,35
 419 309 419 309 411 315 c 128,-1,36
 403 321 403 321 403 332 c 0,37,38
 403 346 403 346 412 353.5 c 128,-1,39
 421 361 421 361 435 361 c 2,40,-1
 622 361 l 2,41,42
 637 361 637 361 645 352.5 c 128,-1,43
 653 344 653 344 650 328 c 2,44,-1
 608 57 l 2,45,46
 606 44 606 44 601 37 c 128,-1,47
 596 30 596 30 585 25 c 0,48,49
 548 10 548 10 494.5 1 c 128,-1,50
 441 -8 441 -8 387 -8 c 0,0,1
EndSplineSet
EndChar

StartChar: H
Encoding: 72 72 81
Width: 756
GlyphClass: 2
Flags: W
AnchorPoint: "Anchor-5" 427 549 basechar 0
AnchorPoint: "Anchor-2" 345 0 basechar 0
AnchorPoint: "Anchor-0" 450 705 basechar 0
LayerCount: 2
Fore
SplineSet
84 -6 m 0,0,1
 69 -6 69 -6 62 3.5 c 128,-1,2
 55 13 55 13 58 31 c 2,3,-1
 161 680 l 2,4,5
 164 696 164 696 172 703.5 c 128,-1,6
 180 711 180 711 195 711 c 0,7,8
 211 711 211 711 217.5 701.5 c 128,-1,9
 224 692 224 692 222 674 c 2,10,-1
 176 385 l 1,11,-1
 625 385 l 1,12,-1
 672 680 l 2,13,14
 675 696 675 696 683 703.5 c 128,-1,15
 691 711 691 711 706 711 c 256,16,17
 721 711 721 711 728 702 c 128,-1,18
 735 693 735 693 733 674 c 2,19,-1
 630 25 l 2,20,21
 628 10 628 10 619.5 2 c 128,-1,22
 611 -6 611 -6 596 -6 c 0,23,24
 580 -6 580 -6 573 3.5 c 128,-1,25
 566 13 566 13 569 31 c 2,26,-1
 616 330 l 1,27,-1
 168 330 l 1,28,-1
 119 25 l 2,29,30
 117 10 117 10 108.5 2 c 128,-1,31
 100 -6 100 -6 84 -6 c 0,0,1
EndSplineSet
EndChar

StartChar: Hbar
Encoding: 294 294 82
Width: 789
GlyphClass: 1
Flags: W
LayerCount: 2
Fore
SplineSet
101 -6 m 0,0,1
 87 -6 87 -6 79.5 3.5 c 128,-1,2
 72 13 72 13 75 31 c 2,3,-1
 154 534 l 1,4,-1
 162 523 l 1,5,-1
 86 523 l 2,6,7
 56 523 56 523 56 544 c 0,8,9
 56 559 56 559 65.5 566.5 c 128,-1,10
 75 574 75 574 89 574 c 2,11,-1
 172 574 l 1,12,-1
 159 562 l 1,13,-1
 178 680 l 2,14,15
 180 696 180 696 188.5 703.5 c 128,-1,16
 197 711 197 711 212 711 c 256,17,18
 227 711 227 711 234 701.5 c 128,-1,19
 241 692 241 692 238 675 c 2,20,-1
 220 560 l 1,21,-1
 208 574 l 1,22,-1
 682 574 l 1,23,-1
 668 555 l 1,24,-1
 688 680 l 2,25,26
 690 696 690 696 698.5 703.5 c 128,-1,27
 707 711 707 711 722 711 c 256,28,29
 737 711 737 711 744 701.5 c 128,-1,30
 751 692 751 692 748 675 c 2,31,-1
 729 554 l 1,32,-1
 723 574 l 1,33,-1
 800 574 l 2,34,35
 829 574 829 574 829 553 c 0,36,37
 829 539 829 539 820 531 c 128,-1,38
 811 523 811 523 797 523 c 2,39,-1
 714 523 l 1,40,-1
 727 540 l 1,41,-1
 645 25 l 2,42,43
 643 10 643 10 635 2 c 128,-1,44
 627 -6 627 -6 611 -6 c 0,45,46
 597 -6 597 -6 589.5 3.5 c 128,-1,47
 582 13 582 13 585 31 c 2,48,-1
 632 328 l 1,49,-1
 183 328 l 1,50,-1
 135 25 l 2,51,52
 133 10 133 10 125 2 c 128,-1,53
 117 -6 117 -6 101 -6 c 0,0,1
192 382 m 1,54,-1
 640 382 l 1,55,-1
 663 523 l 1,56,-1
 214 523 l 1,57,-1
 192 382 l 1,54,-1
EndSplineSet
EndChar

StartChar: I
Encoding: 73 73 86
Width: 245
GlyphClass: 2
Flags: W
AnchorPoint: "Anchor-3" 109 0 basechar 0
AnchorPoint: "Anchor-2" 84 0 basechar 0
AnchorPoint: "Anchor-0" 196 705 basechar 0
LayerCount: 2
Fore
SplineSet
85 -6 m 256,0,1
 69 -6 69 -6 62 3.5 c 128,-1,2
 55 13 55 13 58 31 c 2,3,-1
 161 680 l 2,4,5
 164 696 164 696 172 703.5 c 128,-1,6
 180 711 180 711 195 711 c 0,7,8
 211 711 211 711 217.5 702 c 128,-1,9
 224 693 224 693 222 674 c 2,10,-1
 119 25 l 2,11,12
 117 10 117 10 109 2 c 128,-1,13
 101 -6 101 -6 85 -6 c 256,0,1
EndSplineSet
EndChar

StartChar: Iogonek
Encoding: 302 302 100
Width: 245
GlyphClass: 1
Flags: W
LayerCount: 2
Fore
SplineSet
77 -191 m 0,0,1
 31 -191 31 -191 7.5 -166 c 128,-1,2
 -16 -141 -16 -141 -16 -103 c 0,3,4
 -16 -63 -16 -63 6 -31 c 128,-1,5
 28 1 28 1 65 22 c 1,6,-1
 63 4 l 1,7,8
 59 10 59 10 58 16.5 c 128,-1,9
 57 23 57 23 58 30 c 2,10,-1
 161 680 l 2,11,12
 164 696 164 696 172 703.5 c 128,-1,13
 180 711 180 711 195 711 c 0,14,15
 211 711 211 711 217.5 702 c 128,-1,16
 224 693 224 693 222 674 c 2,17,-1
 119 25 l 2,18,19
 117 14 117 14 112 6.5 c 128,-1,20
 107 -1 107 -1 98 -5 c 0,21,22
 65 -21 65 -21 48.5 -44.5 c 128,-1,23
 32 -68 32 -68 32 -95 c 0,24,25
 32 -119 32 -119 45.5 -133.5 c 128,-1,26
 59 -148 59 -148 86 -148 c 0,27,28
 95 -148 95 -148 104 -146.5 c 128,-1,29
 113 -145 113 -145 124 -142 c 0,30,31
 134 -138 134 -138 140 -142.5 c 128,-1,32
 146 -147 146 -147 147.5 -155 c 128,-1,33
 149 -163 149 -163 146 -170.5 c 128,-1,34
 143 -178 143 -178 136 -181 c 0,35,36
 122 -186 122 -186 105.5 -188.5 c 128,-1,37
 89 -191 89 -191 77 -191 c 0,0,1
EndSplineSet
EndChar

StartChar: J
Encoding: 74 74 102
Width: 310
GlyphClass: 2
Flags: W
AnchorPoint: "Anchor-2" 150 0 basechar 0
AnchorPoint: "Anchor-0" 261 705 basechar 0
LayerCount: 2
Fore
SplineSet
-15 -6 m 2,0,1
 -31 -7 -31 -7 -39.5 0 c 128,-1,2
 -48 7 -48 7 -48 20 c 256,3,4
 -48 33 -48 33 -40.5 40 c 128,-1,5
 -33 47 -33 47 -20 48 c 2,6,-1
 13 51 l 2,7,8
 70 55 70 55 104 90 c 128,-1,9
 138 125 138 125 148 192 c 2,10,-1
 226 682 l 2,11,12
 229 697 229 697 237.5 704 c 128,-1,13
 246 711 246 711 261 711 c 256,14,15
 276 711 276 711 282.5 702 c 128,-1,16
 289 693 289 693 287 676 c 2,17,-1
 208 181 l 2,18,19
 200 125 200 125 176.5 85.5 c 128,-1,20
 153 46 153 46 114 24 c 128,-1,21
 75 2 75 2 16 -3 c 2,22,-1
 -15 -6 l 2,0,1
EndSplineSet
EndChar

StartChar: K
Encoding: 75 75 104
Width: 607
GlyphClass: 2
Flags: W
AnchorPoint: "Anchor-2" 280 0 basechar 0
AnchorPoint: "Anchor-0" 382 705 basechar 0
LayerCount: 2
Fore
SplineSet
85 -6 m 0,0,1
 70 -6 70 -6 63 3 c 128,-1,2
 56 12 56 12 59 30 c 2,3,-1
 162 681 l 2,4,5
 165 697 165 697 173 704 c 128,-1,6
 181 711 181 711 196 711 c 256,7,8
 211 711 211 711 218 702 c 128,-1,9
 225 693 225 693 222 675 c 2,10,-1
 176 381 l 1,11,-1
 178 381 l 1,12,-1
 574 697 l 2,13,14
 584 705 584 705 590.5 708 c 128,-1,15
 597 711 597 711 607 711 c 0,16,17
 619 711 619 711 626.5 703.5 c 128,-1,18
 634 696 634 696 633.5 686 c 128,-1,19
 633 676 633 676 623 667 c 2,20,-1
 212 338 l 1,21,-1
 215 374 l 1,22,-1
 543 38 l 2,23,24
 552 29 552 29 551.5 18.5 c 128,-1,25
 551 8 551 8 544 1 c 128,-1,26
 537 -6 537 -6 523 -6 c 0,27,28
 513 -6 513 -6 505.5 -1.5 c 128,-1,29
 498 3 498 3 489 12 c 2,30,-1
 171 336 l 1,31,-1
 169 336 l 1,32,-1
 119 24 l 2,33,34
 118 9 118 9 109.5 1.5 c 128,-1,35
 101 -6 101 -6 85 -6 c 0,0,1
EndSplineSet
EndChar

StartChar: L
Encoding: 76 76 106
Width: 535
GlyphClass: 2
Flags: W
AnchorPoint: "Anchor-5" 188 387 basechar 0
AnchorPoint: "Anchor-2" 268 0 basechar 0
AnchorPoint: "Anchor-1" 346 705 basechar 0
AnchorPoint: "Anchor-0" 196 705 basechar 0
LayerCount: 2
Fore
SplineSet
88 0 m 2,0,1
 72 0 72 0 64.5 9 c 128,-1,2
 57 18 57 18 59 35 c 2,3,-1
 162 683 l 2,4,5
 165 698 165 698 173 704.5 c 128,-1,6
 181 711 181 711 196 711 c 256,7,8
 211 711 211 711 218 702 c 128,-1,9
 225 693 225 693 223 677 c 2,10,-1
 125 55 l 1,11,-1
 464 55 l 2,12,13
 478 55 478 55 485.5 49.5 c 128,-1,14
 493 44 493 44 493 33 c 0,15,16
 493 16 493 16 483.5 8 c 128,-1,17
 474 0 474 0 461 0 c 2,18,-1
 88 0 l 2,0,1
EndSplineSet
EndChar

StartChar: M
Encoding: 77 77 116
Width: 850
GlyphClass: 2
Flags: W
AnchorPoint: "Anchor-2" 392 0 basechar 0
AnchorPoint: "Anchor-0" 499 705 basechar 0
LayerCount: 2
Fore
SplineSet
87 -1 m 0,0,1
 73 -1 73 -1 66 7.5 c 128,-1,2
 59 16 59 16 61 31 c 2,3,-1
 164 683 l 2,4,5
 167 698 167 698 174.5 704.5 c 128,-1,6
 182 711 182 711 195 711 c 0,7,8
 207 711 207 711 213.5 705.5 c 128,-1,9
 220 700 220 700 225 687 c 2,10,-1
 421 147 l 1,11,-1
 394 147 l 1,12,-1
 767 692 l 2,13,14
 775 702 775 702 782.5 706.5 c 128,-1,15
 790 711 790 711 801 711 c 0,16,17
 815 711 815 711 821.5 702.5 c 128,-1,18
 828 694 828 694 825 678 c 2,19,-1
 722 26 l 2,20,21
 720 13 720 13 713 6 c 128,-1,22
 706 -1 706 -1 692 -1 c 0,23,24
 679 -1 679 -1 671.5 7.5 c 128,-1,25
 664 16 664 16 666 31 c 2,26,-1
 761 632 l 1,27,-1
 785 632 l 1,28,-1
 434 120 l 2,29,30
 429 110 429 110 422.5 106.5 c 128,-1,31
 416 103 416 103 406 103 c 0,32,33
 394 103 394 103 387.5 108.5 c 128,-1,34
 381 114 381 114 377 125 c 2,35,-1
 191 631 l 1,36,-1
 212 631 l 1,37,-1
 116 26 l 2,38,39
 115 13 115 13 107.5 6 c 128,-1,40
 100 -1 100 -1 87 -1 c 0,0,1
EndSplineSet
EndChar

StartChar: N
Encoding: 78 78 118
Width: 735
GlyphClass: 2
Flags: W
AnchorPoint: "Anchor-2" 340 0 basechar 0
AnchorPoint: "Anchor-0" 441 705 basechar 0
LayerCount: 2
Fore
SplineSet
82 -6 m 0,0,1
 69 -6 69 -6 62.5 3 c 128,-1,2
 56 12 56 12 58 28 c 2,3,-1
 162 684 l 2,4,5
 165 699 165 699 173 705 c 128,-1,6
 181 711 181 711 192 711 c 0,7,8
 204 711 204 711 210.5 706.5 c 128,-1,9
 217 702 217 702 223 691 c 2,10,-1
 579 70 l 1,11,-1
 559 70 l 1,12,-1
 656 683 l 2,13,14
 659 698 659 698 667 704.5 c 128,-1,15
 675 711 675 711 690 711 c 0,16,17
 703 711 703 711 709 702 c 128,-1,18
 715 693 715 693 712 677 c 2,19,-1
 608 22 l 2,20,21
 606 8 606 8 599 1 c 128,-1,22
 592 -6 592 -6 581 -6 c 0,23,24
 569 -6 569 -6 562 -1 c 128,-1,25
 555 4 555 4 548 15 c 2,26,-1
 192 635 l 1,27,-1
 211 635 l 1,28,-1
 114 22 l 2,29,30
 112 8 112 8 104.5 1 c 128,-1,31
 97 -6 97 -6 82 -6 c 0,0,1
EndSplineSet
EndChar

StartChar: Eng
Encoding: 330 330 128
Width: 735
GlyphClass: 2
Flags: W
AnchorPoint: "Anchor-2" 329 0 basechar 0
AnchorPoint: "Anchor-0" 441 705 basechar 0
LayerCount: 2
Fore
SplineSet
408 -191 m 0,0,1
 397 -191 397 -191 390 -186 c 128,-1,2
 383 -181 383 -181 381 -173.5 c 128,-1,3
 379 -166 379 -166 381 -158.5 c 128,-1,4
 383 -151 383 -151 389 -146 c 128,-1,5
 395 -141 395 -141 405 -140 c 0,6,7
 461 -140 461 -140 498 -111 c 128,-1,8
 535 -82 535 -82 545 -19 c 2,9,-1
 552 28 l 1,10,-1
 557 0 l 1,11,-1
 192 635 l 1,12,-1
 211 635 l 1,13,-1
 114 22 l 2,14,15
 112 8 112 8 104.5 1 c 128,-1,16
 97 -6 97 -6 82 -6 c 0,17,18
 69 -6 69 -6 62.5 3 c 128,-1,19
 56 12 56 12 58 28 c 2,20,-1
 162 683 l 2,21,22
 165 698 165 698 173 704.5 c 128,-1,23
 181 711 181 711 192 711 c 0,24,25
 204 711 204 711 210.5 706.5 c 128,-1,26
 217 702 217 702 223 691 c 2,27,-1
 578 70 l 1,28,-1
 559 70 l 1,29,-1
 656 683 l 2,30,31
 659 698 659 698 667 704.5 c 128,-1,32
 675 711 675 711 689 711 c 256,33,34
 703 711 703 711 709 702 c 128,-1,35
 715 693 715 693 712 677 c 2,36,-1
 602 -18 l 2,37,38
 588 -105 588 -105 538.5 -148 c 128,-1,39
 489 -191 489 -191 408 -191 c 0,0,1
EndSplineSet
EndChar

StartChar: O
Encoding: 79 79 129
Width: 759
GlyphClass: 2
Flags: W
AnchorPoint: "Anchor-5" 397 353 basechar 0
AnchorPoint: "Anchor-3" 407 0 basechar 0
AnchorPoint: "Anchor-2" 353 0 basechar 0
AnchorPoint: "Anchor-1" 492 705 basechar 0
AnchorPoint: "Anchor-0" 443 705 basechar 0
LayerCount: 2
Fore
SplineSet
362 -8 m 256,0,1
 276 -8 276 -8 212.5 26 c 128,-1,2
 149 60 149 60 114 127.5 c 128,-1,3
 79 195 79 195 79 291 c 0,4,5
 79 381 79 381 102 457.5 c 128,-1,6
 125 534 125 534 170 591.5 c 128,-1,7
 215 649 215 649 280.5 681 c 128,-1,8
 346 713 346 713 431 713 c 0,9,10
 518 713 518 713 581.5 679 c 128,-1,11
 645 645 645 645 680 578 c 128,-1,12
 715 511 715 511 715 414 c 0,13,14
 715 324 715 324 692 247.5 c 128,-1,15
 669 171 669 171 624 113.5 c 128,-1,16
 579 56 579 56 513.5 24 c 128,-1,17
 448 -8 448 -8 362 -8 c 256,0,1
364 48 m 0,18,19
 457 48 457 48 520.5 96 c 128,-1,20
 584 144 584 144 616.5 227 c 128,-1,21
 649 310 649 310 649 413 c 0,22,23
 649 537 649 537 590.5 597 c 128,-1,24
 532 657 532 657 428 657 c 0,25,26
 337 657 337 657 273.5 609 c 128,-1,27
 210 561 210 561 177.5 478.5 c 128,-1,28
 145 396 145 396 145 292 c 0,29,30
 145 168 145 168 203 108 c 128,-1,31
 261 48 261 48 364 48 c 0,18,19
EndSplineSet
Substitution2: "Single Substitution lookup 29 subtable" ordmasculine
Substitution2: "'aalt' Access All Alternates lookup 0 subtable" ordmasculine
EndChar

StartChar: OE
Encoding: 338 338 163
Width: 1042
GlyphClass: 2
Flags: W
AnchorPoint: "Anchor-2" 549 0 basechar 0
AnchorPoint: "Anchor-0" 661 705 basechar 0
LayerCount: 2
Fore
SplineSet
405 0 m 2,0,1
 248 0 248 0 163.5 76.5 c 128,-1,2
 79 153 79 153 79 292 c 0,3,4
 79 378 79 378 102 452.5 c 128,-1,5
 125 527 125 527 173.5 584 c 128,-1,6
 222 641 222 641 297 673 c 128,-1,7
 372 705 372 705 477 705 c 2,8,-1
 1039 705 l 2,9,10
 1052 705 1052 705 1059.5 700 c 128,-1,11
 1067 695 1067 695 1067 684 c 0,12,13
 1067 667 1067 667 1058 659.5 c 128,-1,14
 1049 652 1049 652 1036 652 c 2,15,-1
 684 652 l 1,16,-1
 642 384 l 1,17,-1
 969 384 l 2,18,19
 983 384 983 384 990.5 379 c 128,-1,20
 998 374 998 374 998 363 c 0,21,22
 998 347 998 347 988.5 339 c 128,-1,23
 979 331 979 331 966 331 c 2,24,-1
 633 331 l 1,25,-1
 589 53 l 1,26,-1
 937 53 l 2,27,28
 950 53 950 53 957.5 48 c 128,-1,29
 965 43 965 43 965 32 c 0,30,31
 965 16 965 16 956 8 c 128,-1,32
 947 0 947 0 934 0 c 2,33,-1
 405 0 l 2,0,1
406 54 m 2,34,-1
 529 54 l 1,35,-1
 624 651 l 1,36,-1
 475 651 l 2,37,38
 384 651 384 651 321 622.5 c 128,-1,39
 258 594 258 594 219 544 c 128,-1,40
 180 494 180 494 162 429.5 c 128,-1,41
 144 365 144 365 144 292 c 0,42,43
 144 177 144 177 209.5 115.5 c 128,-1,44
 275 54 275 54 406 54 c 2,34,-1
EndSplineSet
EndChar

StartChar: P
Encoding: 80 80 164
Width: 624
GlyphClass: 2
Flags: W
AnchorPoint: "Anchor-2" 281 0 basechar 0
AnchorPoint: "Anchor-0" 393 705 basechar 0
LayerCount: 2
Fore
SplineSet
86 -6 m 256,0,1
 71 -6 71 -6 63.5 3.5 c 128,-1,2
 56 13 56 13 58 29 c 2,3,-1
 161 675 l 2,4,5
 164 691 164 691 172.5 698 c 128,-1,6
 181 705 181 705 195 705 c 2,7,-1
 411 705 l 2,8,9
 515 705 515 705 573 658.5 c 128,-1,10
 631 612 631 612 631 518 c 0,11,12
 631 414 631 414 565 351.5 c 128,-1,13
 499 289 499 289 374 289 c 2,14,-1
 161 289 l 1,15,-1
 119 24 l 2,16,17
 117 9 117 9 109 1.5 c 128,-1,18
 101 -6 101 -6 86 -6 c 256,0,1
170 343 m 1,19,-1
 378 343 l 2,20,21
 471 343 471 343 519.5 387 c 128,-1,22
 568 431 568 431 568 515 c 0,23,24
 568 586 568 586 527 619 c 128,-1,25
 486 652 486 652 407 652 c 2,26,-1
 219 652 l 1,27,-1
 170 343 l 1,19,-1
EndSplineSet
EndChar

StartChar: Thorn
Encoding: 222 222 165
Width: 625
GlyphClass: 2
Flags: W
AnchorPoint: "Anchor-2" 281 0 basechar 0
AnchorPoint: "Anchor-0" 393 705 basechar 0
LayerCount: 2
Fore
SplineSet
83 -6 m 0,0,1
 69 -6 69 -6 62 3.5 c 128,-1,2
 55 13 55 13 58 30 c 2,3,-1
 161 679 l 2,4,5
 164 695 164 695 172.5 702.5 c 128,-1,6
 181 710 181 710 196 710 c 256,7,8
 211 710 211 710 218.5 701 c 128,-1,9
 226 692 226 692 223 678 c 2,10,-1
 207 574 l 1,11,-1
 390 574 l 2,12,13
 494 574 494 574 552 527.5 c 128,-1,14
 610 481 610 481 610 387 c 0,15,16
 610 283 610 283 544 220.5 c 128,-1,17
 478 158 478 158 353 158 c 2,18,-1
 140 158 l 1,19,-1
 119 24 l 2,20,21
 117 9 117 9 108 1.5 c 128,-1,22
 99 -6 99 -6 83 -6 c 0,0,1
149 212 m 1,23,-1
 357 212 l 2,24,25
 450 212 450 212 498.5 256 c 128,-1,26
 547 300 547 300 547 384 c 0,27,28
 547 455 547 455 506 488 c 128,-1,29
 465 521 465 521 387 521 c 2,30,-1
 198 521 l 1,31,-1
 149 212 l 1,23,-1
EndSplineSet
EndChar

StartChar: Q
Encoding: 81 81 166
Width: 759
GlyphClass: 2
Flags: W
AnchorPoint: "Anchor-5" 397 353 basechar 0
AnchorPoint: "Anchor-3" 407 0 basechar 0
AnchorPoint: "Anchor-2" 353 0 basechar 0
AnchorPoint: "Anchor-1" 492 705 basechar 0
AnchorPoint: "Anchor-0" 443 705 basechar 0
LayerCount: 2
Fore
SplineSet
564 -150 m 2,0,1
 570 -162 570 -162 568 -171.5 c 128,-1,2
 566 -181 566 -181 559 -186 c 128,-1,3
 552 -191 552 -191 543.5 -192 c 128,-1,4
 535 -193 535 -193 526.5 -188.5 c 128,-1,5
 518 -184 518 -184 512 -172 c 2,6,-1
 466 -71 l 2,7,8
 453 -40 453 -40 423.5 -24 c 128,-1,9
 394 -8 394 -8 352 -8 c 1,10,-1
 409 16 l 1,11,12
 450 14 450 14 477 -2 c 128,-1,13
 504 -18 504 -18 525 -64 c 2,14,-1
 564 -150 l 2,0,1
362 -8 m 256,15,16
 276 -8 276 -8 212.5 26 c 128,-1,17
 149 60 149 60 114 127.5 c 128,-1,18
 79 195 79 195 79 291 c 0,19,20
 79 381 79 381 102 457.5 c 128,-1,21
 125 534 125 534 170 591.5 c 128,-1,22
 215 649 215 649 280.5 681 c 128,-1,23
 346 713 346 713 431 713 c 0,24,25
 518 713 518 713 581.5 679 c 128,-1,26
 645 645 645 645 680 578 c 128,-1,27
 715 511 715 511 715 414 c 0,28,29
 715 324 715 324 692 247.5 c 128,-1,30
 669 171 669 171 624 113.5 c 128,-1,31
 579 56 579 56 513.5 24 c 128,-1,32
 448 -8 448 -8 362 -8 c 256,15,16
364 48 m 0,33,34
 457 48 457 48 520.5 96 c 128,-1,35
 584 144 584 144 616.5 227 c 128,-1,36
 649 310 649 310 649 413 c 0,37,38
 649 537 649 537 590.5 597 c 128,-1,39
 532 657 532 657 428 657 c 0,40,41
 337 657 337 657 273.5 609 c 128,-1,42
 210 561 210 561 177.5 478.5 c 128,-1,43
 145 396 145 396 145 292 c 0,44,45
 145 168 145 168 203 108 c 128,-1,46
 261 48 261 48 364 48 c 0,33,34
EndSplineSet
EndChar

StartChar: R
Encoding: 82 82 167
Width: 661
GlyphClass: 2
Flags: W
AnchorPoint: "Anchor-2" 308 0 basechar 0
AnchorPoint: "Anchor-0" 398 705 basechar 0
LayerCount: 2
Fore
SplineSet
84 -6 m 0,0,1
 70 -6 70 -6 63 3.5 c 128,-1,2
 56 13 56 13 59 30 c 2,3,-1
 161 674 l 2,4,5
 164 690 164 690 172.5 697.5 c 128,-1,6
 181 705 181 705 196 705 c 2,7,-1
 406 705 l 2,8,9
 519 705 519 705 575 655 c 128,-1,10
 631 605 631 605 631 518 c 0,11,12
 631 448 631 448 598 401 c 128,-1,13
 565 354 565 354 508 330.5 c 128,-1,14
 451 307 451 307 378 309 c 1,15,-1
 378 321 l 1,16,-1
 390 321 l 2,17,18
 432 321 432 321 459.5 296.5 c 128,-1,19
 487 272 487 272 504 226 c 2,20,-1
 576 36 l 2,21,22
 582 23 582 23 581 13.5 c 128,-1,23
 580 4 580 4 573 -1 c 128,-1,24
 566 -6 566 -6 554 -6 c 256,25,26
 542 -6 542 -6 534.5 0 c 128,-1,27
 527 6 527 6 521 20 c 2,28,-1
 445 220 l 2,29,30
 427 267 427 267 399 286 c 128,-1,31
 371 305 371 305 316 305 c 2,32,-1
 163 305 l 1,33,-1
 119 24 l 2,34,35
 117 9 117 9 108.5 1.5 c 128,-1,36
 100 -6 100 -6 84 -6 c 0,0,1
172 357 m 1,37,-1
 386 357 l 2,38,39
 472 357 472 357 520 398 c 128,-1,40
 568 439 568 439 568 515 c 0,41,42
 568 583 568 583 528.5 617.5 c 128,-1,43
 489 652 489 652 402 652 c 2,44,-1
 219 652 l 1,45,-1
 172 357 l 1,37,-1
EndSplineSet
EndChar

StartChar: S
Encoding: 83 83 175
Width: 607
GlyphClass: 2
Flags: W
AnchorPoint: "Anchor-2" 289 0 basechar 0
AnchorPoint: "Anchor-0" 365 705 basechar 0
LayerCount: 2
Fore
SplineSet
296 -8 m 0,0,1
 250 -8 250 -8 205 -1 c 128,-1,2
 160 6 160 6 120 22 c 128,-1,3
 80 38 80 38 47 64 c 0,4,5
 37 72 37 72 34.5 80.5 c 128,-1,6
 32 89 32 89 34 97.5 c 128,-1,7
 36 106 36 106 42.5 112 c 128,-1,8
 49 118 49 118 58.5 118.5 c 128,-1,9
 68 119 68 119 79 111 c 0,10,11
 128 75 128 75 182 61.5 c 128,-1,12
 236 48 236 48 300 48 c 0,13,14
 386 48 386 48 439 84.5 c 128,-1,15
 492 121 492 121 492 185 c 0,16,17
 492 229 492 229 461 260.5 c 128,-1,18
 430 292 430 292 350 309 c 2,19,-1
 249 334 l 2,20,21
 180 350 180 350 138.5 390 c 128,-1,22
 97 430 97 430 97 508 c 0,23,24
 97 554 97 554 117 592 c 128,-1,25
 137 630 137 630 172 657 c 128,-1,26
 207 684 207 684 253.5 698.5 c 128,-1,27
 300 713 300 713 354 713 c 0,28,29
 414 713 414 713 475.5 695 c 128,-1,30
 537 677 537 677 580 636 c 0,31,32
 589 629 589 629 591.5 619.5 c 128,-1,33
 594 610 594 610 591.5 601.5 c 128,-1,34
 589 593 589 593 582.5 588 c 128,-1,35
 576 583 576 583 567 583 c 128,-1,36
 558 583 558 583 546 591 c 0,37,38
 505 627 505 627 454.5 642 c 128,-1,39
 404 657 404 657 352 657 c 0,40,41
 298 657 298 657 254.5 638.5 c 128,-1,42
 211 620 211 620 185.5 587.5 c 128,-1,43
 160 555 160 555 160 510 c 0,44,45
 160 454 160 454 187.5 427.5 c 128,-1,46
 215 401 215 401 268 388 c 2,47,-1
 370 364 l 2,48,49
 466 342 466 342 510.5 298 c 128,-1,50
 555 254 555 254 555 192 c 0,51,52
 555 144 555 144 535 106 c 128,-1,53
 515 68 515 68 479.5 43 c 128,-1,54
 444 18 444 18 397.5 5 c 128,-1,55
 351 -8 351 -8 296 -8 c 0,0,1
EndSplineSet
EndChar

StartChar: uni1E9E
Encoding: 7838 7838 186
Width: 705
GlyphClass: 1
Flags: W
LayerCount: 2
Fore
SplineSet
388 -8 m 0,0,1
 338 -8 338 -8 291.5 6.5 c 128,-1,2
 245 21 245 21 213 47 c 0,3,4
 204 53 204 53 201.5 61.5 c 128,-1,5
 199 70 199 70 201 78.5 c 128,-1,6
 203 87 203 87 209.5 92.5 c 128,-1,7
 216 98 216 98 224.5 98.5 c 128,-1,8
 233 99 233 99 243 92 c 0,9,10
 275 70 275 70 312.5 58.5 c 128,-1,11
 350 47 350 47 390 47 c 0,12,13
 477 47 477 47 522.5 88.5 c 128,-1,14
 568 130 568 130 568 205 c 0,15,16
 568 265 568 265 528 296.5 c 128,-1,17
 488 328 488 328 413 328 c 2,18,-1
 304 328 l 2,19,20
 293 328 293 328 286 333.5 c 128,-1,21
 279 339 279 339 279 349 c 0,22,23
 279 366 279 366 287.5 373.5 c 128,-1,24
 296 381 296 381 309 381 c 2,25,-1
 413 381 l 2,26,27
 490 381 490 381 537.5 419.5 c 128,-1,28
 585 458 585 458 585 532 c 0,29,30
 585 589 585 589 541.5 623.5 c 128,-1,31
 498 658 498 658 418 658 c 0,32,33
 316 658 316 658 260.5 610 c 128,-1,34
 205 562 205 562 188 463 c 2,35,-1
 118 24 l 2,36,37
 117 9 117 9 108.5 1.5 c 128,-1,38
 100 -6 100 -6 84 -6 c 0,39,40
 69 -6 69 -6 62 3 c 128,-1,41
 55 12 55 12 58 29 c 2,42,-1
 128 469 l 2,43,44
 141 553 141 553 178 607 c 128,-1,45
 215 661 215 661 276 687 c 128,-1,46
 337 713 337 713 422 713 c 0,47,48
 494 713 494 713 544.5 690.5 c 128,-1,49
 595 668 595 668 621 628 c 128,-1,50
 647 588 647 588 647 537 c 0,51,52
 647 459 647 459 601 410 c 128,-1,53
 555 361 555 361 487 349 c 1,54,-1
 487 364 l 1,55,56
 531 357 531 357 563 335 c 128,-1,57
 595 313 595 313 612.5 279 c 128,-1,58
 630 245 630 245 630 204 c 0,59,60
 630 138 630 138 602 90 c 128,-1,61
 574 42 574 42 520.5 17 c 128,-1,62
 467 -8 467 -8 388 -8 c 0,0,1
EndSplineSet
EndChar

StartChar: T
Encoding: 84 84 187
Width: 594
GlyphClass: 2
Flags: W
AnchorPoint: "Anchor-5" 315 358 basechar 0
AnchorPoint: "Anchor-2" 258 0 basechar 0
AnchorPoint: "Anchor-0" 370 705 basechar 0
LayerCount: 2
Fore
SplineSet
258 -6 m 0,0,1
 244 -6 244 -6 237 3.5 c 128,-1,2
 230 13 230 13 233 30 c 2,3,-1
 331 650 l 1,4,-1
 96 650 l 2,5,6
 82 650 82 650 74 656.5 c 128,-1,7
 66 663 66 663 66 674 c 0,8,9
 66 689 66 689 75 697 c 128,-1,10
 84 705 84 705 99 705 c 2,11,-1
 636 705 l 2,12,13
 651 705 651 705 658.5 699.5 c 128,-1,14
 666 694 666 694 666 683 c 0,15,16
 666 667 666 667 657 658.5 c 128,-1,17
 648 650 648 650 633 650 c 2,18,-1
 392 650 l 1,19,-1
 293 24 l 2,20,21
 291 10 291 10 282.5 2 c 128,-1,22
 274 -6 274 -6 258 -6 c 0,0,1
EndSplineSet
EndChar

StartChar: U
Encoding: 85 85 194
Width: 724
GlyphClass: 2
Flags: W
AnchorPoint: "Anchor-3" 388 0 basechar 0
AnchorPoint: "Anchor-2" 324 0 basechar 0
AnchorPoint: "Anchor-1" 655 705 basechar 0
AnchorPoint: "Anchor-0" 435 705 basechar 0
LayerCount: 2
Fore
SplineSet
333 -8 m 0,0,1
 266 -8 266 -8 216 10.5 c 128,-1,2
 166 29 166 29 135 67 c 128,-1,3
 104 105 104 105 93 161.5 c 128,-1,4
 82 218 82 218 94 292 c 2,5,-1
 156 682 l 2,6,7
 159 697 159 697 167.5 704 c 128,-1,8
 176 711 176 711 191 711 c 256,9,10
 206 711 206 711 212.5 702 c 128,-1,11
 219 693 219 693 217 676 c 2,12,-1
 155 286 l 2,13,14
 136 166 136 166 182 107 c 128,-1,15
 228 48 228 48 335 48 c 0,16,17
 440 48 440 48 500.5 101 c 128,-1,18
 561 154 561 154 580 272 c 2,19,-1
 645 682 l 2,20,21
 648 697 648 697 656.5 704 c 128,-1,22
 665 711 665 711 680 711 c 256,23,24
 695 711 695 711 701.5 702 c 128,-1,25
 708 693 708 693 705 676 c 2,26,-1
 641 265 l 2,27,28
 626 174 626 174 588.5 113.5 c 128,-1,29
 551 53 551 53 487 22.5 c 128,-1,30
 423 -8 423 -8 333 -8 c 0,0,1
EndSplineSet
EndChar

StartChar: V
Encoding: 86 86 217
Width: 677
GlyphClass: 2
Flags: W
AnchorPoint: "Anchor-2" 300 0 basechar 0
AnchorPoint: "Anchor-0" 411 705 basechar 0
LayerCount: 2
Fore
SplineSet
299 -6 m 256,0,1
 284 -6 284 -6 275 1.5 c 128,-1,2
 266 9 266 9 262 25 c 2,3,-1
 87 667 l 2,4,5
 84 679 84 679 87 687.5 c 128,-1,6
 90 696 90 696 97.5 700.5 c 128,-1,7
 105 705 105 705 115 705 c 0,8,9
 127 705 127 705 134.5 698.5 c 128,-1,10
 142 692 142 692 146 677 c 2,11,-1
 318 45 l 1,12,-1
 289 45 l 1,13,-1
 664 682 l 2,14,15
 672 694 672 694 680 699.5 c 128,-1,16
 688 705 688 705 701 705 c 256,17,18
 714 705 714 705 720.5 699.5 c 128,-1,19
 727 694 727 694 728.5 684.5 c 128,-1,20
 730 675 730 675 723 664 c 2,21,-1
 340 19 l 2,22,23
 332 6 332 6 323 0 c 128,-1,24
 314 -6 314 -6 299 -6 c 256,0,1
EndSplineSet
EndChar

StartChar: W
Encoding: 87 87 218
Width: 1096
GlyphClass: 2
Flags: W
AnchorPoint: "Anchor-2" 510 0 basechar 0
AnchorPoint: "Anchor-0" 620 705 basechar 0
LayerCount: 2
Fore
SplineSet
268 -6 m 0,0,1
 254 -6 254 -6 246 2 c 128,-1,2
 238 10 238 10 235 27 c 2,3,-1
 113 673 l 2,4,5
 110 691 110 691 118 701 c 128,-1,6
 126 711 126 711 142 711 c 0,7,8
 154 711 154 711 162 704.5 c 128,-1,9
 170 698 170 698 172 682 c 2,10,-1
 290 44 l 1,11,-1
 257 44 l 1,12,-1
 581 685 l 2,13,14
 588 699 588 699 596.5 705 c 128,-1,15
 605 711 605 711 618 711 c 0,16,17
 630 711 630 711 637.5 703.5 c 128,-1,18
 645 696 645 696 648 677 c 2,19,-1
 766 44 l 1,20,-1
 737 44 l 1,21,-1
 1061 688 l 2,22,23
 1067 700 1067 700 1075 705.5 c 128,-1,24
 1083 711 1083 711 1094 711 c 0,25,26
 1113 711 1113 711 1119 699 c 128,-1,27
 1125 687 1125 687 1117 669 c 2,28,-1
 788 20 l 2,29,30
 781 7 781 7 772 0.5 c 128,-1,31
 763 -6 763 -6 748 -6 c 0,32,33
 735 -6 735 -6 726.5 2 c 128,-1,34
 718 10 718 10 715 27 c 2,35,-1
 600 641 l 1,36,-1
 621 641 l 1,37,-1
 307 20 l 2,38,39
 300 7 300 7 291.5 0.5 c 128,-1,40
 283 -6 283 -6 268 -6 c 0,0,1
EndSplineSet
EndChar

StartChar: X
Encoding: 88 88 223
Width: 640
GlyphClass: 2
Flags: W
AnchorPoint: "Anchor-2" 282 0 basechar 0
AnchorPoint: "Anchor-0" 394 705 basechar 0
LayerCount: 2
Fore
SplineSet
32 -6 m 0,0,1
 20 -6 20 -6 12.5 0.5 c 128,-1,2
 5 7 5 7 5 18 c 128,-1,3
 5 29 5 29 15 40 c 2,4,-1
 311 372 l 1,5,-1
 311 351 l 1,6,-1
 129 665 l 2,7,8
 122 678 122 678 122.5 688.5 c 128,-1,9
 123 699 123 699 131 705 c 128,-1,10
 139 711 139 711 151 711 c 256,11,12
 163 711 163 711 169.5 705.5 c 128,-1,13
 176 700 176 700 183 688 c 2,14,-1
 351 395 l 1,15,-1
 336 395 l 1,16,-1
 597 693 l 2,17,18
 605 703 605 703 613 707 c 128,-1,19
 621 711 621 711 632 711 c 256,20,21
 643 711 643 711 650.5 704.5 c 128,-1,22
 658 698 658 698 658.5 687.5 c 128,-1,23
 659 677 659 677 649 665 c 2,24,-1
 367 347 l 1,25,-1
 367 375 l 1,26,-1
 562 40 l 2,27,28
 570 28 570 28 568.5 17.5 c 128,-1,29
 567 7 567 7 559.5 0.5 c 128,-1,30
 552 -6 552 -6 539 -6 c 0,31,32
 527 -6 527 -6 521 -0.5 c 128,-1,33
 515 5 515 5 507 17 c 2,34,-1
 326 331 l 1,35,-1
 348 331 l 1,36,-1
 66 12 l 2,37,38
 58 2 58 2 50.5 -2 c 128,-1,39
 43 -6 43 -6 32 -6 c 0,0,1
EndSplineSet
EndChar

StartChar: Y
Encoding: 89 89 224
Width: 586
GlyphClass: 2
Flags: W
AnchorPoint: "Anchor-2" 254 0 basechar 0
AnchorPoint: "Anchor-0" 359 705 basechar 0
LayerCount: 2
Fore
SplineSet
254 -6 m 0,0,1
 239 -6 239 -6 232.5 3.5 c 128,-1,2
 226 13 226 13 228 29 c 2,3,-1
 281 366 l 1,4,-1
 287 318 l 1,5,-1
 89 665 l 2,6,7
 82 678 82 678 82.5 688.5 c 128,-1,8
 83 699 83 699 90.5 705 c 128,-1,9
 98 711 98 711 110 711 c 0,10,11
 123 711 123 711 129.5 705.5 c 128,-1,12
 136 700 136 700 143 688 c 2,13,-1
 319 379 l 1,14,-1
 300 379 l 1,15,-1
 581 693 l 2,16,17
 589 703 589 703 597 707 c 128,-1,18
 605 711 605 711 615 711 c 0,19,20
 626 711 626 711 633 704.5 c 128,-1,21
 640 698 640 698 640.5 687.5 c 128,-1,22
 641 677 641 677 631 665 c 2,23,-1
 320 318 l 1,24,-1
 343 366 l 1,25,-1
 288 24 l 2,26,27
 284 -6 284 -6 254 -6 c 0,0,1
EndSplineSet
EndChar

StartChar: uni01B3
Encoding: 435 435 231
Width: 610
GlyphClass: 1
Flags: W
LayerCount: 2
Fore
SplineSet
253 -6 m 0,0,1
 238 -6 238 -6 231.5 3.5 c 128,-1,2
 225 13 225 13 228 31 c 2,3,-1
 281 366 l 1,4,-1
 287 318 l 1,5,-1
 87 668 l 2,6,7
 81 679 81 679 82.5 689 c 128,-1,8
 84 699 84 699 91.5 705 c 128,-1,9
 99 711 99 711 111 711 c 0,10,11
 118 711 118 711 123 709 c 128,-1,12
 128 707 128 707 133 702 c 128,-1,13
 138 697 138 697 143 688 c 2,14,-1
 319 379 l 1,15,-1
 300 379 l 1,16,-1
 532 640 l 2,17,18
 557 667 557 667 578 683 c 128,-1,19
 599 699 599 699 621.5 706 c 128,-1,20
 644 713 644 713 671 713 c 0,21,22
 696 713 696 713 711 707.5 c 128,-1,23
 726 702 726 702 726 686 c 0,24,25
 726 678 726 678 719 672.5 c 128,-1,26
 712 667 712 667 706 663.5 c 128,-1,27
 700 660 700 660 703 661 c 1,28,29
 703 661 703 661 690 662 c 128,-1,30
 677 663 677 663 671 663 c 0,31,32
 647 663 647 663 627.5 651.5 c 128,-1,33
 608 640 608 640 582 612 c 2,34,-1
 320 318 l 1,35,-1
 343 366 l 1,36,-1
 289 26 l 2,37,38
 283 -6 283 -6 253 -6 c 0,0,1
EndSplineSet
EndChar

StartChar: Z
Encoding: 90 90 235
Width: 582
GlyphClass: 2
Flags: W
AnchorPoint: "Anchor-2" 276 0 basechar 0
AnchorPoint: "Anchor-0" 367 705 basechar 0
LayerCount: 2
Fore
SplineSet
42 0 m 2,0,1
 32 0 32 0 25 5 c 128,-1,2
 18 10 18 10 15.5 18.5 c 128,-1,3
 13 27 13 27 16 38 c 128,-1,4
 19 49 19 49 29 61 c 2,5,-1
 552 678 l 1,6,-1
 552 650 l 1,7,-1
 140 650 l 2,8,9
 126 650 126 650 118.5 656.5 c 128,-1,10
 111 663 111 663 111 673 c 0,11,12
 111 690 111 690 121 697.5 c 128,-1,13
 131 705 131 705 144 705 c 2,14,-1
 585 705 l 2,15,16
 598 705 598 705 605.5 700 c 128,-1,17
 613 695 613 695 615 686.5 c 128,-1,18
 617 678 617 678 613 667 c 128,-1,19
 609 656 609 656 599 645 c 2,20,-1
 76 28 l 1,21,-1
 76 55 l 1,22,-1
 503 55 l 2,23,24
 517 55 517 55 524.5 49.5 c 128,-1,25
 532 44 532 44 532 33 c 0,26,27
 532 16 532 16 522.5 8 c 128,-1,28
 513 0 513 0 500 0 c 2,29,-1
 42 0 l 2,0,1
EndSplineSet
EndChar

StartChar: a
Encoding: 97 97 242
Width: 522
GlyphClass: 2
Flags: W
AnchorPoint: "Anchor-3" 396 0 basechar 0
AnchorPoint: "Anchor-2" 232 0 basechar 0
AnchorPoint: "Anchor-0" 302 484 basechar 0
LayerCount: 2
Fore
SplineSet
202 -8 m 0,0,1
 161 -8 161 -8 125 10 c 128,-1,2
 89 28 89 28 66.5 60.5 c 128,-1,3
 44 93 44 93 44 136 c 0,4,5
 44 187 44 187 73 218.5 c 128,-1,6
 102 250 102 250 163 264 c 128,-1,7
 224 278 224 278 319 278 c 2,8,-1
 400 278 l 1,9,-1
 393 233 l 1,10,-1
 333 233 l 2,11,12
 248 233 248 233 199 224.5 c 128,-1,13
 150 216 150 216 129.5 195 c 128,-1,14
 109 174 109 174 109 139 c 0,15,16
 109 91 109 91 141 66 c 128,-1,17
 173 41 173 41 213 41 c 0,18,19
 252 41 252 41 286 58.5 c 128,-1,20
 320 76 320 76 344 109.5 c 128,-1,21
 368 143 368 143 376 191 c 2,22,-1
 395 313 l 2,23,24
 406 377 406 377 380 409.5 c 128,-1,25
 354 442 354 442 288 442 c 0,26,27
 249 442 249 442 214.5 434.5 c 128,-1,28
 180 427 180 427 148 406 c 0,29,30
 138 399 138 399 128.5 399.5 c 128,-1,31
 119 400 119 400 113 405.5 c 128,-1,32
 107 411 107 411 106 419 c 128,-1,33
 105 427 105 427 109.5 436 c 128,-1,34
 114 445 114 445 126 451 c 0,35,36
 163 474 163 474 206.5 484 c 128,-1,37
 250 494 250 494 293 494 c 0,38,39
 356 494 356 494 394.5 470 c 128,-1,40
 433 446 433 446 447.5 401.5 c 128,-1,41
 462 357 462 357 452 296 c 2,42,-1
 409 24 l 2,43,44
 407 9 407 9 398.5 1.5 c 128,-1,45
 390 -6 390 -6 375 -6 c 0,46,47
 362 -6 362 -6 355.5 3 c 128,-1,48
 349 12 349 12 351 29 c 2,49,-1
 365 118 l 1,50,-1
 374 113 l 1,51,52
 361 72 361 72 334 45 c 128,-1,53
 307 18 307 18 272.5 5 c 128,-1,54
 238 -8 238 -8 202 -8 c 0,0,1
EndSplineSet
Substitution2: "'ss01' Style Set 1 lookup 35 subtable" a.ss01
Substitution2: "'salt' Stylistic Alternatives lookup 34 subtable" a.ss01
Substitution2: "Single Substitution lookup 29 subtable" ordfeminine
AlternateSubs2: "'aalt' Access All Alternates lookup 1 subtable" a.ss01 ordfeminine
EndChar

StartChar: aogonek
Encoding: 261 261 265
Width: 522
GlyphClass: 1
Flags: W
LayerCount: 2
Fore
SplineSet
364 -191 m 0,0,1
 319 -191 319 -191 295 -166 c 128,-1,2
 271 -141 271 -141 271 -103 c 0,3,4
 271 -60 271 -60 295.5 -27.5 c 128,-1,5
 320 5 320 5 361 27 c 1,6,-1
 353 8 l 1,7,8
 351 13 351 13 350.5 18 c 128,-1,9
 350 23 350 23 351 29 c 2,10,-1
 365 118 l 1,11,-1
 374 113 l 1,12,13
 361 72 361 72 334 45 c 128,-1,14
 307 18 307 18 272.5 5 c 128,-1,15
 238 -8 238 -8 202 -8 c 0,16,17
 161 -8 161 -8 125 10 c 128,-1,18
 89 28 89 28 66.5 60.5 c 128,-1,19
 44 93 44 93 44 136 c 0,20,21
 44 187 44 187 73 218.5 c 128,-1,22
 102 250 102 250 163 264 c 128,-1,23
 224 278 224 278 319 278 c 2,24,-1
 400 278 l 1,25,-1
 393 233 l 1,26,-1
 333 233 l 2,27,28
 248 233 248 233 199 224.5 c 128,-1,29
 150 216 150 216 129.5 195 c 128,-1,30
 109 174 109 174 109 139 c 0,31,32
 109 91 109 91 141 66 c 128,-1,33
 173 41 173 41 213 41 c 0,34,35
 252 41 252 41 286 58.5 c 128,-1,36
 320 76 320 76 344 109.5 c 128,-1,37
 368 143 368 143 376 191 c 2,38,-1
 395 313 l 2,39,40
 406 377 406 377 380 409.5 c 128,-1,41
 354 442 354 442 288 442 c 0,42,43
 249 442 249 442 214.5 434.5 c 128,-1,44
 180 427 180 427 148 406 c 0,45,46
 138 399 138 399 128.5 399.5 c 128,-1,47
 119 400 119 400 113 405.5 c 128,-1,48
 107 411 107 411 106 419 c 128,-1,49
 105 427 105 427 109.5 436 c 128,-1,50
 114 445 114 445 126 451 c 0,51,52
 163 474 163 474 206.5 484 c 128,-1,53
 250 494 250 494 293 494 c 0,54,55
 356 494 356 494 394.5 470 c 128,-1,56
 433 446 433 446 447.5 401.5 c 128,-1,57
 462 357 462 357 452 296 c 2,58,-1
 409 24 l 2,59,60
 407 12 407 12 401 5 c 128,-1,61
 395 -2 395 -2 386 -6 c 0,62,63
 353 -21 353 -21 336 -44 c 128,-1,64
 319 -67 319 -67 319 -95 c 0,65,66
 319 -119 319 -119 333 -133.5 c 128,-1,67
 347 -148 347 -148 373 -148 c 0,68,69
 382 -148 382 -148 391 -146.5 c 128,-1,70
 400 -145 400 -145 411 -142 c 0,71,72
 422 -138 422 -138 427.5 -142.5 c 128,-1,73
 433 -147 433 -147 434.5 -155 c 128,-1,74
 436 -163 436 -163 433.5 -170.5 c 128,-1,75
 431 -178 431 -178 423 -181 c 0,76,77
 410 -186 410 -186 393.5 -188.5 c 128,-1,78
 377 -191 377 -191 364 -191 c 0,0,1
EndSplineSet
Substitution2: "'ss01' Style Set 1 lookup 35 subtable" aogonek.ss01
Substitution2: "'salt' Stylistic Alternatives lookup 34 subtable" aogonek.ss01
Substitution2: "'aalt' Access All Alternates lookup 0 subtable" aogonek.ss01
EndChar

StartChar: ae
Encoding: 230 230 269
Width: 859
GlyphClass: 2
Flags: W
AnchorPoint: "Anchor-2" 377 0 basechar 0
AnchorPoint: "Anchor-0" 443 484 basechar 0
LayerCount: 2
Fore
SplineSet
207 -8 m 0,0,1
 165 -8 165 -8 127.5 9 c 128,-1,2
 90 26 90 26 67 58.5 c 128,-1,3
 44 91 44 91 44 136 c 0,4,5
 44 187 44 187 73 218 c 128,-1,6
 102 249 102 249 163 263.5 c 128,-1,7
 224 278 224 278 319 278 c 2,8,-1
 400 278 l 1,9,-1
 393 233 l 1,10,-1
 333 233 l 2,11,12
 248 233 248 233 199 224 c 128,-1,13
 150 215 150 215 129.5 194.5 c 128,-1,14
 109 174 109 174 109 139 c 0,15,16
 109 91 109 91 141 66 c 128,-1,17
 173 41 173 41 213 41 c 0,18,19
 252 41 252 41 286.5 57 c 128,-1,20
 321 73 321 73 345.5 104.5 c 128,-1,21
 370 136 370 136 378 183 c 2,22,-1
 397 305 l 2,23,24
 408 374 408 374 381 408 c 128,-1,25
 354 442 354 442 288 442 c 0,26,27
 249 442 249 442 214.5 434.5 c 128,-1,28
 180 427 180 427 148 406 c 0,29,30
 138 399 138 399 128.5 399.5 c 128,-1,31
 119 400 119 400 113 405.5 c 128,-1,32
 107 411 107 411 106 419 c 128,-1,33
 105 427 105 427 109.5 436 c 128,-1,34
 114 445 114 445 126 451 c 0,35,36
 163 474 163 474 206.5 484 c 128,-1,37
 250 494 250 494 293 494 c 0,38,39
 365 494 365 494 405.5 460.5 c 128,-1,40
 446 427 446 427 453 364 c 1,41,-1
 422 364 l 1,42,43
 453 422 453 422 506.5 458 c 128,-1,44
 560 494 560 494 634 494 c 0,45,46
 690 494 690 494 728 474 c 128,-1,47
 766 454 766 454 787.5 420.5 c 128,-1,48
 809 387 809 387 816 345.5 c 128,-1,49
 823 304 823 304 817 261 c 2,50,-1
 816 251 l 2,51,52
 815 243 815 243 808 238 c 128,-1,53
 801 233 801 233 791 233 c 2,54,-1
 424 233 l 1,55,-1
 431 278 l 1,56,-1
 782 278 l 1,57,-1
 764 262 l 1,58,59
 771 313 771 313 760.5 354 c 128,-1,60
 750 395 750 395 719 420 c 128,-1,61
 688 445 688 445 633 445 c 0,62,63
 574 445 574 445 535 418.5 c 128,-1,64
 496 392 496 392 475 351 c 128,-1,65
 454 310 454 310 446 267 c 2,66,-1
 443 246 l 2,67,68
 428 155 428 155 469.5 99 c 128,-1,69
 511 43 511 43 597 43 c 0,70,71
 637 43 637 43 671 52.5 c 128,-1,72
 705 62 705 62 737 85 c 0,73,74
 749 93 749 93 757.5 93 c 128,-1,75
 766 93 766 93 772 88 c 128,-1,76
 778 83 778 83 779.5 75.5 c 128,-1,77
 781 68 781 68 777 59 c 128,-1,78
 773 50 773 50 764 43 c 0,79,80
 730 18 730 18 684.5 5 c 128,-1,81
 639 -8 639 -8 596 -8 c 0,82,83
 510 -8 510 -8 455.5 34 c 128,-1,84
 401 76 401 76 388 152 c 1,85,-1
 415 152 l 1,86,87
 392 69 392 69 334.5 30.5 c 128,-1,88
 277 -8 277 -8 207 -8 c 0,0,1
EndSplineSet
EndChar

StartChar: b
Encoding: 98 98 271
Width: 575
GlyphClass: 2
Flags: W
AnchorPoint: "Anchor-2" 270 0 basechar 0
AnchorPoint: "Anchor-0" 376 705 basechar 0
LayerCount: 2
Fore
SplineSet
285 -8 m 0,0,1
 225 -8 225 -8 178 22 c 128,-1,2
 131 52 131 52 114 116 c 1,3,-1
 122 122 l 1,4,-1
 107 24 l 2,5,6
 105 9 105 9 96.5 1.5 c 128,-1,7
 88 -6 88 -6 73 -6 c 256,8,9
 58 -6 58 -6 51.5 3 c 128,-1,10
 45 12 45 12 48 30 c 2,11,-1
 151 681 l 2,12,13
 153 696 153 696 162 703.5 c 128,-1,14
 171 711 171 711 186 711 c 0,15,16
 200 711 200 711 206.5 702 c 128,-1,17
 213 693 213 693 211 675 c 2,18,-1
 163 377 l 1,19,-1
 152 377 l 1,20,21
 178 431 178 431 226 462.5 c 128,-1,22
 274 494 274 494 339 494 c 0,23,24
 396 494 396 494 438.5 468.5 c 128,-1,25
 481 443 481 443 504.5 397 c 128,-1,26
 528 351 528 351 528 286 c 0,27,28
 528 207 528 207 500 140 c 128,-1,29
 472 73 472 73 417.5 32.5 c 128,-1,30
 363 -8 363 -8 285 -8 c 0,0,1
281 43 m 0,31,32
 341 43 341 43 382 76 c 128,-1,33
 423 109 423 109 444.5 164 c 128,-1,34
 466 219 466 219 466 285 c 0,35,36
 466 363 466 363 428 402.5 c 128,-1,37
 390 442 390 442 323 442 c 0,38,39
 264 442 264 442 222.5 409 c 128,-1,40
 181 376 181 376 160 321.5 c 128,-1,41
 139 267 139 267 139 200 c 0,42,43
 139 123 139 123 176.5 83 c 128,-1,44
 214 43 214 43 281 43 c 0,31,32
EndSplineSet
EndChar

StartChar: uni0253
Encoding: 595 595 272
Width: 575
GlyphClass: 1
Flags: W
LayerCount: 2
Fore
SplineSet
285 -8 m 0,0,1
 225 -8 225 -8 178 22 c 128,-1,2
 131 52 131 52 114 116 c 1,3,-1
 122 122 l 1,4,-1
 106 24 l 2,5,6
 104 9 104 9 96 1.5 c 128,-1,7
 88 -6 88 -6 73 -6 c 256,8,9
 58 -6 58 -6 51 3 c 128,-1,10
 44 12 44 12 47 30 c 2,11,-1
 131 557 l 2,12,13
 144 638 144 638 186 675.5 c 128,-1,14
 228 713 228 713 305 713 c 0,15,16
 335 713 335 713 347.5 706 c 128,-1,17
 360 699 360 699 360 686 c 0,18,19
 360 674 360 674 352.5 667 c 128,-1,20
 345 660 345 660 335 660 c 0,21,22
 331 660 331 660 321.5 661 c 128,-1,23
 312 662 312 662 304 662 c 0,24,25
 258 662 258 662 229 635.5 c 128,-1,26
 200 609 200 609 192 556 c 2,27,-1
 163 377 l 1,28,-1
 152 377 l 1,29,30
 178 431 178 431 226 462.5 c 128,-1,31
 274 494 274 494 339 494 c 0,32,33
 396 494 396 494 438.5 468.5 c 128,-1,34
 481 443 481 443 504.5 397 c 128,-1,35
 528 351 528 351 528 286 c 0,36,37
 528 207 528 207 500 140 c 128,-1,38
 472 73 472 73 417.5 32.5 c 128,-1,39
 363 -8 363 -8 285 -8 c 0,0,1
281 43 m 0,40,41
 341 43 341 43 382 76 c 128,-1,42
 423 109 423 109 444.5 164 c 128,-1,43
 466 219 466 219 466 285 c 0,44,45
 466 363 466 363 428 402.5 c 128,-1,46
 390 442 390 442 323 442 c 0,47,48
 264 442 264 442 222.5 409 c 128,-1,49
 181 376 181 376 160 321.5 c 128,-1,50
 139 267 139 267 139 200 c 0,51,52
 139 123 139 123 176.5 83 c 128,-1,53
 214 43 214 43 281 43 c 0,40,41
EndSplineSet
EndChar

StartChar: c
Encoding: 99 99 273
Width: 459
GlyphClass: 2
Flags: W
AnchorPoint: "Anchor-2" 237 0 basechar 0
AnchorPoint: "Anchor-0" 300 484 basechar 0
LayerCount: 2
Fore
SplineSet
253 -8 m 0,0,1
 184 -8 184 -8 138.5 18.5 c 128,-1,2
 93 45 93 45 71 93.5 c 128,-1,3
 49 142 49 142 49 205 c 0,4,5
 49 258 49 258 63.5 309.5 c 128,-1,6
 78 361 78 361 108.5 402.5 c 128,-1,7
 139 444 139 444 187 469 c 128,-1,8
 235 494 235 494 301 494 c 0,9,10
 339 494 339 494 375.5 482.5 c 128,-1,11
 412 471 412 471 437 453 c 0,12,13
 448 445 448 445 453 435.5 c 128,-1,14
 458 426 458 426 456.5 417 c 128,-1,15
 455 408 455 408 449.5 402.5 c 128,-1,16
 444 397 444 397 436.5 396.5 c 128,-1,17
 429 396 429 396 419 403 c 0,18,19
 393 423 393 423 364 432 c 128,-1,20
 335 441 335 441 301 441 c 0,21,22
 250 441 250 441 214 421 c 128,-1,23
 178 401 178 401 155.5 366.5 c 128,-1,24
 133 332 133 332 122 290 c 128,-1,25
 111 248 111 248 111 205 c 0,26,27
 111 132 111 132 145.5 88 c 128,-1,28
 180 44 180 44 259 44 c 0,29,30
 285 44 285 44 313.5 52.5 c 128,-1,31
 342 61 342 61 368 80 c 0,32,33
 376 86 376 86 384.5 85.5 c 128,-1,34
 393 85 393 85 398.5 80 c 128,-1,35
 404 75 404 75 406 67 c 128,-1,36
 408 59 408 59 405.5 51 c 128,-1,37
 403 43 403 43 394 36 c 0,38,39
 366 15 366 15 327.5 3.5 c 128,-1,40
 289 -8 289 -8 253 -8 c 0,0,1
EndSplineSet
EndChar

StartChar: d
Encoding: 100 100 280
Width: 575
GlyphClass: 2
Flags: W
AnchorPoint: "Anchor-5" 291 245 basechar 0
AnchorPoint: "Anchor-4" 470 582 basechar 0
AnchorPoint: "Anchor-2" 254 0 basechar 0
AnchorPoint: "Anchor-1" 616 705 basechar 0
AnchorPoint: "Anchor-0" 334 509 basechar 0
LayerCount: 2
Fore
SplineSet
236 -8 m 0,0,1
 180 -8 180 -8 137.5 17 c 128,-1,2
 95 42 95 42 71.5 88.5 c 128,-1,3
 48 135 48 135 48 199 c 0,4,5
 48 278 48 278 75.5 345 c 128,-1,6
 103 412 103 412 157.5 453 c 128,-1,7
 212 494 212 494 290 494 c 0,8,9
 350 494 350 494 397 463.5 c 128,-1,10
 444 433 444 433 461 369 c 1,11,-1
 454 369 l 1,12,-1
 504 682 l 2,13,14
 506 697 506 697 515 704 c 128,-1,15
 524 711 524 711 539 711 c 0,16,17
 553 711 553 711 559.5 702 c 128,-1,18
 566 693 566 693 563 676 c 2,19,-1
 460 24 l 2,20,21
 458 10 458 10 449.5 2 c 128,-1,22
 441 -6 441 -6 425 -6 c 0,23,24
 411 -6 411 -6 404.5 3.5 c 128,-1,25
 398 13 398 13 401 30 c 2,26,-1
 415 115 l 1,27,-1
 424 108 l 1,28,29
 398 55 398 55 350 23.5 c 128,-1,30
 302 -8 302 -8 236 -8 c 0,0,1
252 43 m 0,31,32
 312 43 312 43 353 76 c 128,-1,33
 394 109 394 109 415.5 164 c 128,-1,34
 437 219 437 219 437 285 c 0,35,36
 437 363 437 363 399 402.5 c 128,-1,37
 361 442 361 442 294 442 c 0,38,39
 235 442 235 442 193.5 409 c 128,-1,40
 152 376 152 376 131 321.5 c 128,-1,41
 110 267 110 267 110 200 c 0,42,43
 110 123 110 123 147.5 83 c 128,-1,44
 185 43 185 43 252 43 c 0,31,32
EndSplineSet
EndChar

StartChar: eth
Encoding: 240 240 281
Width: 550
GlyphClass: 1
Flags: W
LayerCount: 2
Fore
SplineSet
249 -8 m 0,0,1
 191 -8 191 -8 144.5 15.5 c 128,-1,2
 98 39 98 39 71.5 83 c 128,-1,3
 45 127 45 127 45 186 c 0,4,5
 45 265 45 265 77 325 c 128,-1,6
 109 385 109 385 164.5 419 c 128,-1,7
 220 453 220 453 291 453 c 0,8,9
 339 453 339 453 377.5 435.5 c 128,-1,10
 416 418 416 418 440.5 383 c 128,-1,11
 465 348 465 348 468 292 c 1,12,-1
 452 292 l 1,13,14
 457 397 457 397 428.5 477.5 c 128,-1,15
 400 558 400 558 336 608 c 1,16,-1
 350 607 l 1,17,-1
 209 546 l 2,18,19
 199 542 199 542 191 545.5 c 128,-1,20
 183 549 183 549 180 556.5 c 128,-1,21
 177 564 177 564 179.5 572.5 c 128,-1,22
 182 581 182 581 193 585 c 2,23,-1
 311 635 l 1,24,-1
 310 626 l 1,25,26
 292 637 292 637 270.5 647 c 128,-1,27
 249 657 249 657 225 665 c 0,28,29
 211 669 211 669 206.5 677.5 c 128,-1,30
 202 686 202 686 204.5 694.5 c 128,-1,31
 207 703 207 703 216 707.5 c 128,-1,32
 225 712 225 712 239 708 c 0,33,34
 275 696 275 696 305.5 682.5 c 128,-1,35
 336 669 336 669 362 650 c 1,36,-1
 347 651 l 1,37,-1
 478 706 l 2,38,39
 490 712 490 712 498 708.5 c 128,-1,40
 506 705 506 705 509 696.5 c 128,-1,41
 512 688 512 688 509 680 c 128,-1,42
 506 672 506 672 494 668 c 2,43,-1
 383 621 l 1,44,-1
 385 631 l 1,45,46
 428 595 428 595 455 546.5 c 128,-1,47
 482 498 482 498 495 440 c 128,-1,48
 508 382 508 382 507 313 c 0,49,50
 507 252 507 252 492.5 194 c 128,-1,51
 478 136 478 136 447.5 90.5 c 128,-1,52
 417 45 417 45 368 18.5 c 128,-1,53
 319 -8 319 -8 249 -8 c 0,0,1
252 44 m 0,54,55
 304 44 304 44 345.5 68.5 c 128,-1,56
 387 93 387 93 412 141 c 128,-1,57
 437 189 437 189 437 256 c 0,58,59
 437 326 437 326 398 363.5 c 128,-1,60
 359 401 359 401 291 401 c 0,61,62
 241 401 241 401 199 376.5 c 128,-1,63
 157 352 157 352 132 304.5 c 128,-1,64
 107 257 107 257 107 189 c 0,65,66
 107 120 107 120 146 82 c 128,-1,67
 185 44 185 44 252 44 c 0,54,55
EndSplineSet
EndChar

StartChar: dcroat
Encoding: 273 273 283
Width: 575
GlyphClass: 1
Flags: W
LayerCount: 2
Fore
SplineSet
236 -8 m 0,0,1
 180 -8 180 -8 137.5 17 c 128,-1,2
 95 42 95 42 71.5 88.5 c 128,-1,3
 48 135 48 135 48 199 c 0,4,5
 48 278 48 278 75.5 345 c 128,-1,6
 103 412 103 412 157.5 453 c 128,-1,7
 212 494 212 494 290 494 c 0,8,9
 350 494 350 494 397 463.5 c 128,-1,10
 444 433 444 433 461 369 c 1,11,-1
 453 369 l 1,12,-1
 483 558 l 1,13,-1
 314 558 l 2,14,15
 301 558 301 558 293.5 563 c 128,-1,16
 286 568 286 568 286 578 c 0,17,18
 286 592 286 592 294.5 599 c 128,-1,19
 303 606 303 606 317 606 c 2,20,-1
 503 606 l 1,21,-1
 487 580 l 1,22,-1
 504 681 l 2,23,24
 506 697 506 697 515 704 c 128,-1,25
 524 711 524 711 539 711 c 0,26,27
 553 711 553 711 559.5 702.5 c 128,-1,28
 566 694 566 694 563 676 c 2,29,-1
 548 580 l 1,30,-1
 541 606 l 1,31,-1
 620 606 l 2,32,33
 633 606 633 606 640.5 601 c 128,-1,34
 648 596 648 596 648 586 c 0,35,36
 648 573 648 573 639.5 565.5 c 128,-1,37
 631 558 631 558 617 558 c 2,38,-1
 544 558 l 1,39,-1
 460 24 l 2,40,41
 458 10 458 10 449 2 c 128,-1,42
 440 -6 440 -6 425 -6 c 256,43,44
 410 -6 410 -6 404 3.5 c 128,-1,45
 398 13 398 13 400 30 c 2,46,-1
 414 115 l 1,47,-1
 424 108 l 1,48,49
 398 55 398 55 350 23.5 c 128,-1,50
 302 -8 302 -8 236 -8 c 0,0,1
252 43 m 0,51,52
 312 43 312 43 353 76 c 128,-1,53
 394 109 394 109 415.5 164 c 128,-1,54
 437 219 437 219 437 285 c 0,55,56
 437 363 437 363 399 402.5 c 128,-1,57
 361 442 361 442 294 442 c 0,58,59
 235 442 235 442 193.5 409 c 128,-1,60
 152 376 152 376 131 321.5 c 128,-1,61
 110 267 110 267 110 200 c 0,62,63
 110 123 110 123 147.5 83 c 128,-1,64
 185 43 185 43 252 43 c 0,51,52
EndSplineSet
EndChar

StartChar: uni0257
Encoding: 599 599 285
Width: 575
GlyphClass: 1
Flags: W
LayerCount: 2
Fore
SplineSet
236 -8 m 0,0,1
 180 -8 180 -8 137.5 17 c 128,-1,2
 95 42 95 42 71.5 88.5 c 128,-1,3
 48 135 48 135 48 199 c 0,4,5
 48 278 48 278 75.5 345 c 128,-1,6
 103 412 103 412 157.5 453 c 128,-1,7
 212 494 212 494 290 494 c 0,8,9
 350 494 350 494 397 463.5 c 128,-1,10
 444 433 444 433 461 369 c 1,11,-1
 454 369 l 1,12,-1
 484 557 l 2,13,14
 496 638 496 638 538.5 675.5 c 128,-1,15
 581 713 581 713 656 713 c 0,16,17
 687 713 687 713 699.5 706 c 128,-1,18
 712 699 712 699 712 686 c 0,19,20
 712 674 712 674 704.5 667 c 128,-1,21
 697 660 697 660 687 660 c 0,22,23
 683 660 683 660 673.5 661 c 128,-1,24
 664 662 664 662 656 662 c 0,25,26
 609 662 609 662 581 635.5 c 128,-1,27
 553 609 553 609 544 556 c 2,28,-1
 460 24 l 2,29,30
 458 10 458 10 449.5 2 c 128,-1,31
 441 -6 441 -6 425 -6 c 0,32,33
 411 -6 411 -6 404.5 3.5 c 128,-1,34
 398 13 398 13 401 30 c 2,35,-1
 415 115 l 1,36,-1
 424 108 l 1,37,38
 398 55 398 55 350 23.5 c 128,-1,39
 302 -8 302 -8 236 -8 c 0,0,1
252 43 m 0,40,41
 312 43 312 43 353 76 c 128,-1,42
 394 109 394 109 415.5 164 c 128,-1,43
 437 219 437 219 437 285 c 0,44,45
 437 363 437 363 399 402.5 c 128,-1,46
 361 442 361 442 294 442 c 0,47,48
 235 442 235 442 193.5 409 c 128,-1,49
 152 376 152 376 131 321.5 c 128,-1,50
 110 267 110 267 110 200 c 0,51,52
 110 123 110 123 147.5 83 c 128,-1,53
 185 43 185 43 252 43 c 0,40,41
EndSplineSet
EndChar

StartChar: e
Encoding: 101 101 288
Width: 527
GlyphClass: 2
Flags: W
AnchorPoint: "Anchor-3" 311 0 basechar 0
AnchorPoint: "Anchor-2" 247 0 basechar 0
AnchorPoint: "Anchor-0" 308 484 basechar 0
LayerCount: 2
Fore
SplineSet
265 -8 m 0,0,1
 198 -8 198 -8 149 17.5 c 128,-1,2
 100 43 100 43 74 90 c 128,-1,3
 48 137 48 137 48 203 c 0,4,5
 48 281 48 281 78 347 c 128,-1,6
 108 413 108 413 165.5 453.5 c 128,-1,7
 223 494 223 494 302 494 c 0,8,9
 358 494 358 494 395.5 474 c 128,-1,10
 433 454 433 454 455 420.5 c 128,-1,11
 477 387 477 387 484 344 c 128,-1,12
 491 301 491 301 485 257 c 0,13,14
 483 241 483 241 477 235.5 c 128,-1,15
 471 230 471 230 458 230 c 2,16,-1
 93 230 l 1,17,-1
 100 275 l 1,18,-1
 451 275 l 1,19,-1
 432 262 l 1,20,21
 440 313 440 313 429 354 c 128,-1,22
 418 395 418 395 387.5 420 c 128,-1,23
 357 445 357 445 301 445 c 0,24,25
 243 445 243 445 204 418.5 c 128,-1,26
 165 392 165 392 143.5 351 c 128,-1,27
 122 310 122 310 114 267 c 2,28,-1
 111 246 l 2,29,30
 96 155 96 155 137.5 99 c 128,-1,31
 179 43 179 43 266 43 c 0,32,33
 306 43 306 43 340 53 c 128,-1,34
 374 63 374 63 406 85 c 0,35,36
 418 93 418 93 426.5 93 c 128,-1,37
 435 93 435 93 441 88 c 128,-1,38
 447 83 447 83 448.5 75.5 c 128,-1,39
 450 68 450 68 446 59 c 128,-1,40
 442 50 442 50 432 43 c 0,41,42
 399 18 399 18 353.5 5 c 128,-1,43
 308 -8 308 -8 265 -8 c 0,0,1
EndSplineSet
EndChar

StartChar: uni0259
Encoding: 601 601 311
Width: 528
GlyphClass: 1
Flags: W
LayerCount: 2
Fore
SplineSet
225 -8 m 0,0,1
 150 -8 150 -8 107 27 c 128,-1,2
 64 62 64 62 48.5 117.5 c 128,-1,3
 33 173 33 173 43 234 c 0,4,5
 45 246 45 246 52 250.5 c 128,-1,6
 59 255 59 255 70 255 c 2,7,-1
 435 255 l 1,8,-1
 427 210 l 1,9,-1
 77 210 l 1,10,-1
 97 223 l 1,11,12
 90 174 90 174 100.5 132 c 128,-1,13
 111 90 111 90 142 65 c 128,-1,14
 173 40 173 40 226 40 c 0,15,16
 286 40 286 40 325 66.5 c 128,-1,17
 364 93 364 93 385.5 134.5 c 128,-1,18
 407 176 407 176 413 219 c 2,19,-1
 417 240 l 2,20,21
 432 331 432 331 391 386.5 c 128,-1,22
 350 442 350 442 262 442 c 0,23,24
 222 442 222 442 186 431.5 c 128,-1,25
 150 421 150 421 120 397 c 0,26,27
 109 389 109 389 100.5 389 c 128,-1,28
 92 389 92 389 86.5 393.5 c 128,-1,29
 81 398 81 398 78.5 406 c 128,-1,30
 76 414 76 414 79 422.5 c 128,-1,31
 82 431 82 431 90 438 c 0,32,33
 122 465 122 465 170.5 479.5 c 128,-1,34
 219 494 219 494 263 494 c 0,35,36
 331 494 331 494 379.5 468 c 128,-1,37
 428 442 428 442 454 395 c 128,-1,38
 480 348 480 348 480 282 c 0,39,40
 480 204 480 204 449.5 138 c 128,-1,41
 419 72 419 72 362 32 c 128,-1,42
 305 -8 305 -8 225 -8 c 0,0,1
EndSplineSet
EndChar

StartChar: f
Encoding: 102 102 314
Width: 319
GlyphClass: 2
Flags: W
AnchorPoint: "Anchor-2" 96 0 basechar 0
AnchorPoint: "Anchor-0" 208 705 basechar 0
LayerCount: 2
Fore
SplineSet
95 -6 m 0,0,1
 80 -6 80 -6 73.5 3 c 128,-1,2
 67 12 67 12 70 30 c 2,3,-1
 135 436 l 1,4,-1
 67 436 l 2,5,6
 55 436 55 436 48.5 441 c 128,-1,7
 42 446 42 446 42 455 c 0,8,9
 42 470 42 470 50.5 477.5 c 128,-1,10
 59 485 59 485 74 485 c 2,11,-1
 152 485 l 1,12,-1
 140 474 l 1,13,-1
 149 528 l 2,14,15
 161 608 161 608 210.5 654 c 128,-1,16
 260 700 260 700 344 705 c 2,17,-1
 374 707 l 2,18,19
 385 708 385 708 391.5 703.5 c 128,-1,20
 398 699 398 699 400.5 691.5 c 128,-1,21
 403 684 403 684 401 676.5 c 128,-1,22
 399 669 399 669 393.5 663.5 c 128,-1,23
 388 658 388 658 379 657 c 2,24,-1
 348 655 l 2,25,26
 287 651 287 651 253 619 c 128,-1,27
 219 587 219 587 209 525 c 2,28,-1
 201 477 l 1,29,-1
 195 485 l 1,30,-1
 319 485 l 2,31,32
 332 485 332 485 338 480.5 c 128,-1,33
 344 476 344 476 344 467 c 0,34,35
 344 451 344 451 335.5 443.5 c 128,-1,36
 327 436 327 436 312 436 c 2,37,-1
 196 436 l 1,38,-1
 130 24 l 2,39,40
 125 -6 125 -6 95 -6 c 0,0,1
EndSplineSet
EndChar

StartChar: g
Encoding: 103 103 315
Width: 578
GlyphClass: 2
Flags: W
AnchorPoint: "Anchor-0" 328 484 basechar 0
LayerCount: 2
Fore
SplineSet
244 -188 m 0,0,1
 187 -188 187 -188 138 -171.5 c 128,-1,2
 89 -155 89 -155 49 -127 c 0,3,4
 40 -122 40 -122 38 -114 c 128,-1,5
 36 -106 36 -106 38.5 -98 c 128,-1,6
 41 -90 41 -90 47 -84.5 c 128,-1,7
 53 -79 53 -79 61.5 -78 c 128,-1,8
 70 -77 70 -77 79 -83 c 0,9,10
 116 -109 116 -109 153.5 -123 c 128,-1,11
 191 -137 191 -137 239 -137 c 0,12,13
 305 -137 305 -137 346.5 -102.5 c 128,-1,14
 388 -68 388 -68 400 4 c 2,15,-1
 420 129 l 1,16,-1
 428 128 l 1,17,18
 403 74 403 74 354 42.5 c 128,-1,19
 305 11 305 11 240 11 c 0,20,21
 182 11 182 11 139 35.5 c 128,-1,22
 96 60 96 60 72 104.5 c 128,-1,23
 48 149 48 149 48 209 c 0,24,25
 48 265 48 265 64 316 c 128,-1,26
 80 367 80 367 111 407 c 128,-1,27
 142 447 142 447 187.5 470.5 c 128,-1,28
 233 494 233 494 292 494 c 0,29,30
 353 494 353 494 400 463.5 c 128,-1,31
 447 433 447 433 464 369 c 1,32,-1
 455 362 l 1,33,-1
 471 462 l 2,34,35
 474 477 474 477 482.5 484.5 c 128,-1,36
 491 492 491 492 506 492 c 0,37,38
 520 492 520 492 526.5 482.5 c 128,-1,39
 533 473 533 473 530 456 c 2,40,-1
 459 7 l 2,41,42
 443 -91 443 -91 390 -139.5 c 128,-1,43
 337 -188 337 -188 244 -188 c 0,0,1
253 63 m 0,44,45
 314 63 314 63 355.5 95.5 c 128,-1,46
 397 128 397 128 418.5 181 c 128,-1,47
 440 234 440 234 440 295 c 0,48,49
 440 365 440 365 402 403.5 c 128,-1,50
 364 442 364 442 296 442 c 0,51,52
 236 442 236 442 194 409.5 c 128,-1,53
 152 377 152 377 131 324.5 c 128,-1,54
 110 272 110 272 110 211 c 0,55,56
 110 140 110 140 147.5 101.5 c 128,-1,57
 185 63 185 63 253 63 c 0,44,45
EndSplineSet
EndChar

StartChar: uni01E5
Encoding: 485 485 322
Width: 578
GlyphClass: 1
Flags: W
LayerCount: 2
Fore
SplineSet
245 -188 m 0,0,1
 187 -188 187 -188 138.5 -171.5 c 128,-1,2
 90 -155 90 -155 50 -127 c 0,3,4
 41 -122 41 -122 39 -114 c 128,-1,5
 37 -106 37 -106 39.5 -98 c 128,-1,6
 42 -90 42 -90 48 -84.5 c 128,-1,7
 54 -79 54 -79 62.5 -78 c 128,-1,8
 71 -77 71 -77 80 -83 c 0,9,10
 117 -109 117 -109 154 -123 c 128,-1,11
 191 -137 191 -137 240 -137 c 0,12,13
 291 -137 291 -137 327.5 -116 c 128,-1,14
 364 -95 364 -95 383 -52 c 1,15,-1
 387 -62 l 1,16,-1
 284 -62 l 2,17,18
 271 -62 271 -62 265 -56 c 128,-1,19
 259 -50 259 -50 259 -40 c 0,20,21
 259 -27 259 -27 267.5 -21.5 c 128,-1,22
 276 -16 276 -16 286 -16 c 2,23,-1
 403 -16 l 1,24,-1
 394 -24 l 1,25,26
 396 -16 396 -16 398 -8.5 c 128,-1,27
 400 -1 400 -1 401 6 c 2,28,-1
 424 152 l 1,29,-1
 429 151 l 1,30,31
 405 98 405 98 355.5 66 c 128,-1,32
 306 34 306 34 240 34 c 0,33,34
 182 34 182 34 139.5 58.5 c 128,-1,35
 97 83 97 83 73 125.5 c 128,-1,36
 49 168 49 168 49 222 c 0,37,38
 49 274 49 274 65.5 323 c 128,-1,39
 82 372 82 372 113.5 410 c 128,-1,40
 145 448 145 448 190 471 c 128,-1,41
 235 494 235 494 294 494 c 0,42,43
 355 494 355 494 402 463 c 128,-1,44
 449 432 449 432 465 369 c 1,45,-1
 457 362 l 1,46,-1
 472 462 l 2,47,48
 475 477 475 477 483.5 484.5 c 128,-1,49
 492 492 492 492 506 492 c 0,50,51
 521 492 521 492 527 482.5 c 128,-1,52
 533 473 533 473 531 456 c 2,53,-1
 461 10 l 2,54,55
 460 1 460 1 458 -6.5 c 128,-1,56
 456 -14 456 -14 454 -22 c 1,57,-1
 450 -16 l 1,58,-1
 503 -16 l 2,59,60
 515 -16 515 -16 521.5 -21.5 c 128,-1,61
 528 -27 528 -27 528 -37 c 0,62,63
 528 -50 528 -50 519.5 -56 c 128,-1,64
 511 -62 511 -62 501 -62 c 2,65,-1
 434 -62 l 1,66,-1
 445 -54 l 1,67,68
 421 -122 421 -122 371.5 -155 c 128,-1,69
 322 -188 322 -188 245 -188 c 0,0,1
255 86 m 0,70,71
 315 86 315 86 356.5 117 c 128,-1,72
 398 148 398 148 420 198 c 128,-1,73
 442 248 442 248 442 304 c 0,74,75
 442 368 442 368 404 405 c 128,-1,76
 366 442 366 442 298 442 c 0,77,78
 239 442 239 442 197 411 c 128,-1,79
 155 380 155 380 133 330.5 c 128,-1,80
 111 281 111 281 111 224 c 0,81,82
 111 160 111 160 149 123 c 128,-1,83
 187 86 187 86 255 86 c 0,70,71
EndSplineSet
EndChar

StartChar: h
Encoding: 104 104 323
Width: 560
GlyphClass: 2
Flags: W
AnchorPoint: "Anchor-5" 281 246 basechar 0
AnchorPoint: "Anchor-4" 215 582 basechar 0
AnchorPoint: "Anchor-2" 249 0 basechar 0
AnchorPoint: "Anchor-1" 253 705 basechar 0
AnchorPoint: "Anchor-0" 354 705 basechar 0
LayerCount: 2
Fore
SplineSet
72 -6 m 0,0,1
 57 -6 57 -6 50.5 3.5 c 128,-1,2
 44 13 44 13 47 30 c 2,3,-1
 150 681 l 2,4,5
 153 696 153 696 161.5 703.5 c 128,-1,6
 170 711 170 711 185 711 c 0,7,8
 199 711 199 711 206 702 c 128,-1,9
 213 693 213 693 210 676 c 2,10,-1
 161 370 l 1,11,-1
 150 370 l 1,12,13
 175 428 175 428 224.5 461 c 128,-1,14
 274 494 274 494 343 494 c 0,15,16
 397 494 397 494 433.5 472 c 128,-1,17
 470 450 470 450 485.5 406 c 128,-1,18
 501 362 501 362 490 295 c 2,19,-1
 448 24 l 2,20,21
 446 9 446 9 436.5 1.5 c 128,-1,22
 427 -6 427 -6 412 -6 c 256,23,24
 397 -6 397 -6 390.5 3 c 128,-1,25
 384 12 384 12 387 30 c 2,26,-1
 429 295 l 2,27,28
 441 369 441 369 416 405 c 128,-1,29
 391 441 391 441 331 441 c 0,30,31
 251 441 251 441 204.5 393 c 128,-1,32
 158 345 158 345 145 264 c 2,33,-1
 108 24 l 2,34,35
 103 -6 103 -6 72 -6 c 0,0,1
EndSplineSet
EndChar

StartChar: hbar
Encoding: 295 295 324
Width: 560
GlyphClass: 1
Flags: W
LayerCount: 2
Fore
SplineSet
72 -6 m 0,0,1
 57 -6 57 -6 50.5 3 c 128,-1,2
 44 12 44 12 47 30 c 2,3,-1
 131 558 l 1,4,-1
 67 558 l 2,5,6
 54 558 54 558 46.5 563.5 c 128,-1,7
 39 569 39 569 40 579 c 0,8,9
 41 606 41 606 71 606 c 2,10,-1
 156 606 l 1,11,-1
 135 586 l 1,12,-1
 151 681 l 2,13,14
 153 698 153 698 162 704.5 c 128,-1,15
 171 711 171 711 186 711 c 0,16,17
 200 711 200 711 207 702.5 c 128,-1,18
 214 694 214 694 211 676 c 2,19,-1
 196 584 l 1,20,-1
 187 606 l 1,21,-1
 364 606 l 2,22,23
 378 606 378 606 385 600.5 c 128,-1,24
 392 595 392 595 392 584 c 0,25,26
 390 558 390 558 361 558 c 2,27,-1
 192 558 l 1,28,-1
 162 370 l 1,29,-1
 150 370 l 1,30,31
 176 428 176 428 225 461 c 128,-1,32
 274 494 274 494 343 494 c 0,33,34
 397 494 397 494 433.5 472 c 128,-1,35
 470 450 470 450 485.5 406 c 128,-1,36
 501 362 501 362 490 295 c 2,37,-1
 448 24 l 2,38,39
 446 9 446 9 436.5 1.5 c 128,-1,40
 427 -6 427 -6 412 -6 c 256,41,42
 397 -6 397 -6 390.5 3 c 128,-1,43
 384 12 384 12 387 30 c 2,44,-1
 429 295 l 2,45,46
 441 369 441 369 416 405 c 128,-1,47
 391 441 391 441 330 441 c 0,48,49
 251 441 251 441 204.5 393 c 128,-1,50
 158 345 158 345 145 264 c 2,51,-1
 108 24 l 2,52,53
 103 -6 103 -6 72 -6 c 0,0,1
EndSplineSet
EndChar

StartChar: i
Encoding: 105 105 329
Width: 222
GlyphClass: 2
Flags: W
AnchorPoint: "Anchor-3" 97 0 basechar 0
AnchorPoint: "Anchor-2" 73 0 basechar 0
LayerCount: 2
Fore
SplineSet
72 -6 m 256,0,1
 57 -6 57 -6 50.5 3 c 128,-1,2
 44 12 44 12 47 30 c 2,3,-1
 115 461 l 2,4,5
 118 477 118 477 126.5 484.5 c 128,-1,6
 135 492 135 492 150 492 c 0,7,8
 164 492 164 492 171 482.5 c 128,-1,9
 178 473 178 473 175 456 c 2,10,-1
 107 24 l 2,11,12
 105 9 105 9 96 1.5 c 128,-1,13
 87 -6 87 -6 72 -6 c 256,0,1
171 610 m 0,14,15
 152 610 152 610 142 619.5 c 128,-1,16
 132 629 132 629 133 646 c 0,17,18
 134 669 134 669 147.5 681 c 128,-1,19
 161 693 161 693 184 693 c 0,20,21
 203 693 203 693 213 684 c 128,-1,22
 223 675 223 675 222 657 c 0,23,24
 221 635 221 635 207.5 622.5 c 128,-1,25
 194 610 194 610 171 610 c 0,14,15
EndSplineSet
Substitution2: "'locl' Localized Forms in Latin lookup 10 subtable" i.loclTRK
Substitution2: "Single Substitution lookup 4 subtable" dotlessi
Substitution2: "Single Substitution lookup 3 subtable" dotlessi
Substitution2: "'aalt' Access All Alternates lookup 0 subtable" i.loclTRK
EndChar

StartChar: dotlessi
Encoding: 305 305 330
Width: 222
GlyphClass: 2
Flags: W
AnchorPoint: "Anchor-3" 97 0 basechar 0
AnchorPoint: "Anchor-2" 73 0 basechar 0
AnchorPoint: "Anchor-0" 151 484 basechar 0
LayerCount: 2
Fore
SplineSet
72 -6 m 256,0,1
 57 -6 57 -6 50.5 3 c 128,-1,2
 44 12 44 12 47 30 c 2,3,-1
 115 461 l 2,4,5
 118 477 118 477 126.5 484.5 c 128,-1,6
 135 492 135 492 150 492 c 0,7,8
 164 492 164 492 171 482.5 c 128,-1,9
 178 473 178 473 175 456 c 2,10,-1
 107 24 l 2,11,12
 105 9 105 9 96 1.5 c 128,-1,13
 87 -6 87 -6 72 -6 c 256,0,1
EndSplineSet
EndChar

StartChar: iogonek
Encoding: 303 303 343
Width: 222
GlyphClass: 1
Flags: W
LayerCount: 2
Fore
SplineSet
65 -191 m 0,0,1
 20 -191 20 -191 -4 -166 c 128,-1,2
 -28 -141 -28 -141 -28 -103 c 0,3,4
 -28 -61 -28 -61 -4 -28.5 c 128,-1,5
 20 4 20 4 58 25 c 1,6,-1
 51 3 l 1,7,8
 47 9 47 9 46.5 15.5 c 128,-1,9
 46 22 46 22 47 30 c 2,10,-1
 115 461 l 2,11,12
 118 477 118 477 126.5 484.5 c 128,-1,13
 135 492 135 492 150 492 c 0,14,15
 164 492 164 492 171 482.5 c 128,-1,16
 178 473 178 473 175 456 c 2,17,-1
 107 24 l 2,18,19
 105 14 105 14 100 7 c 128,-1,20
 95 0 95 0 86 -5 c 0,21,22
 54 -21 54 -21 37 -44.5 c 128,-1,23
 20 -68 20 -68 20 -95 c 0,24,25
 20 -119 20 -119 33.5 -133.5 c 128,-1,26
 47 -148 47 -148 74 -148 c 0,27,28
 83 -148 83 -148 92 -146.5 c 128,-1,29
 101 -145 101 -145 112 -142 c 0,30,31
 123 -138 123 -138 128.5 -142.5 c 128,-1,32
 134 -147 134 -147 135.5 -155 c 128,-1,33
 137 -163 137 -163 134.5 -170.5 c 128,-1,34
 132 -178 132 -178 124 -181 c 0,35,36
 111 -186 111 -186 94.5 -188.5 c 128,-1,37
 78 -191 78 -191 65 -191 c 0,0,1
171 610 m 0,38,39
 152 610 152 610 142 619.5 c 128,-1,40
 132 629 132 629 133 646 c 0,41,42
 134 669 134 669 147.5 681 c 128,-1,43
 161 693 161 693 184 693 c 0,44,45
 203 693 203 693 213 684 c 128,-1,46
 223 675 223 675 222 657 c 0,47,48
 221 635 221 635 207.5 622.5 c 128,-1,49
 194 610 194 610 171 610 c 0,38,39
EndSplineSet
EndChar

StartChar: j
Encoding: 106 106 345
Width: 225
GlyphClass: 1
Flags: W
LayerCount: 2
Fore
SplineSet
-92 -191 m 0,0,1
 -103 -191 -103 -191 -109.5 -186 c 128,-1,2
 -116 -181 -116 -181 -118.5 -173.5 c 128,-1,3
 -121 -166 -121 -166 -119 -158.5 c 128,-1,4
 -117 -151 -117 -151 -111 -146 c 128,-1,5
 -105 -141 -105 -141 -95 -140 c 0,6,7
 -38 -140 -38 -140 -3 -111 c 128,-1,8
 32 -82 32 -82 42 -19 c 2,9,-1
 118 461 l 2,10,11
 121 477 121 477 129.5 484.5 c 128,-1,12
 138 492 138 492 153 492 c 0,13,14
 167 492 167 492 174 482.5 c 128,-1,15
 181 473 181 473 178 456 c 2,16,-1
 103 -18 l 2,17,18
 94 -77 94 -77 69 -114.5 c 128,-1,19
 44 -152 44 -152 4 -171 c 128,-1,20
 -36 -190 -36 -190 -92 -191 c 0,0,1
171 610 m 0,21,22
 153 610 153 610 143 619.5 c 128,-1,23
 133 629 133 629 133 646 c 0,24,25
 134 669 134 669 147.5 681 c 128,-1,26
 161 693 161 693 184 693 c 0,27,28
 203 693 203 693 213 684 c 128,-1,29
 223 675 223 675 222 657 c 0,30,31
 221 635 221 635 207.5 622.5 c 128,-1,32
 194 610 194 610 171 610 c 0,21,22
EndSplineSet
Substitution2: "Single Substitution lookup 4 subtable" uni0237
Substitution2: "Single Substitution lookup 3 subtable" uni0237
EndChar

StartChar: uni0237
Encoding: 567 567 346
Width: 225
GlyphClass: 2
Flags: W
AnchorPoint: "Anchor-2" 75 0 basechar 0
AnchorPoint: "Anchor-0" 151 484 basechar 0
LayerCount: 2
Fore
SplineSet
-92 -191 m 0,0,1
 -103 -191 -103 -191 -109.5 -186 c 128,-1,2
 -116 -181 -116 -181 -118.5 -173.5 c 128,-1,3
 -121 -166 -121 -166 -119 -158.5 c 128,-1,4
 -117 -151 -117 -151 -111 -146 c 128,-1,5
 -105 -141 -105 -141 -95 -140 c 0,6,7
 -38 -140 -38 -140 -3 -111 c 128,-1,8
 32 -82 32 -82 42 -19 c 2,9,-1
 118 461 l 2,10,11
 121 477 121 477 129.5 484.5 c 128,-1,12
 138 492 138 492 153 492 c 0,13,14
 167 492 167 492 174 482.5 c 128,-1,15
 181 473 181 473 178 456 c 2,16,-1
 103 -18 l 2,17,18
 94 -77 94 -77 69 -114.5 c 128,-1,19
 44 -152 44 -152 4 -171 c 128,-1,20
 -36 -190 -36 -190 -92 -191 c 0,0,1
EndSplineSet
EndChar

StartChar: k
Encoding: 107 107 348
Width: 484
GlyphClass: 2
Flags: W
AnchorPoint: "Anchor-2" 209 0 basechar 0
AnchorPoint: "Anchor-0" 354 705 basechar 0
LayerCount: 2
Fore
SplineSet
72 -6 m 0,0,1
 57 -6 57 -6 50.5 3 c 128,-1,2
 44 12 44 12 47 29 c 2,3,-1
 150 682 l 2,4,5
 153 697 153 697 161.5 704 c 128,-1,6
 170 711 170 711 185 711 c 0,7,8
 199 711 199 711 206 702 c 128,-1,9
 213 693 213 693 210 675 c 2,10,-1
 145 265 l 1,11,-1
 147 265 l 1,12,-1
 407 475 l 2,13,14
 417 484 417 484 424.5 488 c 128,-1,15
 432 492 432 492 443 492 c 0,16,17
 455 492 455 492 461 484.5 c 128,-1,18
 467 477 467 477 465.5 466.5 c 128,-1,19
 464 456 464 456 453 446 c 2,20,-1
 182 225 l 1,21,-1
 187 268 l 1,22,-1
 413 39 l 2,23,24
 423 29 423 29 422.5 18.5 c 128,-1,25
 422 8 422 8 415.5 1 c 128,-1,26
 409 -6 409 -6 397 -6 c 256,27,28
 385 -6 385 -6 376.5 -1 c 128,-1,29
 368 4 368 4 357 17 c 2,30,-1
 142 234 l 1,31,-1
 140 234 l 1,32,-1
 107 23 l 2,33,34
 102 -6 102 -6 72 -6 c 0,0,1
EndSplineSet
EndChar

StartChar: kgreenlandic
Encoding: 312 312 351
Width: 484
GlyphClass: 2
Flags: W
AnchorPoint: "Anchor-2" 203 0 basechar 0
AnchorPoint: "Anchor-0" 280 484 basechar 0
LayerCount: 2
Fore
SplineSet
73 -6 m 0,0,1
 57 -6 57 -6 50.5 3 c 128,-1,2
 44 12 44 12 47 29 c 2,3,-1
 115 462 l 2,4,5
 118 477 118 477 126.5 484.5 c 128,-1,6
 135 492 135 492 150 492 c 256,7,8
 165 492 165 492 171.5 482.5 c 128,-1,9
 178 473 178 473 175 455 c 2,10,-1
 145 265 l 1,11,-1
 147 265 l 1,12,-1
 407 475 l 2,13,14
 415 482 415 482 423 487 c 128,-1,15
 431 492 431 492 441 492 c 0,16,17
 454 492 454 492 460.5 484.5 c 128,-1,18
 467 477 467 477 466 466.5 c 128,-1,19
 465 456 465 456 453 446 c 2,20,-1
 182 225 l 1,21,-1
 187 268 l 1,22,-1
 413 39 l 2,23,24
 422 30 422 30 422.5 19 c 128,-1,25
 423 8 423 8 416 1 c 128,-1,26
 409 -6 409 -6 395 -6 c 0,27,28
 385 -6 385 -6 376.5 -1 c 128,-1,29
 368 4 368 4 357 17 c 2,30,-1
 142 234 l 1,31,-1
 140 234 l 1,32,-1
 107 23 l 2,33,34
 105 9 105 9 96 1.5 c 128,-1,35
 87 -6 87 -6 73 -6 c 0,0,1
EndSplineSet
EndChar

StartChar: l
Encoding: 108 108 352
Width: 285
GlyphClass: 2
Flags: W
AnchorPoint: "Anchor-5" 135 357 basechar 0
AnchorPoint: "Anchor-2" 146 0 basechar 0
AnchorPoint: "Anchor-1" 262 705 basechar 0
AnchorPoint: "Anchor-0" 185 705 basechar 0
LayerCount: 2
Fore
SplineSet
182 -8 m 0,0,1
 115 -8 115 -8 84 32 c 128,-1,2
 53 72 53 72 66 151 c 2,3,-1
 150 681 l 2,4,5
 153 697 153 697 161.5 704 c 128,-1,6
 170 711 170 711 185 711 c 0,7,8
 199 711 199 711 206 702 c 128,-1,9
 213 693 213 693 210 675 c 2,10,-1
 127 151 l 2,11,12
 117 94 117 94 134.5 69.5 c 128,-1,13
 152 45 152 45 196 45 c 0,14,15
 211 45 211 45 219 47 c 128,-1,16
 227 49 227 49 232 49 c 0,17,18
 238 49 238 49 241.5 45 c 128,-1,19
 245 41 245 41 245 29 c 0,20,21
 245 15 245 15 237.5 6.5 c 128,-1,22
 230 -2 230 -2 217 -5 c 0,23,24
 210 -6 210 -6 199.5 -7 c 128,-1,25
 189 -8 189 -8 182 -8 c 0,0,1
EndSplineSet
Substitution2: "'ss02' Style Set 2 lookup 36 subtable" l.ss02
Substitution2: "'aalt' Access All Alternates lookup 0 subtable" l.ss02
EndChar

StartChar: m
Encoding: 109 109 361
Width: 847
GlyphClass: 2
Flags: W
AnchorPoint: "Anchor-2" 386 0 basechar 0
AnchorPoint: "Anchor-0" 462 484 basechar 0
LayerCount: 2
Fore
SplineSet
74 -6 m 0,0,1
 59 -6 59 -6 52.5 3 c 128,-1,2
 46 12 46 12 49 29 c 2,3,-1
 117 462 l 2,4,5
 120 477 120 477 128.5 484.5 c 128,-1,6
 137 492 137 492 152 492 c 0,7,8
 165 492 165 492 171.5 482 c 128,-1,9
 178 472 178 472 176 456 c 2,10,-1
 161 363 l 1,11,-1
 152 369 l 1,12,13
 178 429 178 429 223 461.5 c 128,-1,14
 268 494 268 494 327 494 c 256,15,16
 386 494 386 494 422.5 461.5 c 128,-1,17
 459 429 459 429 466 367 c 1,18,-1
 454 369 l 1,19,20
 477 427 477 427 524.5 460.5 c 128,-1,21
 572 494 572 494 637 494 c 0,22,23
 688 494 688 494 722.5 472 c 128,-1,24
 757 450 757 450 771 406 c 128,-1,25
 785 362 785 362 774 294 c 2,26,-1
 732 23 l 2,27,28
 730 9 730 9 721 1.5 c 128,-1,29
 712 -6 712 -6 697 -6 c 256,30,31
 682 -6 682 -6 675.5 3 c 128,-1,32
 669 12 669 12 671 29 c 2,33,-1
 713 299 l 2,34,35
 724 371 724 371 702.5 406 c 128,-1,36
 681 441 681 441 624 441 c 0,37,38
 558 441 558 441 514.5 394 c 128,-1,39
 471 347 471 347 458 264 c 2,40,-1
 420 23 l 2,41,42
 419 9 419 9 409.5 1.5 c 128,-1,43
 400 -6 400 -6 385 -6 c 256,44,45
 370 -6 370 -6 363.5 3 c 128,-1,46
 357 12 357 12 360 29 c 2,47,-1
 403 299 l 2,48,49
 414 371 414 371 392 406 c 128,-1,50
 370 441 370 441 314 441 c 0,51,52
 248 441 248 441 204.5 394 c 128,-1,53
 161 347 161 347 147 264 c 2,54,-1
 110 23 l 2,55,56
 105 -6 105 -6 74 -6 c 0,0,1
EndSplineSet
EndChar

StartChar: n
Encoding: 110 110 363
Width: 560
GlyphClass: 2
Flags: W
AnchorPoint: "Anchor-2" 247 0 basechar 0
AnchorPoint: "Anchor-0" 319 484 basechar 0
LayerCount: 2
Fore
SplineSet
73 -6 m 0,0,1
 58 -6 58 -6 51.5 4 c 128,-1,2
 45 14 45 14 48 31 c 2,3,-1
 116 461 l 2,4,5
 119 477 119 477 127.5 484.5 c 128,-1,6
 136 492 136 492 151 492 c 0,7,8
 164 492 164 492 170.5 483 c 128,-1,9
 177 474 177 474 174 457 c 2,10,-1
 160 364 l 1,11,-1
 150 370 l 1,12,13
 175 428 175 428 224.5 461 c 128,-1,14
 274 494 274 494 343 494 c 0,15,16
 397 494 397 494 433.5 472 c 128,-1,17
 470 450 470 450 485.5 406 c 128,-1,18
 501 362 501 362 490 295 c 2,19,-1
 447 23 l 2,20,21
 445 9 445 9 436 1.5 c 128,-1,22
 427 -6 427 -6 412 -6 c 256,23,24
 397 -6 397 -6 390.5 3.5 c 128,-1,25
 384 13 384 13 387 30 c 2,26,-1
 429 295 l 2,27,28
 441 369 441 369 416 405 c 128,-1,29
 391 441 391 441 331 441 c 0,30,31
 251 441 251 441 204.5 393 c 128,-1,32
 158 345 158 345 145 264 c 2,33,-1
 108 24 l 2,34,35
 103 -6 103 -6 73 -6 c 0,0,1
EndSplineSet
EndChar

StartChar: eng
Encoding: 331 331 373
Width: 560
GlyphClass: 1
Flags: W
LayerCount: 2
Fore
SplineSet
245 -191 m 0,0,1
 234 -191 234 -191 227 -186 c 128,-1,2
 220 -181 220 -181 218 -174 c 128,-1,3
 216 -167 216 -167 218 -159.5 c 128,-1,4
 220 -152 220 -152 226 -146.5 c 128,-1,5
 232 -141 232 -141 242 -140 c 0,6,7
 298 -139 298 -139 333.5 -110.5 c 128,-1,8
 369 -82 369 -82 379 -19 c 2,9,-1
 429 295 l 2,10,11
 441 369 441 369 416 405 c 128,-1,12
 391 441 391 441 331 441 c 0,13,14
 251 441 251 441 204.5 393 c 128,-1,15
 158 345 158 345 145 264 c 2,16,-1
 108 24 l 2,17,18
 103 -6 103 -6 73 -6 c 0,19,20
 58 -6 58 -6 51.5 3.5 c 128,-1,21
 45 13 45 13 48 30 c 2,22,-1
 116 461 l 2,23,24
 119 477 119 477 127.5 484.5 c 128,-1,25
 136 492 136 492 151 492 c 0,26,27
 164 492 164 492 170.5 483 c 128,-1,28
 177 474 177 474 174 457 c 2,29,-1
 160 364 l 1,30,-1
 150 370 l 1,31,32
 175 428 175 428 224.5 461 c 128,-1,33
 274 494 274 494 343 494 c 0,34,35
 397 494 397 494 434 472 c 128,-1,36
 471 450 471 450 486 406 c 128,-1,37
 501 362 501 362 490 295 c 2,38,-1
 440 -18 l 2,39,40
 430 -77 430 -77 405 -114.5 c 128,-1,41
 380 -152 380 -152 340 -171 c 128,-1,42
 300 -190 300 -190 245 -191 c 0,0,1
EndSplineSet
EndChar

StartChar: o
Encoding: 111 111 374
Width: 547
GlyphClass: 2
Flags: W
AnchorPoint: "Anchor-5" 274 243 basechar 0
AnchorPoint: "Anchor-3" 306 0 basechar 0
AnchorPoint: "Anchor-2" 246 0 basechar 0
AnchorPoint: "Anchor-1" 361 484 basechar 0
AnchorPoint: "Anchor-0" 314 484 basechar 0
LayerCount: 2
Fore
SplineSet
250 -8 m 0,0,1
 188 -8 188 -8 142.5 17 c 128,-1,2
 97 42 97 42 72.5 89.5 c 128,-1,3
 48 137 48 137 48 203 c 0,4,5
 48 262 48 262 64.5 315 c 128,-1,6
 81 368 81 368 113.5 408 c 128,-1,7
 146 448 146 448 192 471 c 128,-1,8
 238 494 238 494 297 494 c 0,9,10
 359 494 359 494 404.5 468.5 c 128,-1,11
 450 443 450 443 474.5 395.5 c 128,-1,12
 499 348 499 348 499 283 c 0,13,14
 499 223 499 223 482 170.5 c 128,-1,15
 465 118 465 118 432.5 77.5 c 128,-1,16
 400 37 400 37 354.5 14.5 c 128,-1,17
 309 -8 309 -8 250 -8 c 0,0,1
252 43 m 0,18,19
 312 43 312 43 353 76 c 128,-1,20
 394 109 394 109 415.5 164 c 128,-1,21
 437 219 437 219 437 285 c 0,22,23
 437 363 437 363 399 402.5 c 128,-1,24
 361 442 361 442 294 442 c 0,25,26
 235 442 235 442 193.5 409 c 128,-1,27
 152 376 152 376 131 321.5 c 128,-1,28
 110 267 110 267 110 200 c 0,29,30
 110 123 110 123 147.5 83 c 128,-1,31
 185 43 185 43 252 43 c 0,18,19
EndSplineSet
Substitution2: "Single Substitution lookup 29 subtable" ordmasculine
Substitution2: "'aalt' Access All Alternates lookup 0 subtable" ordmasculine
EndChar

StartChar: oslash
Encoding: 248 248 402
Width: 547
GlyphClass: 2
Flags: W
AnchorPoint: "Anchor-5" 274 243 basechar 0
AnchorPoint: "Anchor-0" 314 484 basechar 0
LayerCount: 2
Fore
SplineSet
250 -8 m 0,0,1
 188 -8 188 -8 142.5 17.5 c 128,-1,2
 97 43 97 43 72.5 90 c 128,-1,3
 48 137 48 137 48 203 c 0,4,5
 48 263 48 263 65 315.5 c 128,-1,6
 82 368 82 368 114.5 408 c 128,-1,7
 147 448 147 448 192.5 471 c 128,-1,8
 238 494 238 494 297 494 c 0,9,10
 360 494 360 494 405 468.5 c 128,-1,11
 450 443 450 443 474.5 395.5 c 128,-1,12
 499 348 499 348 499 283 c 0,13,14
 499 223 499 223 482.5 170.5 c 128,-1,15
 466 118 466 118 433.5 77.5 c 128,-1,16
 401 37 401 37 355 14.5 c 128,-1,17
 309 -8 309 -8 250 -8 c 0,0,1
253 42 m 0,18,19
 313 42 313 42 355 75 c 128,-1,20
 397 108 397 108 418.5 163.5 c 128,-1,21
 440 219 440 219 440 286 c 0,22,23
 440 364 440 364 401.5 403.5 c 128,-1,24
 363 443 363 443 294 443 c 0,25,26
 234 443 234 443 192 410.5 c 128,-1,27
 150 378 150 378 128.5 323 c 128,-1,28
 107 268 107 268 107 200 c 0,29,30
 107 122 107 122 145.5 82 c 128,-1,31
 184 42 184 42 253 42 c 0,18,19
109 -21 m 2,32,33
 102 -31 102 -31 93.5 -31.5 c 128,-1,34
 85 -32 85 -32 77.5 -27 c 128,-1,35
 70 -22 70 -22 68.5 -13 c 128,-1,36
 67 -4 67 -4 74 6 c 2,37,-1
 440 506 l 2,38,39
 447 516 447 516 455.5 516.5 c 128,-1,40
 464 517 464 517 471 512 c 128,-1,41
 478 507 478 507 479.5 498 c 128,-1,42
 481 489 481 489 474 479 c 2,43,-1
 109 -21 l 2,32,33
EndSplineSet
EndChar

StartChar: oe
Encoding: 339 339 408
Width: 908
GlyphClass: 2
Flags: W
AnchorPoint: "Anchor-2" 427 0 basechar 0
AnchorPoint: "Anchor-0" 504 484 basechar 0
LayerCount: 2
Fore
SplineSet
250 -8 m 0,0,1
 188 -8 188 -8 142.5 17.5 c 128,-1,2
 97 43 97 43 72.5 90 c 128,-1,3
 48 137 48 137 48 203 c 0,4,5
 48 263 48 263 64.5 315.5 c 128,-1,6
 81 368 81 368 113.5 408 c 128,-1,7
 146 448 146 448 192 471 c 128,-1,8
 238 494 238 494 297 494 c 0,9,10
 375 494 375 494 424 452 c 128,-1,11
 473 410 473 410 486 335 c 1,12,-1
 462 335 l 1,13,14
 490 404 490 404 546.5 449 c 128,-1,15
 603 494 603 494 685 494 c 0,16,17
 758 494 758 494 801 460 c 128,-1,18
 844 426 844 426 859.5 371.5 c 128,-1,19
 875 317 875 317 866 257 c 0,20,21
 863 241 863 241 857.5 235.5 c 128,-1,22
 852 230 852 230 838 230 c 2,23,-1
 478 230 l 1,24,-1
 485 275 l 1,25,-1
 831 275 l 1,26,-1
 813 262 l 1,27,28
 820 313 820 313 810 354 c 128,-1,29
 800 395 800 395 769 420 c 128,-1,30
 738 445 738 445 684 445 c 0,31,32
 626 445 626 445 588 418.5 c 128,-1,33
 550 392 550 392 529 351 c 128,-1,34
 508 310 508 310 501 267 c 2,35,-1
 497 246 l 2,36,37
 482 155 482 155 522.5 99.5 c 128,-1,38
 563 44 563 44 649 44 c 0,39,40
 687 44 687 44 720.5 53 c 128,-1,41
 754 62 754 62 787 85 c 0,42,43
 798 93 798 93 807 93 c 128,-1,44
 816 93 816 93 821.5 88 c 128,-1,45
 827 83 827 83 828.5 75.5 c 128,-1,46
 830 68 830 68 826.5 59 c 128,-1,47
 823 50 823 50 813 43 c 0,48,49
 780 18 780 18 735 5 c 128,-1,50
 690 -8 690 -8 648 -8 c 0,51,52
 565 -8 565 -8 511.5 33 c 128,-1,53
 458 74 458 74 443 147 c 1,54,-1
 468 147 l 1,55,56
 441 79 441 79 386 35.5 c 128,-1,57
 331 -8 331 -8 250 -8 c 0,0,1
252 44 m 0,58,59
 312 44 312 44 353 76.5 c 128,-1,60
 394 109 394 109 415.5 164 c 128,-1,61
 437 219 437 219 437 285 c 0,62,63
 437 363 437 363 399 402.5 c 128,-1,64
 361 442 361 442 294 442 c 0,65,66
 235 442 235 442 193.5 409 c 128,-1,67
 152 376 152 376 131 321.5 c 128,-1,68
 110 267 110 267 110 200 c 0,69,70
 110 123 110 123 147.5 83.5 c 128,-1,71
 185 44 185 44 252 44 c 0,58,59
EndSplineSet
EndChar

StartChar: p
Encoding: 112 112 409
Width: 575
GlyphClass: 2
Flags: W
AnchorPoint: "Anchor-2" 248 0 basechar 0
AnchorPoint: "Anchor-0" 324 484 basechar 0
LayerCount: 2
Fore
SplineSet
43 -186 m 0,0,1
 29 -186 29 -186 22 -177 c 128,-1,2
 15 -168 15 -168 18 -151 c 2,3,-1
 115 461 l 2,4,5
 118 477 118 477 126.5 484.5 c 128,-1,6
 135 492 135 492 150 492 c 0,7,8
 164 492 164 492 170.5 482.5 c 128,-1,9
 177 473 177 473 174 456 c 2,10,-1
 161 370 l 1,11,-1
 152 377 l 1,12,13
 178 432 178 432 226 463 c 128,-1,14
 274 494 274 494 339 494 c 0,15,16
 396 494 396 494 438.5 468.5 c 128,-1,17
 481 443 481 443 504.5 397 c 128,-1,18
 528 351 528 351 528 286 c 0,19,20
 528 207 528 207 500 140 c 128,-1,21
 472 73 472 73 417.5 32.5 c 128,-1,22
 363 -8 363 -8 285 -8 c 0,23,24
 225 -8 225 -8 178 22 c 128,-1,25
 131 52 131 52 114 116 c 1,26,-1
 122 116 l 1,27,-1
 78 -157 l 2,28,29
 76 -172 76 -172 67.5 -179 c 128,-1,30
 59 -186 59 -186 43 -186 c 0,0,1
281 43 m 0,31,32
 341 43 341 43 382 76 c 128,-1,33
 423 109 423 109 444.5 164 c 128,-1,34
 466 219 466 219 466 285 c 0,35,36
 466 363 466 363 428 402.5 c 128,-1,37
 390 442 390 442 323 442 c 0,38,39
 264 442 264 442 222.5 409 c 128,-1,40
 181 376 181 376 160 321.5 c 128,-1,41
 139 267 139 267 139 200 c 0,42,43
 139 123 139 123 176.5 83 c 128,-1,44
 214 43 214 43 281 43 c 0,31,32
EndSplineSet
EndChar

StartChar: thorn
Encoding: 254 254 410
Width: 575
GlyphClass: 2
Flags: W
AnchorPoint: "Anchor-2" 247 0 basechar 0
AnchorPoint: "Anchor-0" 324 484 basechar 0
LayerCount: 2
Fore
SplineSet
43 -186 m 0,0,1
 29 -186 29 -186 22 -177 c 128,-1,2
 15 -168 15 -168 18 -151 c 2,3,-1
 150 681 l 2,4,5
 153 696 153 696 161.5 703.5 c 128,-1,6
 170 711 170 711 185 711 c 0,7,8
 199 711 199 711 206 702 c 128,-1,9
 213 693 213 693 210 676 c 2,10,-1
 161 370 l 1,11,-1
 152 377 l 1,12,13
 178 432 178 432 226 463 c 128,-1,14
 274 494 274 494 339 494 c 0,15,16
 396 494 396 494 438.5 468.5 c 128,-1,17
 481 443 481 443 504.5 397 c 128,-1,18
 528 351 528 351 528 286 c 0,19,20
 528 207 528 207 500 140 c 128,-1,21
 472 73 472 73 417.5 32.5 c 128,-1,22
 363 -8 363 -8 285 -8 c 0,23,24
 225 -8 225 -8 178 22 c 128,-1,25
 131 52 131 52 114 116 c 1,26,-1
 122 116 l 1,27,-1
 78 -157 l 2,28,29
 76 -172 76 -172 67.5 -179 c 128,-1,30
 59 -186 59 -186 43 -186 c 0,0,1
281 43 m 0,31,32
 341 43 341 43 382 76 c 128,-1,33
 423 109 423 109 444.5 164 c 128,-1,34
 466 219 466 219 466 285 c 0,35,36
 466 363 466 363 428 402.5 c 128,-1,37
 390 442 390 442 323 442 c 0,38,39
 264 442 264 442 222.5 409 c 128,-1,40
 181 376 181 376 160 321.5 c 128,-1,41
 139 267 139 267 139 200 c 0,42,43
 139 123 139 123 176.5 83 c 128,-1,44
 214 43 214 43 281 43 c 0,31,32
EndSplineSet
EndChar

StartChar: q
Encoding: 113 113 411
Width: 575
GlyphClass: 2
Flags: W
AnchorPoint: "Anchor-2" 248 0 basechar 0
AnchorPoint: "Anchor-0" 325 484 basechar 0
LayerCount: 2
Fore
SplineSet
396 -186 m 0,0,1
 382 -186 382 -186 376 -177 c 128,-1,2
 370 -168 370 -168 372 -151 c 2,3,-1
 412 108 l 1,4,-1
 424 108 l 1,5,6
 398 55 398 55 350 23.5 c 128,-1,7
 302 -8 302 -8 236 -8 c 0,8,9
 180 -8 180 -8 137.5 17 c 128,-1,10
 95 42 95 42 71.5 88.5 c 128,-1,11
 48 135 48 135 48 199 c 0,12,13
 48 278 48 278 75.5 345 c 128,-1,14
 103 412 103 412 157.5 453 c 128,-1,15
 212 494 212 494 291 494 c 0,16,17
 351 494 351 494 397.5 463.5 c 128,-1,18
 444 433 444 433 461 369 c 1,19,-1
 454 363 l 1,20,-1
 469 461 l 2,21,22
 472 477 472 477 480.5 484.5 c 128,-1,23
 489 492 489 492 504 492 c 0,24,25
 518 492 518 492 524.5 482.5 c 128,-1,26
 531 473 531 473 529 456 c 2,27,-1
 432 -156 l 2,28,29
 430 -171 430 -171 421 -178.5 c 128,-1,30
 412 -186 412 -186 396 -186 c 0,0,1
252 43 m 0,31,32
 312 43 312 43 353 76 c 128,-1,33
 394 109 394 109 415.5 164 c 128,-1,34
 437 219 437 219 437 285 c 0,35,36
 437 363 437 363 399 402.5 c 128,-1,37
 361 442 361 442 294 442 c 0,38,39
 235 442 235 442 193.5 409 c 128,-1,40
 152 376 152 376 131 321.5 c 128,-1,41
 110 267 110 267 110 200 c 0,42,43
 110 123 110 123 147.5 83 c 128,-1,44
 185 43 185 43 252 43 c 0,31,32
EndSplineSet
EndChar

StartChar: r
Encoding: 114 114 412
Width: 342
GlyphClass: 2
Flags: W
AnchorPoint: "Anchor-2" 74 0 basechar 0
AnchorPoint: "Anchor-0" 245 487 basechar 0
LayerCount: 2
Fore
SplineSet
73 -6 m 256,0,1
 58 -6 58 -6 51.5 3 c 128,-1,2
 45 12 45 12 48 29 c 2,3,-1
 116 462 l 2,4,5
 119 477 119 477 127.5 484.5 c 128,-1,6
 136 492 136 492 150 492 c 256,7,8
 164 492 164 492 171 482.5 c 128,-1,9
 178 473 178 473 175 456 c 2,10,-1
 162 370 l 1,11,-1
 151 370 l 1,12,13
 172 430 172 430 223 462 c 128,-1,14
 274 494 274 494 335 495 c 0,15,16
 355 496 355 496 362 491 c 128,-1,17
 369 486 369 486 369 473 c 0,18,19
 369 457 369 457 361.5 450 c 128,-1,20
 354 443 354 443 336 441 c 2,21,-1
 320 440 l 2,22,23
 235 433 235 433 197 389 c 128,-1,24
 159 345 159 345 148 274 c 2,25,-1
 108 23 l 2,26,27
 106 9 106 9 97 1.5 c 128,-1,28
 88 -6 88 -6 73 -6 c 256,0,1
EndSplineSet
EndChar

StartChar: s
Encoding: 115 115 420
Width: 478
GlyphClass: 2
Flags: W
AnchorPoint: "Anchor-2" 210 0 basechar 0
AnchorPoint: "Anchor-0" 270 484 basechar 0
LayerCount: 2
Fore
SplineSet
221 -8 m 0,0,1
 173 -8 173 -8 130 4 c 128,-1,2
 87 16 87 16 56 37 c 0,3,4
 46 42 46 42 43 51 c 128,-1,5
 40 60 40 60 41.5 68 c 128,-1,6
 43 76 43 76 49 81.5 c 128,-1,7
 55 87 55 87 63.5 87 c 128,-1,8
 72 87 72 87 83 81 c 0,9,10
 114 60 114 60 149.5 51 c 128,-1,11
 185 42 185 42 224 42 c 0,12,13
 281 42 281 42 314 65 c 128,-1,14
 347 88 347 88 347 131 c 0,15,16
 347 159 347 159 328.5 177.5 c 128,-1,17
 310 196 310 196 277 204 c 2,18,-1
 181 228 l 2,19,20
 134 240 134 240 106.5 271.5 c 128,-1,21
 79 303 79 303 79 347 c 0,22,23
 79 390 79 390 102.5 423 c 128,-1,24
 126 456 126 456 169 475 c 128,-1,25
 212 494 212 494 268 494 c 0,26,27
 311 494 311 494 351 481 c 128,-1,28
 391 468 391 468 417 446 c 0,29,30
 427 438 427 438 430.5 429.5 c 128,-1,31
 434 421 434 421 432 413 c 128,-1,32
 430 405 430 405 424 400.5 c 128,-1,33
 418 396 418 396 409.5 396 c 128,-1,34
 401 396 401 396 391 404 c 0,35,36
 366 424 366 424 334 433.5 c 128,-1,37
 302 443 302 443 266 443 c 0,38,39
 208 443 208 443 173 418 c 128,-1,40
 138 393 138 393 138 349 c 0,41,42
 138 323 138 323 154.5 304 c 128,-1,43
 171 285 171 285 204 276 c 2,44,-1
 300 251 l 2,45,46
 350 238 350 238 378.5 209.5 c 128,-1,47
 407 181 407 181 407 136 c 0,48,49
 407 69 407 69 356 30.5 c 128,-1,50
 305 -8 305 -8 221 -8 c 0,0,1
EndSplineSet
EndChar

StartChar: germandbls
Encoding: 223 223 431
Width: 597
GlyphClass: 1
Flags: W
LayerCount: 2
Fore
SplineSet
364 -8 m 0,0,1
 316 -8 316 -8 271 5 c 128,-1,2
 226 18 226 18 197 40 c 0,3,4
 188 47 188 47 185 55.5 c 128,-1,5
 182 64 182 64 184 72 c 128,-1,6
 186 80 186 80 192 85 c 128,-1,7
 198 90 198 90 206.5 90.5 c 128,-1,8
 215 91 215 91 225 84 c 0,9,10
 253 65 253 65 287.5 54 c 128,-1,11
 322 43 322 43 360 43 c 0,12,13
 421 43 421 43 453.5 65.5 c 128,-1,14
 486 88 486 88 486 131 c 0,15,16
 486 159 486 159 466 182 c 128,-1,17
 446 205 446 205 388 225 c 0,18,19
 319 248 319 248 292 276.5 c 128,-1,20
 265 305 265 305 265 348 c 0,21,22
 265 374 265 374 274 394 c 128,-1,23
 283 414 283 414 305.5 435.5 c 128,-1,24
 328 457 328 457 366 485 c 0,25,26
 401 511 401 511 420.5 534 c 128,-1,27
 440 557 440 557 440 592 c 0,28,29
 440 622 440 622 419 642.5 c 128,-1,30
 398 663 398 663 356 663 c 0,31,32
 282 663 282 663 238.5 619.5 c 128,-1,33
 195 576 195 576 182 496 c 2,34,-1
 107 23 l 2,35,36
 105 9 105 9 96.5 1.5 c 128,-1,37
 88 -6 88 -6 73 -6 c 256,38,39
 58 -6 58 -6 51 3 c 128,-1,40
 44 12 44 12 47 29 c 2,41,-1
 120 492 l 2,42,43
 137 599 137 599 196 656 c 128,-1,44
 255 713 255 713 358 713 c 0,45,46
 402 713 402 713 434 697.5 c 128,-1,47
 466 682 466 682 483 656 c 128,-1,48
 500 630 500 630 500 598 c 0,49,50
 500 548 500 548 473.5 516 c 128,-1,51
 447 484 447 484 404 451 c 0,52,53
 379 433 379 433 362 418 c 128,-1,54
 345 403 345 403 335 387.5 c 128,-1,55
 325 372 325 372 325 351 c 0,56,57
 325 327 325 327 346 307.5 c 128,-1,58
 367 288 367 288 419 271 c 0,59,60
 480 249 480 249 513 219 c 128,-1,61
 546 189 546 189 546 137 c 0,62,63
 546 91 546 91 523 59 c 128,-1,64
 500 27 500 27 459 9.5 c 128,-1,65
 418 -8 418 -8 364 -8 c 0,0,1
EndSplineSet
Substitution2: "Single Substitution lookup 39 subtable" germandbls.calt
Substitution2: "Single Substitution lookup 38 subtable" germandbls.calt
Substitution2: "'aalt' Access All Alternates lookup 0 subtable" germandbls.calt
EndChar

StartChar: t
Encoding: 116 116 432
Width: 335
GlyphClass: 2
Flags: W
AnchorPoint: "Anchor-5" 161 269 basechar 0
AnchorPoint: "Anchor-2" 178 0 basechar 0
AnchorPoint: "Anchor-1" 311 705 basechar 0
AnchorPoint: "Anchor-0" 194 635 basechar 0
LayerCount: 2
Fore
SplineSet
229 -8 m 0,0,1
 176 -8 176 -8 141.5 12.5 c 128,-1,2
 107 33 107 33 93.5 70.5 c 128,-1,3
 80 108 80 108 88 160 c 2,4,-1
 132 436 l 1,5,-1
 62 436 l 2,6,7
 49 436 49 436 41 441.5 c 128,-1,8
 33 447 33 447 33 457 c 0,9,10
 33 471 33 471 42.5 478 c 128,-1,11
 52 485 52 485 66 485 c 2,12,-1
 139 485 l 1,13,-1
 160 612 l 2,14,15
 162 627 162 627 171 634 c 128,-1,16
 180 641 180 641 194 641 c 0,17,18
 209 641 209 641 215.5 632 c 128,-1,19
 222 623 222 623 220 606 c 2,20,-1
 200 485 l 1,21,-1
 331 485 l 2,22,23
 345 485 345 485 352.5 480 c 128,-1,24
 360 475 360 475 360 465 c 0,25,26
 360 451 360 451 351.5 443.5 c 128,-1,27
 343 436 343 436 328 436 c 2,28,-1
 192 436 l 1,29,-1
 150 168 l 2,30,31
 140 103 140 103 163 74 c 128,-1,32
 186 45 186 45 237 45 c 0,33,34
 259 45 259 45 271.5 49.5 c 128,-1,35
 284 54 284 54 292 54 c 256,36,37
 300 54 300 54 304 49.5 c 128,-1,38
 308 45 308 45 308 34 c 0,39,40
 308 19 308 19 303.5 12 c 128,-1,41
 299 5 299 5 289 1 c 0,42,43
 278 -3 278 -3 260.5 -5.5 c 128,-1,44
 243 -8 243 -8 229 -8 c 0,0,1
EndSplineSet
EndChar

StartChar: u
Encoding: 117 117 440
Width: 553
GlyphClass: 2
Flags: W
AnchorPoint: "Anchor-3" 426 0 basechar 0
AnchorPoint: "Anchor-2" 239 0 basechar 0
AnchorPoint: "Anchor-1" 459 484 basechar 0
AnchorPoint: "Anchor-0" 311 485 basechar 0
LayerCount: 2
Fore
SplineSet
215 -8 m 0,0,1
 163 -8 163 -8 126.5 13.5 c 128,-1,2
 90 35 90 35 75 79 c 128,-1,3
 60 123 60 123 70 191 c 2,4,-1
 113 462 l 2,5,6
 116 477 116 477 124.5 484.5 c 128,-1,7
 133 492 133 492 147 492 c 0,8,9
 162 492 162 492 169.5 483 c 128,-1,10
 177 474 177 474 174 457 c 2,11,-1
 132 190 l 2,12,13
 120 117 120 117 144 80.5 c 128,-1,14
 168 44 168 44 227 44 c 0,15,16
 304 44 304 44 350 92.5 c 128,-1,17
 396 141 396 141 408 222 c 2,18,-1
 445 462 l 2,19,20
 448 477 448 477 456.5 484.5 c 128,-1,21
 465 492 465 492 480 492 c 256,22,23
 495 492 495 492 502 483.5 c 128,-1,24
 509 475 509 475 506 459 c 2,25,-1
 437 23 l 2,26,27
 433 -6 433 -6 404 -6 c 0,28,29
 389 -6 389 -6 382.5 2.5 c 128,-1,30
 376 11 376 11 378 28 c 2,31,-1
 393 122 l 1,32,-1
 403 116 l 1,33,34
 379 57 379 57 330 24.5 c 128,-1,35
 281 -8 281 -8 215 -8 c 0,0,1
EndSplineSet
EndChar

StartChar: uhorn
Encoding: 432 432 450
Width: 553
GlyphClass: 2
Flags: W
AnchorPoint: "Anchor-2" 239 0 basechar 0
AnchorPoint: "Anchor-0" 311 485 basechar 0
LayerCount: 2
Fore
SplineSet
215 -8 m 0,0,1
 163 -8 163 -8 126.5 13.5 c 128,-1,2
 90 35 90 35 75 79 c 128,-1,3
 60 123 60 123 70 191 c 2,4,-1
 113 462 l 2,5,6
 116 477 116 477 124.5 484.5 c 128,-1,7
 133 492 133 492 147 492 c 0,8,9
 162 492 162 492 169.5 482.5 c 128,-1,10
 177 473 177 473 174 457 c 2,11,-1
 132 190 l 2,12,13
 120 117 120 117 144 80.5 c 128,-1,14
 168 44 168 44 227 44 c 0,15,16
 304 44 304 44 350 92.5 c 128,-1,17
 396 141 396 141 408 222 c 2,18,-1
 444 457 l 2,19,20
 447 472 447 472 455.5 479.5 c 128,-1,21
 464 487 464 487 478 488 c 0,22,23
 518 490 518 490 540 503.5 c 128,-1,24
 562 517 562 517 573.5 541.5 c 128,-1,25
 585 566 585 566 591 599 c 0,26,27
 596 622 596 622 621 622 c 0,28,29
 634 622 634 622 641.5 616 c 128,-1,30
 649 610 649 610 647 596 c 0,31,32
 639 533 639 533 604.5 492.5 c 128,-1,33
 570 452 570 452 503 443 c 1,34,-1
 437 23 l 2,35,36
 433 -6 433 -6 404 -6 c 0,37,38
 389 -6 389 -6 382.5 2.5 c 128,-1,39
 376 11 376 11 378 28 c 2,40,-1
 393 122 l 1,41,-1
 403 116 l 1,42,43
 379 57 379 57 330 24.5 c 128,-1,44
 281 -8 281 -8 215 -8 c 0,0,1
EndSplineSet
EndChar

StartChar: uogonek
Encoding: 371 371 460
Width: 553
GlyphClass: 1
Flags: W
LayerCount: 2
Fore
SplineSet
393 122 m 1,0,-1
 403 116 l 1,1,2
 379 57 379 57 330 24.5 c 128,-1,3
 281 -8 281 -8 215 -8 c 0,4,5
 163 -8 163 -8 126.5 13.5 c 128,-1,6
 90 35 90 35 75 79 c 128,-1,7
 60 123 60 123 70 191 c 2,8,-1
 113 462 l 2,9,10
 116 477 116 477 124.5 484.5 c 128,-1,11
 133 492 133 492 147 492 c 0,12,13
 162 492 162 492 169.5 482.5 c 128,-1,14
 177 473 177 473 174 457 c 2,15,-1
 132 190 l 2,16,17
 120 117 120 117 144 80.5 c 128,-1,18
 168 44 168 44 227 44 c 0,19,20
 304 44 304 44 350 92.5 c 128,-1,21
 396 141 396 141 408 222 c 2,22,-1
 445 462 l 2,23,24
 448 477 448 477 456.5 484.5 c 128,-1,25
 465 492 465 492 480 492 c 256,26,27
 495 492 495 492 501.5 482.5 c 128,-1,28
 508 473 508 473 505 456 c 2,29,-1
 437 23 l 2,30,31
 435 11 435 11 429.5 4.5 c 128,-1,32
 424 -2 424 -2 414 -6 c 0,33,34
 382 -21 382 -21 365.5 -44 c 128,-1,35
 349 -67 349 -67 349 -95 c 0,36,37
 349 -119 349 -119 362.5 -133.5 c 128,-1,38
 376 -148 376 -148 403 -148 c 0,39,40
 412 -148 412 -148 421 -146.5 c 128,-1,41
 430 -145 430 -145 441 -142 c 0,42,43
 452 -138 452 -138 457.5 -142.5 c 128,-1,44
 463 -147 463 -147 464.5 -155 c 128,-1,45
 466 -163 466 -163 463.5 -170.5 c 128,-1,46
 461 -178 461 -178 453 -181 c 0,47,48
 440 -186 440 -186 423.5 -188.5 c 128,-1,49
 407 -191 407 -191 394 -191 c 0,50,51
 349 -191 349 -191 325 -166 c 128,-1,52
 301 -141 301 -141 301 -103 c 0,53,54
 301 -60 301 -60 325.5 -27.5 c 128,-1,55
 350 5 350 5 390 27 c 1,56,-1
 380 8 l 1,57,58
 378 13 378 13 377.5 17.5 c 128,-1,59
 377 22 377 22 378 28 c 2,60,-1
 393 122 l 1,0,-1
EndSplineSet
EndChar

StartChar: v
Encoding: 118 118 464
Width: 509
GlyphClass: 2
Flags: W
AnchorPoint: "Anchor-2" 216 0 basechar 0
AnchorPoint: "Anchor-0" 293 484 basechar 0
LayerCount: 2
Fore
SplineSet
217 -6 m 0,0,1
 201 -6 201 -6 192 2 c 128,-1,2
 183 10 183 10 178 27 c 2,3,-1
 65 446 l 2,4,5
 62 460 62 460 64 470 c 128,-1,6
 66 480 66 480 74 486 c 128,-1,7
 82 492 82 492 94 492 c 0,8,9
 107 492 107 492 113.5 485.5 c 128,-1,10
 120 479 120 479 124 463 c 2,11,-1
 232 37 l 1,12,-1
 206 37 l 1,13,-1
 455 469 l 2,14,15
 462 481 462 481 469 486.5 c 128,-1,16
 476 492 476 492 488 492 c 256,17,18
 500 492 500 492 507.5 485.5 c 128,-1,19
 515 479 515 479 515.5 469.5 c 128,-1,20
 516 460 516 460 509 447 c 2,21,-1
 259 20 l 2,22,23
 251 7 251 7 241.5 0.5 c 128,-1,24
 232 -6 232 -6 217 -6 c 0,0,1
EndSplineSet
EndChar

StartChar: w
Encoding: 119 119 465
Width: 835
GlyphClass: 2
Flags: W
AnchorPoint: "Anchor-2" 379 0 basechar 0
AnchorPoint: "Anchor-0" 452 484 basechar 0
LayerCount: 2
Fore
SplineSet
200 -6 m 0,0,1
 187 -6 187 -6 176.5 2 c 128,-1,2
 166 10 166 10 163 27 c 2,3,-1
 79 444 l 2,4,5
 77 459 77 459 79 469.5 c 128,-1,6
 81 480 81 480 88.5 486 c 128,-1,7
 96 492 96 492 107 492 c 0,8,9
 121 492 121 492 127 484.5 c 128,-1,10
 133 477 133 477 136 462 c 2,11,-1
 216 35 l 1,12,-1
 190 35 l 1,13,-1
 414 467 l 2,14,15
 421 480 421 480 430.5 486 c 128,-1,16
 440 492 440 492 453 492 c 256,17,18
 466 492 466 492 475.5 484.5 c 128,-1,19
 485 477 485 477 488 461 c 2,20,-1
 570 35 l 1,21,-1
 546 35 l 1,22,-1
 768 469 l 2,23,24
 775 481 775 481 782 486.5 c 128,-1,25
 789 492 789 492 801 492 c 0,26,27
 814 492 814 492 820.5 486 c 128,-1,28
 827 480 827 480 827.5 470.5 c 128,-1,29
 828 461 828 461 822 450 c 2,30,-1
 599 20 l 2,31,32
 592 7 592 7 582 0.5 c 128,-1,33
 572 -6 572 -6 558 -6 c 0,34,35
 545 -6 545 -6 534.5 2 c 128,-1,36
 524 10 524 10 520 27 c 2,37,-1
 438 437 l 1,38,-1
 460 437 l 1,39,-1
 242 21 l 2,40,41
 236 8 236 8 225.5 1 c 128,-1,42
 215 -6 215 -6 200 -6 c 0,0,1
EndSplineSet
EndChar

StartChar: x
Encoding: 120 120 470
Width: 515
GlyphClass: 2
Flags: W
AnchorPoint: "Anchor-2" 219 0 basechar 0
AnchorPoint: "Anchor-0" 296 484 basechar 0
LayerCount: 2
Fore
SplineSet
35 -6 m 0,0,1
 22 -6 22 -6 15 0 c 128,-1,2
 8 6 8 6 8.5 16 c 128,-1,3
 9 26 9 26 16 34 c 2,4,-1
 236 264 l 1,5,-1
 235 234 l 1,6,-1
 98 445 l 2,7,8
 90 460 90 460 91.5 470 c 128,-1,9
 93 480 93 480 100.5 486 c 128,-1,10
 108 492 108 492 117 492 c 0,11,12
 127 492 127 492 135 487 c 128,-1,13
 143 482 143 482 149 471 c 2,14,-1
 272 279 l 1,15,-1
 255 279 l 1,16,-1
 437 475 l 2,17,18
 445 483 445 483 452 487.5 c 128,-1,19
 459 492 459 492 470 492 c 0,20,21
 483 492 483 492 490 485.5 c 128,-1,22
 497 479 497 479 497 469.5 c 128,-1,23
 497 460 497 460 489 451 c 2,24,-1
 287 236 l 1,25,-1
 285 264 l 1,26,-1
 430 40 l 2,27,28
 440 27 440 27 438 16 c 128,-1,29
 436 5 436 5 428 -0.5 c 128,-1,30
 420 -6 420 -6 411 -6 c 0,31,32
 401 -6 401 -6 393 -1 c 128,-1,33
 385 4 385 4 378 14 c 2,34,-1
 247 219 l 1,35,-1
 265 217 l 1,36,-1
 69 10 l 2,37,38
 60 2 60 2 53 -2 c 128,-1,39
 46 -6 46 -6 35 -6 c 0,0,1
EndSplineSet
EndChar

StartChar: y
Encoding: 121 121 471
Width: 509
GlyphClass: 2
Flags: W
AnchorPoint: "Anchor-2" 341 0 basechar 0
AnchorPoint: "Anchor-0" 282 484 basechar 0
LayerCount: 2
Fore
SplineSet
117 -186 m 256,0,1
 105 -186 105 -186 98.5 -180 c 128,-1,2
 92 -174 92 -174 92 -163.5 c 128,-1,3
 92 -153 92 -153 99 -142 c 2,4,-1
 191 16 l 1,5,-1
 187 -12 l 1,6,-1
 64 447 l 2,7,8
 61 461 61 461 63 470.5 c 128,-1,9
 65 480 65 480 73 486 c 128,-1,10
 81 492 81 492 93 492 c 0,11,12
 107 492 107 492 113 485.5 c 128,-1,13
 119 479 119 479 123 463 c 2,14,-1
 231 36 l 1,15,-1
 204 36 l 1,16,-1
 454 469 l 2,17,18
 461 481 461 481 468.5 486.5 c 128,-1,19
 476 492 476 492 488 492 c 256,20,21
 500 492 500 492 507.5 485.5 c 128,-1,22
 515 479 515 479 516 469 c 128,-1,23
 517 459 517 459 509 447 c 2,24,-1
 150 -163 l 2,25,26
 144 -175 144 -175 136.5 -180.5 c 128,-1,27
 129 -186 129 -186 117 -186 c 256,0,1
EndSplineSet
EndChar

StartChar: uni01B4
Encoding: 436 436 478
Width: 542
GlyphClass: 1
Flags: W
LayerCount: 2
Fore
SplineSet
118 -186 m 0,0,1
 105 -186 105 -186 98.5 -180 c 128,-1,2
 92 -174 92 -174 92 -163.5 c 128,-1,3
 92 -153 92 -153 99 -142 c 2,4,-1
 191 16 l 1,5,-1
 187 -12 l 1,6,-1
 64 445 l 2,7,8
 61 458 61 458 63.5 468.5 c 128,-1,9
 66 479 66 479 74 485.5 c 128,-1,10
 82 492 82 492 94 492 c 0,11,12
 107 492 107 492 113 485.5 c 128,-1,13
 119 479 119 479 123 463 c 2,14,-1
 231 36 l 1,15,-1
 204 36 l 1,16,-1
 412 397 l 2,17,18
 432 431 432 431 453.5 452.5 c 128,-1,19
 475 474 475 474 501.5 484 c 128,-1,20
 528 494 528 494 563 494 c 0,21,22
 596 494 596 494 608.5 487 c 128,-1,23
 621 480 621 480 621 466 c 0,24,25
 621 454 621 454 614 447 c 128,-1,26
 607 440 607 440 596 440 c 0,27,28
 592 440 592 440 582 441 c 128,-1,29
 572 442 572 442 563 442 c 0,30,31
 531 442 531 442 508.5 424.5 c 128,-1,32
 486 407 486 407 459 362 c 2,33,-1
 151 -163 l 2,34,35
 145 -175 145 -175 137 -180.5 c 128,-1,36
 129 -186 129 -186 118 -186 c 0,0,1
EndSplineSet
EndChar

StartChar: z
Encoding: 122 122 482
Width: 459
GlyphClass: 2
Flags: W
AnchorPoint: "Anchor-2" 209 0 basechar 0
AnchorPoint: "Anchor-0" 271 484 basechar 0
LayerCount: 2
Fore
SplineSet
48 0 m 2,0,1
 39 0 39 0 32.5 4 c 128,-1,2
 26 8 26 8 23 14.5 c 128,-1,3
 20 21 20 21 21.5 29 c 128,-1,4
 23 37 23 37 31 45 c 2,5,-1
 387 453 l 1,6,-1
 390 437 l 1,7,-1
 112 437 l 2,8,9
 100 437 100 437 93 442.5 c 128,-1,10
 86 448 86 448 86 457 c 0,11,12
 86 471 86 471 93.5 478 c 128,-1,13
 101 485 101 485 115 485 c 2,14,-1
 425 485 l 2,15,16
 436 485 436 485 443 481 c 128,-1,17
 450 477 450 477 452 470 c 128,-1,18
 454 463 454 463 451 454 c 128,-1,19
 448 445 448 445 440 436 c 2,20,-1
 85 31 l 1,21,-1
 82 49 l 1,22,-1
 373 49 l 2,23,24
 399 49 399 49 399 29 c 0,25,26
 399 15 399 15 391 7.5 c 128,-1,27
 383 0 383 0 370 0 c 2,28,-1
 48 0 l 2,0,1
EndSplineSet
EndChar

StartChar: germandbls.calt
Encoding: 65540 -1 487
Width: 705
GlyphClass: 1
Flags: W
LayerCount: 2
Fore
SplineSet
388 -8 m 0,0,1
 338 -8 338 -8 291.5 6.5 c 128,-1,2
 245 21 245 21 213 47 c 0,3,4
 204 53 204 53 201.5 61.5 c 128,-1,5
 199 70 199 70 201 78.5 c 128,-1,6
 203 87 203 87 209.5 92.5 c 128,-1,7
 216 98 216 98 224.5 98.5 c 128,-1,8
 233 99 233 99 243 92 c 0,9,10
 275 70 275 70 312.5 58.5 c 128,-1,11
 350 47 350 47 390 47 c 0,12,13
 477 47 477 47 522.5 88.5 c 128,-1,14
 568 130 568 130 568 205 c 0,15,16
 568 265 568 265 528 296.5 c 128,-1,17
 488 328 488 328 413 328 c 2,18,-1
 304 328 l 2,19,20
 293 328 293 328 286 333.5 c 128,-1,21
 279 339 279 339 279 349 c 0,22,23
 279 366 279 366 287.5 373.5 c 128,-1,24
 296 381 296 381 309 381 c 2,25,-1
 413 381 l 2,26,27
 490 381 490 381 537.5 419.5 c 128,-1,28
 585 458 585 458 585 532 c 0,29,30
 585 589 585 589 541.5 623.5 c 128,-1,31
 498 658 498 658 418 658 c 0,32,33
 316 658 316 658 260.5 610 c 128,-1,34
 205 562 205 562 188 463 c 2,35,-1
 118 24 l 2,36,37
 117 9 117 9 108.5 1.5 c 128,-1,38
 100 -6 100 -6 84 -6 c 0,39,40
 69 -6 69 -6 62 3 c 128,-1,41
 55 12 55 12 58 29 c 2,42,-1
 128 469 l 2,43,44
 141 553 141 553 178 607 c 128,-1,45
 215 661 215 661 276 687 c 128,-1,46
 337 713 337 713 422 713 c 0,47,48
 494 713 494 713 544.5 690.5 c 128,-1,49
 595 668 595 668 621 628 c 128,-1,50
 647 588 647 588 647 537 c 0,51,52
 647 459 647 459 601 410 c 128,-1,53
 555 361 555 361 487 349 c 1,54,-1
 487 364 l 1,55,56
 531 357 531 357 563 335 c 128,-1,57
 595 313 595 313 612.5 279 c 128,-1,58
 630 245 630 245 630 204 c 0,59,60
 630 138 630 138 602 90 c 128,-1,61
 574 42 574 42 520.5 17 c 128,-1,62
 467 -8 467 -8 388 -8 c 0,0,1
EndSplineSet
EndChar

StartChar: a.ss01
Encoding: 65542 -1 489
Width: 575
GlyphClass: 2
Flags: W
AnchorPoint: "Anchor-3" 448 0 basechar 0
AnchorPoint: "Anchor-2" 250 0 basechar 0
AnchorPoint: "Anchor-0" 314 484 basechar 0
LayerCount: 2
Fore
SplineSet
236 -8 m 0,0,1
 180 -8 180 -8 137.5 17 c 128,-1,2
 95 42 95 42 71.5 88.5 c 128,-1,3
 48 135 48 135 48 199 c 0,4,5
 48 278 48 278 75.5 345 c 128,-1,6
 103 412 103 412 157.5 453 c 128,-1,7
 212 494 212 494 290 494 c 0,8,9
 350 494 350 494 397.5 463 c 128,-1,10
 445 432 445 432 461 368 c 1,11,-1
 454 364 l 1,12,-1
 469 461 l 2,13,14
 472 477 472 477 480.5 484.5 c 128,-1,15
 489 492 489 492 504 492 c 0,16,17
 518 492 518 492 524.5 482.5 c 128,-1,18
 531 473 531 473 529 456 c 2,19,-1
 460 24 l 2,20,21
 458 9 458 9 449.5 1.5 c 128,-1,22
 441 -6 441 -6 425 -6 c 0,23,24
 411 -6 411 -6 405 3.5 c 128,-1,25
 399 13 399 13 401 30 c 2,26,-1
 415 115 l 1,27,-1
 424 108 l 1,28,29
 398 55 398 55 350 23.5 c 128,-1,30
 302 -8 302 -8 236 -8 c 0,0,1
252 43 m 0,31,32
 312 43 312 43 353 76 c 128,-1,33
 394 109 394 109 415.5 164 c 128,-1,34
 437 219 437 219 437 285 c 0,35,36
 437 363 437 363 399 402.5 c 128,-1,37
 361 442 361 442 294 442 c 0,38,39
 235 442 235 442 193.5 409 c 128,-1,40
 152 376 152 376 131 321.5 c 128,-1,41
 110 267 110 267 110 200 c 0,42,43
 110 123 110 123 147.5 83 c 128,-1,44
 185 43 185 43 252 43 c 0,31,32
EndSplineSet
EndChar

StartChar: l.ss02
Encoding: 65569 -1 516
Width: 222
GlyphClass: 2
Flags: W
AnchorPoint: "Anchor-5" 129 357 basechar 0
AnchorPoint: "Anchor-2" 72 0 basechar 0
AnchorPoint: "Anchor-1" 262 705 basechar 0
AnchorPoint: "Anchor-0" 184 705 basechar 0
LayerCount: 2
Fore
SplineSet
72 -6 m 0,0,1
 57 -6 57 -6 50.5 3 c 128,-1,2
 44 12 44 12 47 29 c 2,3,-1
 150 681 l 2,4,5
 153 697 153 697 161.5 704 c 128,-1,6
 170 711 170 711 185 711 c 0,7,8
 199 711 199 711 206 702 c 128,-1,9
 213 693 213 693 210 676 c 2,10,-1
 107 23 l 2,11,12
 102 -6 102 -6 72 -6 c 0,0,1
EndSplineSet
EndChar

StartChar: fi
Encoding: 64257 64257 525
Width: 535
GlyphClass: 3
LigCaretCntFixed: 1
Flags: W
LayerCount: 2
Fore
SplineSet
95 -6 m 0,0,1
 80 -6 80 -6 73.5 3 c 128,-1,2
 67 12 67 12 70 30 c 2,3,-1
 135 436 l 1,4,-1
 67 436 l 2,5,6
 55 436 55 436 48.5 441 c 128,-1,7
 42 446 42 446 42 455 c 0,8,9
 42 470 42 470 50.5 477.5 c 128,-1,10
 59 485 59 485 74 485 c 2,11,-1
 152 485 l 1,12,-1
 140 474 l 1,13,-1
 149 528 l 2,14,15
 161 608 161 608 210.5 654 c 128,-1,16
 260 700 260 700 344 705 c 2,17,-1
 373 707 l 2,18,19
 384 708 384 708 390.5 703.5 c 128,-1,20
 397 699 397 699 399.5 691.5 c 128,-1,21
 402 684 402 684 400.5 676.5 c 128,-1,22
 399 669 399 669 393.5 663.5 c 128,-1,23
 388 658 388 658 379 657 c 2,24,-1
 348 655 l 2,25,26
 287 651 287 651 253 619 c 128,-1,27
 219 587 219 587 209 525 c 2,28,-1
 201 477 l 1,29,-1
 195 485 l 1,30,-1
 462 485 l 2,31,32
 476 485 476 485 483 476.5 c 128,-1,33
 490 468 490 468 487 451 c 2,34,-1
 419 24 l 2,35,36
 418 9 418 9 409 1.5 c 128,-1,37
 400 -6 400 -6 384 -6 c 0,38,39
 370 -6 370 -6 363.5 3 c 128,-1,40
 357 12 357 12 359 30 c 2,41,-1
 424 436 l 1,42,-1
 196 436 l 1,43,-1
 130 24 l 2,44,45
 125 -6 125 -6 95 -6 c 0,0,1
484 610 m 0,46,47
 466 610 466 610 456 619.5 c 128,-1,48
 446 629 446 629 447 646 c 0,49,50
 448 669 448 669 461.5 681 c 128,-1,51
 475 693 475 693 497 693 c 0,52,53
 516 693 516 693 526 684 c 128,-1,54
 536 675 536 675 535 657 c 0,55,56
 534 635 534 635 520.5 622.5 c 128,-1,57
 507 610 507 610 484 610 c 0,46,47
EndSplineSet
Ligature2: "'liga' Standard Ligatures lookup 33 subtable" f i
LCarets2: 1 267
EndChar

StartChar: ordfeminine
Encoding: 170 170 529
Width: 321
GlyphClass: 1
Flags: W
LayerCount: 2
Fore
SplineSet
170 412 m 0,0,1
 128 412 128 412 99.5 438 c 128,-1,2
 71 464 71 464 71 501 c 0,3,4
 71 545 71 545 111.5 565.5 c 128,-1,5
 152 586 152 586 240 586 c 2,6,-1
 307 586 l 1,7,-1
 302 553 l 1,8,-1
 247 553 l 2,9,10
 175 553 175 553 146.5 541.5 c 128,-1,11
 118 530 118 530 118 503 c 0,12,13
 118 478 118 478 134.5 463 c 128,-1,14
 151 448 151 448 177 448 c 0,15,16
 201 448 201 448 224 459.5 c 128,-1,17
 247 471 247 471 263 491 c 128,-1,18
 279 511 279 511 283 535 c 2,19,-1
 294 604 l 2,20,21
 300 641 300 641 279 658.5 c 128,-1,22
 258 676 258 676 221 676 c 0,23,24
 200 676 200 676 180 670.5 c 128,-1,25
 160 665 160 665 140 654 c 0,26,27
 130 649 130 649 122.5 651.5 c 128,-1,28
 115 654 115 654 112 661 c 128,-1,29
 109 668 109 668 111.5 676 c 128,-1,30
 114 684 114 684 125 689 c 0,31,32
 145 700 145 700 170.5 706.5 c 128,-1,33
 196 713 196 713 224 713 c 0,34,35
 262 713 262 713 290 698.5 c 128,-1,36
 318 684 318 684 330.5 657 c 128,-1,37
 343 630 343 630 337 592 c 2,38,-1
 312 433 l 2,39,40
 308 413 308 413 287 413 c 0,41,42
 277 413 277 413 272 419 c 128,-1,43
 267 425 267 425 268 436 c 2,44,-1
 274 471 l 1,45,-1
 272 471 l 1,46,47
 255 444 255 444 229.5 428 c 128,-1,48
 204 412 204 412 170 412 c 0,0,1
EndSplineSet
EndChar

StartChar: ordmasculine
Encoding: 186 186 530
Width: 332
GlyphClass: 1
Flags: W
LayerCount: 2
Fore
SplineSet
210 412 m 0,0,1
 171 412 171 412 141 429.5 c 128,-1,2
 111 447 111 447 93.5 478 c 128,-1,3
 76 509 76 509 76 550 c 0,4,5
 76 600 76 600 96 637 c 128,-1,6
 116 674 116 674 149.5 693.5 c 128,-1,7
 183 713 183 713 224 713 c 0,8,9
 263 713 263 713 293 696 c 128,-1,10
 323 679 323 679 340.5 648.5 c 128,-1,11
 358 618 358 618 358 575 c 0,12,13
 358 525 358 525 338 488.5 c 128,-1,14
 318 452 318 452 284.5 432 c 128,-1,15
 251 412 251 412 210 412 c 0,0,1
211 450 m 0,16,17
 255 450 255 450 283 482.5 c 128,-1,18
 311 515 311 515 311 576 c 0,19,20
 311 624 311 624 287 649.5 c 128,-1,21
 263 675 263 675 223 675 c 0,22,23
 178 675 178 675 150.5 642.5 c 128,-1,24
 123 610 123 610 123 549 c 0,25,26
 123 502 123 502 147 476 c 128,-1,27
 171 450 171 450 211 450 c 0,16,17
EndSplineSet
EndChar

StartChar: uni0411
Encoding: 1041 1041 532
Width: 654
GlyphClass: 1
Flags: W
LayerCount: 2
Fore
SplineSet
91 0 m 2,0,1
 73 0 73 0 65 10 c 128,-1,2
 57 20 57 20 59 38 c 2,3,-1
 160 673 l 2,4,5
 163 689 163 689 172.5 697 c 128,-1,6
 182 705 182 705 198 705 c 2,7,-1
 574 705 l 2,8,9
 589 705 589 705 596.5 699.5 c 128,-1,10
 604 694 604 694 604 683 c 0,11,12
 604 668 604 668 595.5 660 c 128,-1,13
 587 652 587 652 571 652 c 2,14,-1
 218 652 l 1,15,-1
 175 386 l 1,16,-1
 382 386 l 2,17,18
 489 386 489 386 543 339 c 128,-1,19
 597 292 597 292 597 213 c 0,20,21
 597 107 597 107 533 53.5 c 128,-1,22
 469 0 469 0 348 0 c 2,23,-1
 91 0 l 2,0,1
122 53 m 1,24,-1
 352 53 l 2,25,26
 443 53 443 53 488.5 92.5 c 128,-1,27
 534 132 534 132 534 210 c 0,28,29
 534 271 534 271 494.5 302 c 128,-1,30
 455 333 455 333 378 333 c 2,31,-1
 167 333 l 1,32,-1
 122 53 l 1,24,-1
EndSplineSet
EndChar

StartChar: uni0413
Encoding: 1043 1043 534
Width: 534
GlyphClass: 2
Flags: W
AnchorPoint: "Anchor-4" 168 354 basechar 0
AnchorPoint: "Anchor-0" 349 705 basechar 0
LayerCount: 2
Fore
SplineSet
84 -6 m 0,0,1
 69 -6 69 -6 62 3.5 c 128,-1,2
 55 13 55 13 58 31 c 2,3,-1
 160 673 l 2,4,5
 163 689 163 689 172.5 697 c 128,-1,6
 182 705 182 705 197 705 c 2,7,-1
 570 705 l 2,8,9
 585 705 585 705 592.5 699.5 c 128,-1,10
 600 694 600 694 600 683 c 0,11,12
 600 667 600 667 591 658.5 c 128,-1,13
 582 650 582 650 567 650 c 2,14,-1
 219 650 l 1,15,-1
 119 25 l 2,16,17
 118 10 118 10 109 2 c 128,-1,18
 100 -6 100 -6 84 -6 c 0,0,1
EndSplineSet
EndChar

StartChar: uni0490
Encoding: 1168 1168 536
Width: 534
GlyphClass: 1
Flags: W
LayerCount: 2
Fore
SplineSet
85 -6 m 0,0,1
 70 -6 70 -6 62.5 3.5 c 128,-1,2
 55 13 55 13 58 31 c 2,3,-1
 160 673 l 2,4,5
 163 689 163 689 172.5 697 c 128,-1,6
 182 705 182 705 198 705 c 2,7,-1
 537 705 l 1,8,-1
 559 836 l 2,9,10
 563 864 563 864 590 864 c 0,11,12
 604 864 604 864 610.5 855 c 128,-1,13
 617 846 617 846 614 831 c 2,14,-1
 591 682 l 2,15,16
 589 666 589 666 579 658 c 128,-1,17
 569 650 569 650 554 650 c 2,18,-1
 219 650 l 1,19,-1
 119 25 l 2,20,21
 118 10 118 10 109.5 2 c 128,-1,22
 101 -6 101 -6 85 -6 c 0,0,1
EndSplineSet
EndChar

StartChar: uni04F6
Encoding: 1270 1270 537
Width: 534
GlyphClass: 1
Flags: W
LayerCount: 2
Fore
SplineSet
163 -159 m 0,0,1
 151 -159 151 -159 144 -151 c 128,-1,2
 137 -143 137 -143 140 -126 c 2,3,-1
 160 0 l 1,4,-1
 85 0 l 2,5,6
 69 0 69 0 62.5 9.5 c 128,-1,7
 56 19 56 19 59 37 c 2,8,-1
 160 673 l 2,9,10
 163 689 163 689 172.5 697 c 128,-1,11
 182 705 182 705 197 705 c 2,12,-1
 570 705 l 2,13,14
 585 705 585 705 592.5 699.5 c 128,-1,15
 600 694 600 694 600 683 c 0,16,17
 600 667 600 667 591 658.5 c 128,-1,18
 582 650 582 650 567 650 c 2,19,-1
 219 650 l 1,20,-1
 120 30 l 1,21,-1
 99 54 l 1,22,-1
 187 54 l 2,23,24
 205 54 205 54 213 46 c 128,-1,25
 221 38 221 38 219 20 c 2,26,-1
 195 -131 l 2,27,28
 193 -145 193 -145 185 -152 c 128,-1,29
 177 -159 177 -159 163 -159 c 0,0,1
EndSplineSet
EndChar

StartChar: uni0492
Encoding: 1170 1170 538
Width: 568
GlyphClass: 1
Flags: W
LayerCount: 2
Fore
SplineSet
118 -6 m 0,0,1
 103 -6 103 -6 96 3.5 c 128,-1,2
 89 13 89 13 92 31 c 2,3,-1
 139 330 l 1,4,-1
 71 330 l 2,5,6
 57 330 57 330 50 335.5 c 128,-1,7
 43 341 43 341 43 351 c 0,8,9
 43 365 43 365 51.5 372.5 c 128,-1,10
 60 380 60 380 73 380 c 2,11,-1
 147 380 l 1,12,-1
 194 673 l 2,13,14
 196 689 196 689 206 697 c 128,-1,15
 216 705 216 705 231 705 c 2,16,-1
 604 705 l 2,17,18
 619 705 619 705 626.5 699.5 c 128,-1,19
 634 694 634 694 634 683 c 0,20,21
 634 667 634 667 625 658.5 c 128,-1,22
 616 650 616 650 601 650 c 2,23,-1
 251 650 l 1,24,-1
 209 380 l 1,25,-1
 366 380 l 2,26,27
 379 380 379 380 386.5 374.5 c 128,-1,28
 394 369 394 369 394 359 c 0,29,30
 394 346 394 346 385.5 338 c 128,-1,31
 377 330 377 330 363 330 c 2,32,-1
 200 330 l 1,33,-1
 152 25 l 2,34,35
 150 10 150 10 142 2 c 128,-1,36
 134 -6 134 -6 118 -6 c 0,0,1
EndSplineSet
Substitution2: "'locl' Localized Forms in Cyrillic lookup 16 subtable" uni0492.loclBSH
Substitution2: "'aalt' Access All Alternates lookup 0 subtable" uni0492.loclBSH
EndChar

StartChar: uni0494
Encoding: 1172 1172 539
Width: 655
GlyphClass: 1
Flags: W
LayerCount: 2
Fore
SplineSet
339 -188 m 0,0,1
 314 -188 314 -188 289.5 -184.5 c 128,-1,2
 265 -181 265 -181 246 -174 c 0,3,4
 236 -172 236 -172 231 -165 c 128,-1,5
 226 -158 226 -158 226 -150 c 128,-1,6
 226 -142 226 -142 230 -135 c 128,-1,7
 234 -128 234 -128 241.5 -124.5 c 128,-1,8
 249 -121 249 -121 259 -124 c 0,9,10
 276 -129 276 -129 294.5 -132 c 128,-1,11
 313 -135 313 -135 334 -135 c 0,12,13
 401 -135 401 -135 443.5 -90 c 128,-1,14
 486 -45 486 -45 501 45 c 2,15,-1
 516 139 l 2,16,17
 536 260 536 260 493 317.5 c 128,-1,18
 450 375 450 375 349 375 c 0,19,20
 300 375 300 375 255 365.5 c 128,-1,21
 210 356 210 356 168 332 c 1,22,-1
 119 24 l 2,23,24
 117 10 117 10 108.5 2 c 128,-1,25
 100 -6 100 -6 84 -6 c 0,26,27
 69 -6 69 -6 62.5 3.5 c 128,-1,28
 56 13 56 13 58 30 c 2,29,-1
 160 673 l 2,30,31
 163 689 163 689 172.5 697 c 128,-1,32
 182 705 182 705 198 705 c 2,33,-1
 580 705 l 2,34,35
 595 705 595 705 602.5 699.5 c 128,-1,36
 610 694 610 694 610 683 c 0,37,38
 610 667 610 667 601 658.5 c 128,-1,39
 592 650 592 650 576 650 c 2,40,-1
 219 650 l 1,41,-1
 178 393 l 1,42,43
 214 412 214 412 259 422 c 128,-1,44
 304 432 304 432 354 432 c 0,45,46
 417 432 417 432 464.5 413.5 c 128,-1,47
 512 395 512 395 541 359 c 128,-1,48
 570 323 570 323 579.5 269 c 128,-1,49
 589 215 589 215 578 145 c 2,50,-1
 562 47 l 2,51,52
 550 -30 550 -30 521.5 -82.5 c 128,-1,53
 493 -135 493 -135 447.5 -161.5 c 128,-1,54
 402 -188 402 -188 339 -188 c 0,0,1
EndSplineSet
EndChar

StartChar: uni0414
Encoding: 1044 1044 540
Width: 769
GlyphClass: 1
Flags: W
AnchorPoint: "Anchor-0" 485 704 basechar 0
LayerCount: 2
Fore
SplineSet
-17 -160 m 0,0,1
 -30 -160 -30 -160 -36 -151 c 128,-1,2
 -42 -142 -42 -142 -40 -126 c 2,3,-1
 -17 23 l 2,4,5
 -13 53 -13 53 18 53 c 2,6,-1
 79 53 l 1,7,-1
 49 46 l 1,8,9
 116 109 116 109 161.5 225 c 128,-1,10
 207 341 207 341 236 523 c 2,11,-1
 260 673 l 2,12,13
 263 689 263 689 272.5 697 c 128,-1,14
 282 705 282 705 298 705 c 2,15,-1
 681 705 l 2,16,17
 699 705 699 705 707.5 695.5 c 128,-1,18
 716 686 716 686 713 667 c 2,19,-1
 612 27 l 1,20,-1
 596 53 l 1,21,-1
 681 53 l 2,22,23
 698 53 698 53 706 44 c 128,-1,24
 714 35 714 35 711 18 c 2,25,-1
 686 -132 l 2,26,27
 682 -160 682 -160 655 -160 c 0,28,29
 641 -160 641 -160 635 -151 c 128,-1,30
 629 -142 629 -142 631 -126 c 2,31,-1
 651 0 l 1,32,-1
 37 0 l 1,33,-1
 15 -132 l 2,34,35
 11 -160 11 -160 -17 -160 c 0,0,1
128 53 m 1,36,-1
 555 53 l 1,37,-1
 649 652 l 1,38,-1
 315 652 l 1,39,-1
 295 521 l 2,40,41
 268 348 268 348 228 233 c 128,-1,42
 188 118 188 118 128 53 c 1,36,-1
EndSplineSet
EndChar

StartChar: uni0416
Encoding: 1046 1046 544
Width: 948
GlyphClass: 2
Flags: W
AnchorPoint: "Anchor-0" 547 705 basechar 0
LayerCount: 2
Fore
SplineSet
435 -6 m 256,0,1
 420 -6 420 -6 413.5 3 c 128,-1,2
 407 12 407 12 409 28 c 2,3,-1
 457 330 l 1,4,-1
 363 330 l 2,5,6
 305 330 305 330 261.5 302 c 128,-1,7
 218 274 218 274 176 208 c 2,8,-1
 51 12 l 2,9,10
 44 1 44 1 34.5 -3.5 c 128,-1,11
 25 -8 25 -8 16 -6 c 128,-1,12
 7 -4 7 -4 0.5 2.5 c 128,-1,13
 -6 9 -6 9 -6.5 19 c 128,-1,14
 -7 29 -7 29 2 41 c 2,15,-1
 130 242 l 2,16,17
 171 307 171 307 219 341.5 c 128,-1,18
 267 376 267 376 326 382 c 1,19,-1
 306 360 l 1,20,-1
 146 670 l 2,21,22
 140 681 140 681 142 690 c 128,-1,23
 144 699 144 699 150.5 704.5 c 128,-1,24
 157 710 157 710 166.5 711 c 128,-1,25
 176 712 176 712 184.5 707.5 c 128,-1,26
 193 703 193 703 199 692 c 2,27,-1
 365 369 l 1,28,-1
 345 384 l 1,29,-1
 466 384 l 1,30,-1
 513 682 l 2,31,32
 516 697 516 697 524.5 704 c 128,-1,33
 533 711 533 711 547 711 c 0,34,35
 562 711 562 711 568.5 702 c 128,-1,36
 575 693 575 693 573 677 c 2,37,-1
 526 384 l 1,38,-1
 635 384 l 1,39,-1
 617 369 l 1,40,-1
 889 696 l 2,41,42
 896 706 896 706 906 709 c 128,-1,43
 916 712 916 712 925 709.5 c 128,-1,44
 934 707 934 707 939 700 c 128,-1,45
 944 693 944 693 943.5 683.5 c 128,-1,46
 943 674 943 674 933 662 c 2,47,-1
 681 360 l 1,48,-1
 653 382 l 1,49,50
 691 378 691 378 722.5 361 c 128,-1,51
 754 344 754 344 777 314 c 128,-1,52
 800 284 800 284 814 242 c 2,53,-1
 884 34 l 2,54,55
 888 22 888 22 884.5 13 c 128,-1,56
 881 4 881 4 873.5 -1 c 128,-1,57
 866 -6 866 -6 856.5 -6 c 128,-1,58
 847 -6 847 -6 838.5 0 c 128,-1,59
 830 6 830 6 826 18 c 2,60,-1
 764 209 l 2,61,62
 743 274 743 274 706.5 302 c 128,-1,63
 670 330 670 330 613 330 c 2,64,-1
 518 330 l 1,65,-1
 469 23 l 2,66,67
 467 9 467 9 458.5 1.5 c 128,-1,68
 450 -6 450 -6 435 -6 c 256,0,1
EndSplineSet
EndChar

StartChar: uni0417
Encoding: 1047 1047 545
Width: 643
GlyphClass: 2
Flags: W
AnchorPoint: "Anchor-2" 289 0 basechar 0
AnchorPoint: "Anchor-0" 390 705 basechar 0
LayerCount: 2
Fore
SplineSet
304 -8 m 0,0,1
 223 -8 223 -8 159 10.5 c 128,-1,2
 95 29 95 29 43 70 c 0,3,4
 34 77 34 77 31 86 c 128,-1,5
 28 95 28 95 30.5 104 c 128,-1,6
 33 113 33 113 39 118.5 c 128,-1,7
 45 124 45 124 54.5 124.5 c 128,-1,8
 64 125 64 125 75 117 c 0,9,10
 109 91 109 91 145 76 c 128,-1,11
 181 61 181 61 221.5 54.5 c 128,-1,12
 262 48 262 48 307 48 c 0,13,14
 360 48 360 48 405 63 c 128,-1,15
 450 78 450 78 477.5 112.5 c 128,-1,16
 505 147 505 147 505 207 c 0,17,18
 505 268 505 268 466 299 c 128,-1,19
 427 330 427 330 352 330 c 2,20,-1
 209 330 l 2,21,22
 194 330 194 330 186 336.5 c 128,-1,23
 178 343 178 343 179 355 c 0,24,25
 181 369 181 369 189.5 376 c 128,-1,26
 198 383 198 383 212 383 c 2,27,-1
 360 383 l 2,28,29
 443 383 443 383 492.5 422.5 c 128,-1,30
 542 462 542 462 542 537 c 0,31,32
 542 580 542 580 519.5 606 c 128,-1,33
 497 632 497 632 460 644.5 c 128,-1,34
 423 657 423 657 376 657 c 0,35,36
 318 657 318 657 262.5 641 c 128,-1,37
 207 625 207 625 159 591 c 0,38,39
 147 583 147 583 137 583 c 128,-1,40
 127 583 127 583 121 589 c 128,-1,41
 115 595 115 595 113 603.5 c 128,-1,42
 111 612 111 612 115 621 c 128,-1,43
 119 630 119 630 129 637 c 0,44,45
 183 674 183 674 248.5 693.5 c 128,-1,46
 314 713 314 713 379 713 c 0,47,48
 442 713 442 713 493 694.5 c 128,-1,49
 544 676 544 676 574 638 c 128,-1,50
 604 600 604 600 604 544 c 0,51,52
 604 462 604 462 555 411.5 c 128,-1,53
 506 361 506 361 424 350 c 1,54,-1
 424 364 l 1,55,56
 491 354 491 354 529.5 311.5 c 128,-1,57
 568 269 568 269 568 204 c 0,58,59
 568 129 568 129 532.5 82 c 128,-1,60
 497 35 497 35 437 13.5 c 128,-1,61
 377 -8 377 -8 304 -8 c 0,0,1
EndSplineSet
EndChar

StartChar: uni0418
Encoding: 1048 1048 546
Width: 736
GlyphClass: 2
Flags: W
AnchorPoint: "Anchor-0" 440 705 basechar 0
LayerCount: 2
Fore
SplineSet
79 -8 m 0,0,1
 72 -8 72 -8 67 -6 c 128,-1,2
 62 -4 62 -4 59.5 0 c 128,-1,3
 57 4 57 4 56.5 9 c 128,-1,4
 56 14 56 14 57 20 c 2,5,-1
 162 682 l 2,6,7
 165 698 165 698 173 704.5 c 128,-1,8
 181 711 181 711 195 711 c 256,9,10
 209 711 209 711 215 702 c 128,-1,11
 221 693 221 693 218 677 c 2,12,-1
 123 74 l 1,13,-1
 98 75 l 1,14,-1
 659 695 l 2,15,16
 666 703 666 703 673 707 c 128,-1,17
 680 711 680 711 691 711 c 256,18,19
 702 711 702 711 706.5 707 c 128,-1,20
 711 703 711 703 712.5 696.5 c 128,-1,21
 714 690 714 690 713 682 c 2,22,-1
 609 23 l 2,23,24
 607 8 607 8 598.5 1 c 128,-1,25
 590 -6 590 -6 576 -6 c 256,26,27
 562 -6 562 -6 556 3 c 128,-1,28
 550 12 550 12 552 28 c 2,29,-1
 648 631 l 1,30,-1
 672 631 l 1,31,-1
 110 9 l 2,32,33
 103 1 103 1 96.5 -3.5 c 128,-1,34
 90 -8 90 -8 79 -8 c 0,0,1
EndSplineSet
EndChar

StartChar: uni048A
Encoding: 1162 1162 549
Width: 774
GlyphClass: 1
Flags: W
LayerCount: 2
Fore
SplineSet
627 -143 m 2,0,1
 623 -153 623 -153 615 -157 c 128,-1,2
 607 -161 607 -161 599.5 -160 c 128,-1,3
 592 -159 592 -159 586 -154.5 c 128,-1,4
 580 -150 580 -150 578.5 -142 c 128,-1,5
 577 -134 577 -134 582 -124 c 2,6,-1
 653 21 l 1,7,-1
 653 0 l 1,8,-1
 580 0 l 2,9,10
 564 0 564 0 557 8.5 c 128,-1,11
 550 17 550 17 553 36 c 2,12,-1
 648 631 l 1,13,-1
 672 631 l 1,14,-1
 110 9 l 2,15,16
 103 1 103 1 96.5 -3.5 c 128,-1,17
 90 -8 90 -8 79 -8 c 0,18,19
 72 -8 72 -8 67 -6 c 128,-1,20
 62 -4 62 -4 59.5 0 c 128,-1,21
 57 4 57 4 56.5 9 c 128,-1,22
 56 14 56 14 57 20 c 2,23,-1
 162 682 l 2,24,25
 165 698 165 698 173 704.5 c 128,-1,26
 181 711 181 711 195 711 c 256,27,28
 209 711 209 711 215 702 c 128,-1,29
 221 693 221 693 218 677 c 2,30,-1
 123 74 l 1,31,-1
 98 75 l 1,32,-1
 659 695 l 2,33,34
 666 703 666 703 673 707 c 128,-1,35
 680 711 680 711 691 711 c 256,36,37
 702 711 702 711 706.5 707 c 128,-1,38
 711 703 711 703 712.5 696.5 c 128,-1,39
 714 690 714 690 713 682 c 2,40,-1
 610 32 l 1,41,-1
 596 54 l 1,42,-1
 677 54 l 2,43,44
 698 54 698 54 706 42.5 c 128,-1,45
 714 31 714 31 703 11 c 2,46,-1
 627 -143 l 2,0,1
444 760 m 0,47,48
 392 760 392 760 345 785.5 c 128,-1,49
 298 811 298 811 276 867 c 0,50,51
 271 880 271 880 274 888.5 c 128,-1,52
 277 897 277 897 286 901 c 0,53,54
 296 905 296 905 304 900 c 128,-1,55
 312 895 312 895 318 883 c 0,56,57
 337 843 337 843 367.5 823.5 c 128,-1,58
 398 804 398 804 446 804 c 0,59,60
 496 804 496 804 532 823.5 c 128,-1,61
 568 843 568 843 599 892 c 0,62,63
 606 901 606 901 613 903.5 c 128,-1,64
 620 906 620 906 628 902 c 0,65,66
 638 898 638 898 639.5 889.5 c 128,-1,67
 641 881 641 881 634 868 c 0,68,69
 598 807 598 807 548 783.5 c 128,-1,70
 498 760 498 760 444 760 c 0,47,48
EndSplineSet
EndChar

StartChar: uni041A
Encoding: 1050 1050 550
Width: 626
GlyphClass: 2
Flags: W
AnchorPoint: "Anchor-5" 332 353 basechar 0
AnchorPoint: "Anchor-0" 394 705 basechar 0
LayerCount: 2
Fore
SplineSet
84 -6 m 0,0,1
 69 -6 69 -6 62 3 c 128,-1,2
 55 12 55 12 58 29 c 2,3,-1
 162 684 l 2,4,5
 165 699 165 699 173.5 705 c 128,-1,6
 182 711 182 711 197 711 c 256,7,8
 212 711 212 711 218.5 702 c 128,-1,9
 225 693 225 693 223 676 c 2,10,-1
 176 384 l 1,11,-1
 313 384 l 1,12,-1
 295 369 l 1,13,-1
 567 696 l 2,14,15
 575 706 575 706 584.5 709 c 128,-1,16
 594 712 594 712 602.5 709 c 128,-1,17
 611 706 611 706 616.5 699.5 c 128,-1,18
 622 693 622 693 621.5 683.5 c 128,-1,19
 621 674 621 674 611 662 c 2,20,-1
 360 360 l 1,21,-1
 331 382 l 1,22,23
 388 376 388 376 429.5 340.5 c 128,-1,24
 471 305 471 305 492 242 c 2,25,-1
 562 34 l 2,26,27
 566 22 566 22 562.5 13 c 128,-1,28
 559 4 559 4 551.5 -1 c 128,-1,29
 544 -6 544 -6 534.5 -6 c 128,-1,30
 525 -6 525 -6 516.5 0 c 128,-1,31
 508 6 508 6 504 18 c 2,32,-1
 442 208 l 2,33,34
 421 274 421 274 384.5 302 c 128,-1,35
 348 330 348 330 291 330 c 2,36,-1
 168 330 l 1,37,-1
 119 27 l 2,38,39
 117 10 117 10 108.5 2 c 128,-1,40
 100 -6 100 -6 84 -6 c 0,0,1
EndSplineSet
EndChar

StartChar: uni041B
Encoding: 1051 1051 552
Width: 736
GlyphClass: 2
Flags: W
LayerCount: 2
Fore
SplineSet
574 -6 m 256,0,1
 559 -6 559 -6 552.5 3 c 128,-1,2
 546 12 546 12 548 30 c 2,3,-1
 646 650 l 1,4,-1
 313 650 l 1,5,-1
 283 460 l 2,6,7
 266 351 266 351 242 273.5 c 128,-1,8
 218 196 218 196 187.5 143 c 128,-1,9
 157 90 157 90 118 55 c 128,-1,10
 79 20 79 20 31 -4 c 0,11,12
 17 -11 17 -11 6 -7.5 c 128,-1,13
 -5 -4 -5 -4 -10 8 c 0,14,15
 -16 20 -16 20 -11.5 30.5 c 128,-1,16
 -7 41 -7 41 6 47 c 0,17,18
 42 66 42 66 74.5 93.5 c 128,-1,19
 107 121 107 121 135 167.5 c 128,-1,20
 163 214 163 214 186.5 289 c 128,-1,21
 210 364 210 364 228 475 c 2,22,-1
 259 671 l 2,23,24
 261 687 261 687 270.5 696 c 128,-1,25
 280 705 280 705 296 705 c 2,26,-1
 679 705 l 2,27,28
 697 705 697 705 705 695.5 c 128,-1,29
 713 686 713 686 711 667 c 2,30,-1
 609 24 l 2,31,32
 607 10 607 10 598 2 c 128,-1,33
 589 -6 589 -6 574 -6 c 256,0,1
EndSplineSet
EndChar

StartChar: uni041F
Encoding: 1055 1055 556
Width: 751
GlyphClass: 2
Flags: W
LayerCount: 2
Fore
SplineSet
84 -6 m 0,0,1
 69 -6 69 -6 62 3 c 128,-1,2
 55 12 55 12 58 30 c 2,3,-1
 160 673 l 2,4,5
 163 689 163 689 172.5 697 c 128,-1,6
 182 705 182 705 198 705 c 2,7,-1
 694 705 l 2,8,9
 712 705 712 705 720.5 695.5 c 128,-1,10
 729 686 729 686 726 667 c 2,11,-1
 624 24 l 2,12,13
 623 10 623 10 614 2 c 128,-1,14
 605 -6 605 -6 590 -6 c 256,15,16
 575 -6 575 -6 568 3 c 128,-1,17
 561 12 561 12 564 30 c 2,18,-1
 662 650 l 1,19,-1
 219 650 l 1,20,-1
 119 24 l 2,21,22
 117 10 117 10 108.5 2 c 128,-1,23
 100 -6 100 -6 84 -6 c 0,0,1
EndSplineSet
EndChar

StartChar: uni0423
Encoding: 1059 1059 560
Width: 636
GlyphClass: 2
Flags: W
AnchorPoint: "Anchor-0" 381 705 basechar 0
LayerCount: 2
Fore
SplineSet
209 -6 m 0,0,1
 198 -6 198 -6 190.5 -0.5 c 128,-1,2
 183 5 183 5 181.5 15 c 128,-1,3
 180 25 180 25 188 36 c 2,4,-1
 315 226 l 1,5,-1
 315 197 l 1,6,-1
 93 673 l 2,7,8
 88 683 88 683 90 691.5 c 128,-1,9
 92 700 92 700 100 705.5 c 128,-1,10
 108 711 108 711 118 711 c 0,11,12
 132 711 132 711 138.5 704 c 128,-1,13
 145 697 145 697 151 684 c 2,14,-1
 351 256 l 1,15,-1
 336 256 l 1,16,-1
 630 693 l 2,17,18
 637 702 637 702 645 706.5 c 128,-1,19
 653 711 653 711 663 711 c 0,20,21
 674 711 674 711 681 705.5 c 128,-1,22
 688 700 688 700 689.5 690.5 c 128,-1,23
 691 681 691 681 683 669 c 2,24,-1
 241 12 l 2,25,26
 236 4 236 4 227.5 -1 c 128,-1,27
 219 -6 219 -6 209 -6 c 0,0,1
EndSplineSet
EndChar

StartChar: uni0424
Encoding: 1060 1060 562
Width: 827
GlyphClass: 1
Flags: W
LayerCount: 2
Fore
SplineSet
371 -28 m 256,0,1
 356 -28 356 -28 349.5 -18 c 128,-1,2
 343 -8 343 -8 345 9 c 2,3,-1
 356 76 l 1,4,-1
 377 57 l 1,5,-1
 373 57 l 2,6,7
 286 57 286 57 220 89 c 128,-1,8
 154 121 154 121 116.5 179.5 c 128,-1,9
 79 238 79 238 79 318 c 0,10,11
 79 383 79 383 103.5 443.5 c 128,-1,12
 128 504 128 504 174 552.5 c 128,-1,13
 220 601 220 601 285.5 630 c 128,-1,14
 351 659 351 659 432 659 c 2,15,-1
 465 659 l 1,16,-1
 445 639 l 1,17,-1
 456 708 l 2,18,19
 459 723 459 723 467.5 730.5 c 128,-1,20
 476 738 476 738 490 738 c 0,21,22
 505 738 505 738 512.5 729 c 128,-1,23
 520 720 520 720 517 702 c 2,24,-1
 507 638 l 1,25,-1
 486 658 l 1,26,-1
 491 658 l 2,27,28
 578 658 578 658 644 626 c 128,-1,29
 710 594 710 594 747 535.5 c 128,-1,30
 784 477 784 477 784 396 c 0,31,32
 784 332 784 332 760 271 c 128,-1,33
 736 210 736 210 690 161.5 c 128,-1,34
 644 113 644 113 579 84.5 c 128,-1,35
 514 56 514 56 432 56 c 2,36,-1
 398 56 l 1,37,-1
 418 76 l 1,38,-1
 407 6 l 2,39,40
 404 -12 404 -12 395 -20 c 128,-1,41
 386 -28 386 -28 371 -28 c 256,0,1
359 93 m 1,42,-1
 442 622 l 1,43,-1
 457 606 l 1,44,-1
 428 606 l 2,45,46
 362 606 362 606 309.5 582 c 128,-1,47
 257 558 257 558 220 517 c 128,-1,48
 183 476 183 476 163.5 424.5 c 128,-1,49
 144 373 144 373 144 318 c 0,50,51
 144 251 144 251 172.5 204.5 c 128,-1,52
 201 158 201 158 253 133.5 c 128,-1,53
 305 109 305 109 377 109 c 2,54,-1
 380 109 l 1,55,-1
 359 93 l 1,42,-1
420 93 m 1,56,-1
 407 108 l 1,57,-1
 436 108 l 2,58,59
 502 108 502 108 554.5 132.5 c 128,-1,60
 607 157 607 157 644 197.5 c 128,-1,61
 681 238 681 238 700.5 290 c 128,-1,62
 720 342 720 342 720 396 c 0,63,64
 720 463 720 463 692 509 c 128,-1,65
 664 555 664 555 612.5 580 c 128,-1,66
 561 605 561 605 490 605 c 2,67,-1
 485 605 l 1,68,-1
 503 621 l 1,69,-1
 420 93 l 1,56,-1
EndSplineSet
EndChar

StartChar: uni0427
Encoding: 1063 1063 564
Width: 666
GlyphClass: 2
Flags: W
AnchorPoint: "Anchor-5" 312 295 basechar 0
AnchorPoint: "Anchor-0" 385 705 basechar 0
LayerCount: 2
Fore
SplineSet
504 -6 m 256,0,1
 489 -6 489 -6 483 3.5 c 128,-1,2
 477 13 477 13 479 30 c 2,3,-1
 522 308 l 1,4,5
 486 289 486 289 436 279 c 128,-1,6
 386 269 386 269 336 269 c 0,7,8
 249 269 249 269 193.5 302 c 128,-1,9
 138 335 138 335 117 399 c 128,-1,10
 96 463 96 463 110 556 c 2,11,-1
 130 681 l 2,12,13
 132 696 132 696 141 703.5 c 128,-1,14
 150 711 150 711 165 711 c 256,15,16
 180 711 180 711 186.5 701.5 c 128,-1,17
 193 692 193 692 190 675 c 2,18,-1
 172 561 l 2,19,20
 152 440 152 440 194.5 383 c 128,-1,21
 237 326 237 326 342 326 c 0,22,23
 390 326 390 326 439.5 336 c 128,-1,24
 489 346 489 346 533 369 c 1,25,-1
 582 681 l 2,26,27
 585 696 585 696 594 703.5 c 128,-1,28
 603 711 603 711 617 711 c 0,29,30
 632 711 632 711 638.5 701.5 c 128,-1,31
 645 692 645 692 643 675 c 2,32,-1
 539 24 l 2,33,34
 537 9 537 9 528 1.5 c 128,-1,35
 519 -6 519 -6 504 -6 c 256,0,1
EndSplineSet
EndChar

StartChar: uni0426
Encoding: 1062 1062 565
Width: 782
GlyphClass: 1
Flags: W
LayerCount: 2
Fore
SplineSet
667 -160 m 0,0,1
 654 -160 654 -160 648 -150.5 c 128,-1,2
 642 -141 642 -141 644 -126 c 2,3,-1
 664 0 l 1,4,-1
 91 0 l 2,5,6
 73 0 73 0 65 10 c 128,-1,7
 57 20 57 20 59 38 c 2,8,-1
 162 681 l 2,9,10
 165 696 165 696 173.5 703.5 c 128,-1,11
 182 711 182 711 197 711 c 256,12,13
 212 711 212 711 218.5 702 c 128,-1,14
 225 693 225 693 223 675 c 2,15,-1
 124 55 l 1,16,-1
 568 55 l 1,17,-1
 667 680 l 2,18,19
 670 696 670 696 678.5 703.5 c 128,-1,20
 687 711 687 711 701 711 c 0,21,22
 716 711 716 711 723 702 c 128,-1,23
 730 693 730 693 728 675 c 2,24,-1
 627 40 l 1,25,-1
 610 55 l 1,26,-1
 693 55 l 2,27,28
 710 55 710 55 718.5 45.5 c 128,-1,29
 727 36 727 36 724 18 c 2,30,-1
 700 -132 l 2,31,32
 695 -160 695 -160 667 -160 c 0,0,1
EndSplineSet
EndChar

StartChar: uni0428
Encoding: 1064 1064 566
Width: 1045
GlyphClass: 1
Flags: W
LayerCount: 2
Fore
SplineSet
91 0 m 2,0,1
 73 0 73 0 65 10 c 128,-1,2
 57 20 57 20 60 38 c 2,3,-1
 162 681 l 2,4,5
 165 696 165 696 173.5 703.5 c 128,-1,6
 182 711 182 711 196 711 c 0,7,8
 211 711 211 711 218 702 c 128,-1,9
 225 693 225 693 222 675 c 2,10,-1
 124 55 l 1,11,-1
 463 55 l 1,12,-1
 562 681 l 2,13,14
 565 696 565 696 573.5 703.5 c 128,-1,15
 582 711 582 711 597 711 c 256,16,17
 612 711 612 711 618.5 702 c 128,-1,18
 625 693 625 693 622 675 c 2,19,-1
 524 55 l 1,20,-1
 863 55 l 1,21,-1
 962 681 l 2,22,23
 964 696 964 696 972.5 703.5 c 128,-1,24
 981 711 981 711 996 711 c 256,25,26
 1011 711 1011 711 1018 702 c 128,-1,27
 1025 693 1025 693 1022 675 c 2,28,-1
 920 32 l 2,29,30
 917 16 917 16 907.5 8 c 128,-1,31
 898 0 898 0 882 0 c 2,32,-1
 91 0 l 2,0,1
EndSplineSet
EndChar

StartChar: uni0429
Encoding: 1065 1065 567
Width: 1076
GlyphClass: 1
Flags: W
LayerCount: 2
Fore
SplineSet
961 -160 m 0,0,1
 948 -160 948 -160 942 -150.5 c 128,-1,2
 936 -141 936 -141 938 -126 c 2,3,-1
 958 0 l 1,4,-1
 91 0 l 2,5,6
 73 0 73 0 65 10 c 128,-1,7
 57 20 57 20 60 38 c 2,8,-1
 162 681 l 2,9,10
 165 696 165 696 173.5 703.5 c 128,-1,11
 182 711 182 711 196 711 c 0,12,13
 211 711 211 711 218 702 c 128,-1,14
 225 693 225 693 222 675 c 2,15,-1
 124 55 l 1,16,-1
 463 55 l 1,17,-1
 562 681 l 2,18,19
 565 696 565 696 573.5 703.5 c 128,-1,20
 582 711 582 711 597 711 c 256,21,22
 612 711 612 711 618.5 702 c 128,-1,23
 625 693 625 693 622 675 c 2,24,-1
 524 55 l 1,25,-1
 863 55 l 1,26,-1
 962 681 l 2,27,28
 965 696 965 696 973.5 703.5 c 128,-1,29
 982 711 982 711 997 711 c 256,30,31
 1012 711 1012 711 1018.5 702.5 c 128,-1,32
 1025 694 1025 694 1023 676 c 2,33,-1
 922 40 l 1,34,-1
 905 55 l 1,35,-1
 987 55 l 2,36,37
 1004 55 1004 55 1012.5 45.5 c 128,-1,38
 1021 36 1021 36 1018 18 c 2,39,-1
 994 -131 l 2,40,41
 992 -145 992 -145 983.5 -152.5 c 128,-1,42
 975 -160 975 -160 961 -160 c 0,0,1
EndSplineSet
EndChar

StartChar: uni040F
Encoding: 1039 1039 568
Width: 751
GlyphClass: 1
Flags: W
LayerCount: 2
Fore
SplineSet
312 -160 m 0,0,1
 299 -160 299 -160 293 -150.5 c 128,-1,2
 287 -141 287 -141 289 -126 c 2,3,-1
 309 0 l 1,4,-1
 90 0 l 2,5,6
 73 0 73 0 64.5 10 c 128,-1,7
 56 20 56 20 59 38 c 2,8,-1
 161 681 l 2,9,10
 164 696 164 696 172.5 703.5 c 128,-1,11
 181 711 181 711 196 711 c 256,12,13
 211 711 211 711 218 702 c 128,-1,14
 225 693 225 693 223 675 c 2,15,-1
 124 55 l 1,16,-1
 568 55 l 1,17,-1
 667 681 l 2,18,19
 670 696 670 696 678.5 703.5 c 128,-1,20
 687 711 687 711 701 711 c 0,21,22
 716 711 716 711 723 702 c 128,-1,23
 730 693 730 693 727 675 c 2,24,-1
 625 32 l 2,25,26
 623 16 623 16 613 8 c 128,-1,27
 603 0 603 0 588 0 c 2,28,-1
 366 0 l 1,29,-1
 344 -131 l 2,30,31
 343 -145 343 -145 334.5 -152.5 c 128,-1,32
 326 -160 326 -160 312 -160 c 0,0,1
EndSplineSet
EndChar

StartChar: uni042C
Encoding: 1068 1068 569
Width: 654
GlyphClass: 1
Flags: W
LayerCount: 2
Fore
SplineSet
91 0 m 2,0,1
 73 0 73 0 65 10 c 128,-1,2
 57 20 57 20 59 38 c 2,3,-1
 161 680 l 2,4,5
 164 695 164 695 172.5 703 c 128,-1,6
 181 711 181 711 196 711 c 256,7,8
 211 711 211 711 217.5 701 c 128,-1,9
 224 691 224 691 222 674 c 2,10,-1
 176 386 l 1,11,-1
 382 386 l 2,12,13
 454 386 454 386 501 364.5 c 128,-1,14
 548 343 548 343 572.5 304 c 128,-1,15
 597 265 597 265 597 213 c 0,16,17
 597 107 597 107 533.5 53.5 c 128,-1,18
 470 0 470 0 348 0 c 2,19,-1
 91 0 l 2,0,1
123 53 m 1,20,-1
 352 53 l 2,21,22
 443 53 443 53 488.5 92.5 c 128,-1,23
 534 132 534 132 534 210 c 0,24,25
 534 271 534 271 494.5 302 c 128,-1,26
 455 333 455 333 378 333 c 2,27,-1
 168 333 l 1,28,-1
 123 53 l 1,20,-1
EndSplineSet
EndChar

StartChar: uni042B
Encoding: 1067 1067 570
Width: 833
GlyphClass: 2
Flags: W
AnchorPoint: "Anchor-0" 488 705 basechar 0
LayerCount: 2
Fore
SplineSet
91 0 m 2,0,1
 73 0 73 0 65 10 c 128,-1,2
 57 20 57 20 59 38 c 2,3,-1
 161 680 l 2,4,5
 164 695 164 695 172.5 703 c 128,-1,6
 181 711 181 711 196 711 c 256,7,8
 211 711 211 711 217.5 701 c 128,-1,9
 224 691 224 691 222 674 c 2,10,-1
 176 386 l 1,11,-1
 355 386 l 2,12,13
 426 386 426 386 473.5 364.5 c 128,-1,14
 521 343 521 343 545 304 c 128,-1,15
 569 265 569 265 569 213 c 0,16,17
 569 107 569 107 505.5 53.5 c 128,-1,18
 442 0 442 0 321 0 c 2,19,-1
 91 0 l 2,0,1
123 53 m 1,20,-1
 324 53 l 2,21,22
 415 53 415 53 461 92.5 c 128,-1,23
 507 132 507 132 507 210 c 0,24,25
 507 271 507 271 467 302 c 128,-1,26
 427 333 427 333 350 333 c 2,27,-1
 168 333 l 1,28,-1
 123 53 l 1,20,-1
671 -6 m 0,29,30
 656 -6 656 -6 649 3 c 128,-1,31
 642 12 642 12 645 30 c 2,32,-1
 748 681 l 2,33,34
 751 696 751 696 759.5 703.5 c 128,-1,35
 768 711 768 711 783 711 c 256,36,37
 798 711 798 711 805 702 c 128,-1,38
 812 693 812 693 809 675 c 2,39,-1
 706 24 l 2,40,41
 704 10 704 10 695.5 2 c 128,-1,42
 687 -6 687 -6 671 -6 c 0,29,30
EndSplineSet
EndChar

StartChar: uni042A
Encoding: 1066 1066 571
Width: 783
GlyphClass: 1
Flags: W
LayerCount: 2
Fore
SplineSet
220 0 m 2,0,1
 202 0 202 0 193.5 10 c 128,-1,2
 185 20 185 20 188 38 c 2,3,-1
 286 650 l 1,4,-1
 100 650 l 2,5,6
 85 650 85 650 77 657.5 c 128,-1,7
 69 665 69 665 71 678 c 0,8,9
 74 691 74 691 81.5 698 c 128,-1,10
 89 705 89 705 104 705 c 2,11,-1
 318 705 l 2,12,13
 336 705 336 705 344 694.5 c 128,-1,14
 352 684 352 684 349 666 c 2,15,-1
 305 386 l 1,16,-1
 510 386 l 2,17,18
 581 386 581 386 628.5 364.5 c 128,-1,19
 676 343 676 343 700 304 c 128,-1,20
 724 265 724 265 724 213 c 0,21,22
 724 107 724 107 660.5 53.5 c 128,-1,23
 597 0 597 0 476 0 c 2,24,-1
 220 0 l 2,0,1
252 53 m 1,25,-1
 480 53 l 2,26,27
 571 53 571 53 616.5 92.5 c 128,-1,28
 662 132 662 132 662 210 c 0,29,30
 662 271 662 271 622 302 c 128,-1,31
 582 333 582 333 505 333 c 2,32,-1
 297 333 l 1,33,-1
 252 53 l 1,25,-1
EndSplineSet
EndChar

StartChar: uni0409
Encoding: 1033 1033 572
Width: 1128
GlyphClass: 1
Flags: W
LayerCount: 2
Fore
SplineSet
565 0 m 2,0,1
 546 0 546 0 538 10 c 128,-1,2
 530 20 530 20 532 38 c 2,3,-1
 629 650 l 1,4,-1
 314 650 l 1,5,-1
 284 460 l 2,6,7
 266 349 266 349 242 271.5 c 128,-1,8
 218 194 218 194 187.5 141.5 c 128,-1,9
 157 89 157 89 118 54.5 c 128,-1,10
 79 20 79 20 31 -4 c 0,11,12
 22 -9 22 -9 14 -9 c 128,-1,13
 6 -9 6 -9 -0.5 -4.5 c 128,-1,14
 -7 0 -7 0 -10 8 c 0,15,16
 -15 21 -15 21 -10.5 31 c 128,-1,17
 -6 41 -6 41 8 48 c 0,18,19
 44 66 44 66 76.5 94 c 128,-1,20
 109 122 109 122 137 168.5 c 128,-1,21
 165 215 165 215 188 289.5 c 128,-1,22
 211 364 211 364 228 475 c 2,23,-1
 259 673 l 2,24,25
 262 689 262 689 271.5 697 c 128,-1,26
 281 705 281 705 297 705 c 2,27,-1
 662 705 l 2,28,29
 680 705 680 705 688 695.5 c 128,-1,30
 696 686 696 686 694 667 c 2,31,-1
 649 386 l 1,32,-1
 856 386 l 2,33,34
 927 386 927 386 974.5 364.5 c 128,-1,35
 1022 343 1022 343 1046 304 c 128,-1,36
 1070 265 1070 265 1070 213 c 0,37,38
 1070 107 1070 107 1006.5 53.5 c 128,-1,39
 943 0 943 0 822 0 c 2,40,-1
 565 0 l 2,0,1
597 53 m 1,41,-1
 825 53 l 2,42,43
 916 53 916 53 961.5 92.5 c 128,-1,44
 1007 132 1007 132 1007 210 c 0,45,46
 1007 271 1007 271 967.5 302 c 128,-1,47
 928 333 928 333 851 333 c 2,48,-1
 640 333 l 1,49,-1
 597 53 l 1,41,-1
EndSplineSet
EndChar

StartChar: uni040A
Encoding: 1034 1034 573
Width: 1165
GlyphClass: 1
Flags: W
LayerCount: 2
Fore
SplineSet
83 -6 m 0,0,1
 68 -6 68 -6 61.5 3 c 128,-1,2
 55 12 55 12 58 30 c 2,3,-1
 162 680 l 2,4,5
 165 696 165 696 173.5 703.5 c 128,-1,6
 182 711 182 711 197 711 c 256,7,8
 212 711 212 711 218.5 702 c 128,-1,9
 225 693 225 693 223 675 c 2,10,-1
 176 385 l 1,11,-1
 625 385 l 1,12,-1
 672 680 l 2,13,14
 675 696 675 696 683.5 703.5 c 128,-1,15
 692 711 692 711 707 711 c 256,16,17
 722 711 722 711 728.5 702 c 128,-1,18
 735 693 735 693 733 675 c 2,19,-1
 687 386 l 1,20,-1
 893 386 l 2,21,22
 964 386 964 386 1011.5 364.5 c 128,-1,23
 1059 343 1059 343 1083 304 c 128,-1,24
 1107 265 1107 265 1107 213 c 0,25,26
 1107 107 1107 107 1043.5 53.5 c 128,-1,27
 980 0 980 0 859 0 c 2,28,-1
 601 0 l 2,29,30
 583 0 583 0 575 10 c 128,-1,31
 567 20 567 20 569 38 c 2,32,-1
 616 330 l 1,33,-1
 168 330 l 1,34,-1
 119 25 l 2,35,36
 118 10 118 10 108.5 2 c 128,-1,37
 99 -6 99 -6 83 -6 c 0,0,1
634 53 m 1,38,-1
 862 53 l 2,39,40
 953 53 953 53 999 92.5 c 128,-1,41
 1045 132 1045 132 1045 210 c 0,42,43
 1045 271 1045 271 1005 302 c 128,-1,44
 965 333 965 333 888 333 c 2,45,-1
 678 333 l 1,46,-1
 634 53 l 1,38,-1
EndSplineSet
EndChar

StartChar: uni0404
Encoding: 1028 1028 575
Width: 670
GlyphClass: 2
Flags: W
AnchorPoint: "Anchor-2" 344 0 basechar 0
AnchorPoint: "Anchor-0" 457 705 basechar 0
LayerCount: 2
Fore
SplineSet
377 -8 m 0,0,1
 289 -8 289 -8 222 25.5 c 128,-1,2
 155 59 155 59 117.5 128.5 c 128,-1,3
 80 198 80 198 80 304 c 0,4,5
 80 392 80 392 105 466.5 c 128,-1,6
 130 541 130 541 176.5 596 c 128,-1,7
 223 651 223 651 289 682 c 128,-1,8
 355 713 355 713 437 713 c 0,9,10
 502 713 502 713 557.5 693.5 c 128,-1,11
 613 674 613 674 655 633 c 0,12,13
 664 625 664 625 666.5 615.5 c 128,-1,14
 669 606 669 606 665.5 597.5 c 128,-1,15
 662 589 662 589 654.5 583.5 c 128,-1,16
 647 578 647 578 637.5 578.5 c 128,-1,17
 628 579 628 579 617 588 c 0,18,19
 580 624 580 624 534.5 640 c 128,-1,20
 489 656 489 656 434 656 c 0,21,22
 355 656 355 656 294.5 619.5 c 128,-1,23
 234 583 234 583 197 518 c 128,-1,24
 160 453 160 453 150 368 c 1,25,-1
 139 385 l 1,26,-1
 493 385 l 2,27,28
 509 385 509 385 517.5 378.5 c 128,-1,29
 526 372 526 372 524 360 c 0,30,31
 523 346 523 346 514 338.5 c 128,-1,32
 505 331 505 331 490 331 c 2,33,-1
 137 331 l 1,34,-1
 147 345 l 1,35,36
 143 253 143 253 164 187 c 128,-1,37
 185 121 185 121 239 85 c 128,-1,38
 293 49 293 49 383 49 c 0,39,40
 429 49 429 49 473 64 c 128,-1,41
 517 79 517 79 562 117 c 0,42,43
 573 126 573 126 582.5 126 c 128,-1,44
 592 126 592 126 598.5 120.5 c 128,-1,45
 605 115 605 115 607.5 106.5 c 128,-1,46
 610 98 610 98 607 88.5 c 128,-1,47
 604 79 604 79 594 71 c 0,48,49
 550 31 550 31 495 11.5 c 128,-1,50
 440 -8 440 -8 377 -8 c 0,0,1
EndSplineSet
EndChar

StartChar: uni042D
Encoding: 1069 1069 576
Width: 670
GlyphClass: 2
Flags: W
AnchorPoint: "Anchor-2" 256 0 basechar 0
AnchorPoint: "Anchor-0" 368 705 basechar 0
LayerCount: 2
Fore
SplineSet
267 -8 m 0,0,1
 203 -8 203 -8 148 11.5 c 128,-1,2
 93 31 93 31 50 72 c 0,3,4
 41 80 41 80 38.5 89.5 c 128,-1,5
 36 99 36 99 39.5 107.5 c 128,-1,6
 43 116 43 116 50 121.5 c 128,-1,7
 57 127 57 127 67 126.5 c 128,-1,8
 77 126 77 126 87 117 c 0,9,10
 125 82 125 82 170 65.5 c 128,-1,11
 215 49 215 49 270 49 c 0,12,13
 351 49 351 49 412 86.5 c 128,-1,14
 473 124 473 124 510.5 190 c 128,-1,15
 548 256 548 256 557 342 c 1,16,-1
 563 331 l 1,17,-1
 213 331 l 2,18,19
 197 331 197 331 189 337 c 128,-1,20
 181 343 181 343 182 356 c 0,21,22
 184 371 184 371 192.5 378 c 128,-1,23
 201 385 201 385 216 385 c 2,24,-1
 566 385 l 1,25,-1
 558 373 l 1,26,27
 562 458 562 458 541.5 521.5 c 128,-1,28
 521 585 521 585 470 620.5 c 128,-1,29
 419 656 419 656 331 656 c 0,30,31
 282 656 282 656 236 641.5 c 128,-1,32
 190 627 190 627 143 588 c 0,33,34
 133 580 133 580 123 580 c 128,-1,35
 113 580 113 580 106.5 586 c 128,-1,36
 100 592 100 592 97.5 600.5 c 128,-1,37
 95 609 95 609 98 618 c 128,-1,38
 101 627 101 627 111 635 c 0,39,40
 159 675 159 675 214.5 694 c 128,-1,41
 270 713 270 713 336 713 c 0,42,43
 423 713 423 713 487.5 680 c 128,-1,44
 552 647 552 647 588 577 c 128,-1,45
 624 507 624 507 624 399 c 0,46,47
 624 312 624 312 599.5 238 c 128,-1,48
 575 164 575 164 528.5 109 c 128,-1,49
 482 54 482 54 416 23 c 128,-1,50
 350 -8 350 -8 267 -8 c 0,0,1
EndSplineSet
EndChar

StartChar: uni040B
Encoding: 1035 1035 580
Width: 841
GlyphClass: 1
Flags: W
LayerCount: 2
Fore
SplineSet
257 -6 m 0,0,1
 243 -6 243 -6 236 3 c 128,-1,2
 229 12 229 12 232 30 c 2,3,-1
 331 650 l 1,4,-1
 96 650 l 2,5,6
 82 650 82 650 74 656.5 c 128,-1,7
 66 663 66 663 66 674 c 0,8,9
 66 689 66 689 75 697 c 128,-1,10
 84 705 84 705 99 705 c 2,11,-1
 636 705 l 2,12,13
 651 705 651 705 658.5 699.5 c 128,-1,14
 666 694 666 694 666 683 c 0,15,16
 666 667 666 667 657 658.5 c 128,-1,17
 648 650 648 650 633 650 c 2,18,-1
 392 650 l 1,19,-1
 352 393 l 1,20,21
 389 412 389 412 439 422 c 128,-1,22
 489 432 489 432 538 432 c 0,23,24
 625 432 625 432 681 399 c 128,-1,25
 737 366 737 366 758.5 302.5 c 128,-1,26
 780 239 780 239 765 145 c 2,27,-1
 745 24 l 2,28,29
 743 9 743 9 734 1.5 c 128,-1,30
 725 -6 725 -6 710 -6 c 256,31,32
 695 -6 695 -6 689 3.5 c 128,-1,33
 683 13 683 13 685 30 c 2,34,-1
 703 140 l 2,35,36
 723 262 723 262 680.5 318.5 c 128,-1,37
 638 375 638 375 533 375 c 0,38,39
 484 375 484 375 434.5 365.5 c 128,-1,40
 385 356 385 356 342 332 c 1,41,-1
 293 24 l 2,42,43
 291 10 291 10 282 2 c 128,-1,44
 273 -6 273 -6 257 -6 c 0,0,1
EndSplineSet
EndChar

StartChar: uni042E
Encoding: 1070 1070 581
Width: 998
GlyphClass: 1
Flags: W
AnchorPoint: "Anchor-0" 552 680 basechar 0
LayerCount: 2
Fore
SplineSet
602 -8 m 0,0,1
 503 -8 503 -8 438 34.5 c 128,-1,2
 373 77 373 77 343 153 c 128,-1,3
 313 229 313 229 320 330 c 1,4,-1
 168 330 l 1,5,-1
 119 25 l 2,6,7
 118 10 118 10 109 2 c 128,-1,8
 100 -6 100 -6 84 -6 c 0,9,10
 69 -6 69 -6 62.5 3.5 c 128,-1,11
 56 13 56 13 59 31 c 2,12,-1
 162 680 l 2,13,14
 165 696 165 696 173 703.5 c 128,-1,15
 181 711 181 711 196 711 c 256,16,17
 211 711 211 711 218 701.5 c 128,-1,18
 225 692 225 692 222 674 c 2,19,-1
 176 385 l 1,20,-1
 326 385 l 1,21,22
 340 480 340 480 383.5 554.5 c 128,-1,23
 427 629 427 629 499.5 671 c 128,-1,24
 572 713 572 713 671 713 c 0,25,26
 757 713 757 713 821 679 c 128,-1,27
 885 645 885 645 919.5 578 c 128,-1,28
 954 511 954 511 954 414 c 0,29,30
 954 324 954 324 931 247.5 c 128,-1,31
 908 171 908 171 863.5 113.5 c 128,-1,32
 819 56 819 56 753.5 24 c 128,-1,33
 688 -8 688 -8 602 -8 c 0,0,1
604 48 m 0,34,35
 697 48 697 48 760 96 c 128,-1,36
 823 144 823 144 856 227 c 128,-1,37
 889 310 889 310 889 413 c 0,38,39
 889 537 889 537 830.5 597 c 128,-1,40
 772 657 772 657 668 657 c 0,41,42
 576 657 576 657 513 609 c 128,-1,43
 450 561 450 561 417 478.5 c 128,-1,44
 384 396 384 396 384 292 c 0,45,46
 384 168 384 168 442.5 108 c 128,-1,47
 501 48 501 48 604 48 c 0,34,35
EndSplineSet
EndChar

StartChar: uni042F
Encoding: 1071 1071 582
Width: 662
GlyphClass: 1
Flags: W
AnchorPoint: "Anchor-0" 405 692 basechar 0
LayerCount: 2
Fore
SplineSet
499 -6 m 0,0,1
 484 -6 484 -6 477.5 3.5 c 128,-1,2
 471 13 471 13 474 30 c 2,3,-1
 518 305 l 1,4,-1
 385 305 l 2,5,6
 350 305 350 305 323.5 298.5 c 128,-1,7
 297 292 297 292 275.5 275 c 128,-1,8
 254 258 254 258 232 226 c 2,9,-1
 82 8 l 2,10,11
 75 -2 75 -2 66 -5 c 128,-1,12
 57 -8 57 -8 48 -5 c 128,-1,13
 39 -2 39 -2 33.5 4.5 c 128,-1,14
 28 11 28 11 27 20.5 c 128,-1,15
 26 30 26 30 33 40 c 2,16,-1
 170 236 l 2,17,18
 201 282 201 282 228 301.5 c 128,-1,19
 255 321 255 321 294 321 c 2,20,-1
 317 321 l 1,21,-1
 331 309 l 1,22,23
 221 310 221 310 166 360.5 c 128,-1,24
 111 411 111 411 111 496 c 0,25,26
 111 566 111 566 144 612.5 c 128,-1,27
 177 659 177 659 234 682 c 128,-1,28
 291 705 291 705 363 705 c 2,29,-1
 605 705 l 2,30,31
 623 705 623 705 631.5 695.5 c 128,-1,32
 640 686 640 686 637 667 c 2,33,-1
 535 23 l 2,34,35
 533 8 533 8 524 1 c 128,-1,36
 515 -6 515 -6 499 -6 c 0,0,1
339 357 m 2,37,-1
 526 357 l 1,38,-1
 573 652 l 1,39,-1
 355 652 l 2,40,41
 270 652 270 652 221.5 611 c 128,-1,42
 173 570 173 570 173 494 c 0,43,44
 173 426 173 426 213 391.5 c 128,-1,45
 253 357 253 357 339 357 c 2,37,-1
EndSplineSet
EndChar

StartChar: uni0402
Encoding: 1026 1026 583
Width: 829
GlyphClass: 1
Flags: W
LayerCount: 2
Fore
SplineSet
513 -188 m 0,0,1
 487 -188 487 -188 462 -184 c 128,-1,2
 437 -180 437 -180 419 -174 c 0,3,4
 409 -171 409 -171 404 -164 c 128,-1,5
 399 -157 399 -157 399.5 -149 c 128,-1,6
 400 -141 400 -141 403.5 -134 c 128,-1,7
 407 -127 407 -127 415 -124 c 128,-1,8
 423 -121 423 -121 434 -124 c 0,9,10
 450 -129 450 -129 468 -132 c 128,-1,11
 486 -135 486 -135 508 -135 c 0,12,13
 575 -135 575 -135 617.5 -90 c 128,-1,14
 660 -45 660 -45 675 45 c 2,15,-1
 691 139 l 2,16,17
 711 260 711 260 667.5 317.5 c 128,-1,18
 624 375 624 375 522 375 c 0,19,20
 474 375 474 375 429 365.5 c 128,-1,21
 384 356 384 356 342 332 c 1,22,-1
 293 24 l 2,23,24
 291 10 291 10 282 2 c 128,-1,25
 273 -6 273 -6 257 -6 c 0,26,27
 243 -6 243 -6 236 3.5 c 128,-1,28
 229 13 229 13 232 30 c 2,29,-1
 331 650 l 1,30,-1
 96 650 l 2,31,32
 82 650 82 650 74 656.5 c 128,-1,33
 66 663 66 663 66 674 c 0,34,35
 66 689 66 689 75 697 c 128,-1,36
 84 705 84 705 99 705 c 2,37,-1
 636 705 l 2,38,39
 651 705 651 705 658.5 699.5 c 128,-1,40
 666 694 666 694 666 683 c 0,41,42
 666 667 666 667 657 658.5 c 128,-1,43
 648 650 648 650 633 650 c 2,44,-1
 392 650 l 1,45,-1
 352 393 l 1,46,47
 388 412 388 412 433 422 c 128,-1,48
 478 432 478 432 528 432 c 0,49,50
 591 432 591 432 638.5 413.5 c 128,-1,51
 686 395 686 395 715 359 c 128,-1,52
 744 323 744 323 754 269 c 128,-1,53
 764 215 764 215 752 145 c 2,54,-1
 737 47 l 2,55,56
 725 -30 725 -30 696 -82.5 c 128,-1,57
 667 -135 667 -135 621 -161.5 c 128,-1,58
 575 -188 575 -188 513 -188 c 0,0,1
EndSplineSet
EndChar

StartChar: uni0462
Encoding: 1122 1122 584
Width: 715
GlyphClass: 1
Flags: W
LayerCount: 2
Fore
SplineSet
152 0 m 2,0,1
 134 0 134 0 125.5 9.5 c 128,-1,2
 117 19 117 19 120 37 c 2,3,-1
 200 542 l 1,4,-1
 53 542 l 2,5,6
 39 542 39 542 31.5 549 c 128,-1,7
 24 556 24 556 26 568 c 0,8,9
 29 594 29 594 56 594 c 2,10,-1
 223 594 l 1,11,-1
 204 567 l 1,12,-1
 222 681 l 2,13,14
 225 696 225 696 234 703.5 c 128,-1,15
 243 711 243 711 257 711 c 0,16,17
 272 711 272 711 278.5 701.5 c 128,-1,18
 285 692 285 692 282 675 c 2,19,-1
 266 567 l 1,20,-1
 257 594 l 1,21,-1
 484 594 l 2,22,23
 499 594 499 594 506.5 587.5 c 128,-1,24
 514 581 514 581 512 568 c 0,25,26
 507 542 507 542 481 542 c 2,27,-1
 262 542 l 1,28,-1
 237 386 l 1,29,-1
 443 386 l 2,30,31
 550 386 550 386 603.5 339 c 128,-1,32
 657 292 657 292 657 213 c 0,33,34
 657 107 657 107 594 53.5 c 128,-1,35
 531 0 531 0 409 0 c 2,36,-1
 152 0 l 2,0,1
184 53 m 1,37,-1
 413 53 l 2,38,39
 504 53 504 53 549.5 92.5 c 128,-1,40
 595 132 595 132 595 210 c 0,41,42
 595 271 595 271 555.5 302 c 128,-1,43
 516 333 516 333 439 333 c 2,44,-1
 229 333 l 1,45,-1
 184 53 l 1,37,-1
EndSplineSet
EndChar

StartChar: uni046A
Encoding: 1130 1130 585
Width: 931
GlyphClass: 1
Flags: W
LayerCount: 2
Fore
SplineSet
427 -6 m 0,0,1
 411 -6 411 -6 405 3 c 128,-1,2
 399 12 399 12 400 28 c 2,3,-1
 448 330 l 1,4,-1
 363 330 l 2,5,6
 305 330 305 330 261.5 301.5 c 128,-1,7
 218 273 218 273 176 208 c 2,8,-1
 51 12 l 2,9,10
 44 1 44 1 34.5 -3.5 c 128,-1,11
 25 -8 25 -8 16 -6 c 128,-1,12
 7 -4 7 -4 0.5 2.5 c 128,-1,13
 -6 9 -6 9 -6.5 19 c 128,-1,14
 -7 29 -7 29 2 41 c 2,15,-1
 130 243 l 2,16,17
 162 291 162 291 196 322 c 128,-1,18
 230 353 230 353 270.5 368.5 c 128,-1,19
 311 384 311 384 359 384 c 2,20,-1
 442 384 l 1,21,-1
 433 367 l 1,22,-1
 228 658 l 2,23,24
 220 672 220 672 220 682 c 128,-1,25
 220 692 220 692 228.5 698.5 c 128,-1,26
 237 705 237 705 253 705 c 2,27,-1
 814 705 l 2,28,29
 831 705 831 705 839.5 698.5 c 128,-1,30
 848 692 848 692 846.5 681 c 128,-1,31
 845 670 845 670 833 658 c 2,32,-1
 537 367 l 1,33,-1
 530 384 l 1,34,-1
 610 384 l 2,35,36
 659 384 659 384 695.5 366 c 128,-1,37
 732 348 732 348 758 316 c 128,-1,38
 784 284 784 284 798 242 c 2,39,-1
 867 34 l 2,40,41
 872 22 872 22 868.5 13 c 128,-1,42
 865 4 865 4 857 -1 c 128,-1,43
 849 -6 849 -6 839.5 -6 c 128,-1,44
 830 -6 830 -6 822 0 c 128,-1,45
 814 6 814 6 810 18 c 2,46,-1
 748 208 l 2,47,48
 727 274 727 274 690.5 302 c 128,-1,49
 654 330 654 330 597 330 c 2,50,-1
 510 330 l 1,51,-1
 461 23 l 2,52,53
 459 8 459 8 450.5 1 c 128,-1,54
 442 -6 442 -6 427 -6 c 0,0,1
485 387 m 1,55,-1
 728 628 l 1,56,-1
 781 662 l 1,57,-1
 369 655 l 1,58,-1
 276 676 l 1,59,-1
 445 443 l 1,60,-1
 485 387 l 1,55,-1
EndSplineSet
EndChar

StartChar: uni0474
Encoding: 1140 1140 587
Width: 731
GlyphClass: 1
Flags: W
LayerCount: 2
Fore
SplineSet
299 -6 m 256,0,1
 284 -6 284 -6 275 1.5 c 128,-1,2
 266 9 266 9 262 25 c 2,3,-1
 87 668 l 2,4,5
 84 680 84 680 86.5 688.5 c 128,-1,6
 89 697 89 697 96.5 701.5 c 128,-1,7
 104 706 104 706 114 706 c 0,8,9
 127 706 127 706 134.5 699.5 c 128,-1,10
 142 693 142 693 146 678 c 2,11,-1
 318 45 l 1,12,-1
 289 45 l 1,13,-1
 566 528 l 2,14,15
 603 593 603 593 636 632.5 c 128,-1,16
 669 672 669 672 708 691.5 c 128,-1,17
 747 711 747 711 802 713 c 0,18,19
 815 713 815 713 822 708.5 c 128,-1,20
 829 704 829 704 831.5 696 c 128,-1,21
 834 688 834 688 832.5 680.5 c 128,-1,22
 831 673 831 673 825 667 c 128,-1,23
 819 661 819 661 809 660 c 0,24,25
 771 659 771 659 741 644.5 c 128,-1,26
 711 630 711 630 684 599 c 128,-1,27
 657 568 657 568 627 516 c 2,28,-1
 340 19 l 2,29,30
 332 6 332 6 323 0 c 128,-1,31
 314 -6 314 -6 299 -6 c 256,0,1
EndSplineSet
EndChar

StartChar: uni0496
Encoding: 1174 1174 588
Width: 986
GlyphClass: 1
Flags: W
LayerCount: 2
Fore
SplineSet
898 -159 m 0,0,1
 886 -159 886 -159 879 -151 c 128,-1,2
 872 -143 872 -143 874 -126 c 2,3,-1
 897 23 l 1,4,-1
 909 0 l 1,5,-1
 857 0 l 2,6,7
 848 0 848 0 839 4.5 c 128,-1,8
 830 9 830 9 825 21 c 2,9,-1
 764 209 l 2,10,11
 743 274 743 274 706.5 302 c 128,-1,12
 670 330 670 330 613 330 c 2,13,-1
 518 330 l 1,14,-1
 469 23 l 2,15,16
 467 9 467 9 458.5 1.5 c 128,-1,17
 450 -6 450 -6 435 -6 c 256,18,19
 420 -6 420 -6 413.5 3 c 128,-1,20
 407 12 407 12 409 28 c 2,21,-1
 457 330 l 1,22,-1
 363 330 l 2,23,24
 305 330 305 330 261.5 302 c 128,-1,25
 218 274 218 274 176 208 c 2,26,-1
 51 12 l 2,27,28
 44 1 44 1 34.5 -3.5 c 128,-1,29
 25 -8 25 -8 16 -6 c 128,-1,30
 7 -4 7 -4 0.5 2.5 c 128,-1,31
 -6 9 -6 9 -6.5 19 c 128,-1,32
 -7 29 -7 29 2 41 c 2,33,-1
 130 242 l 2,34,35
 171 307 171 307 219 341.5 c 128,-1,36
 267 376 267 376 326 382 c 1,37,-1
 306 360 l 1,38,-1
 146 670 l 2,39,40
 140 681 140 681 142 690 c 128,-1,41
 144 699 144 699 151 704.5 c 128,-1,42
 158 710 158 710 167 711 c 128,-1,43
 176 712 176 712 184.5 707.5 c 128,-1,44
 193 703 193 703 199 692 c 2,45,-1
 365 369 l 1,46,-1
 345 384 l 1,47,-1
 466 384 l 1,48,-1
 513 682 l 2,49,50
 516 697 516 697 524.5 704 c 128,-1,51
 533 711 533 711 547 711 c 0,52,53
 562 711 562 711 568.5 702 c 128,-1,54
 575 693 575 693 573 677 c 2,55,-1
 526 384 l 1,56,-1
 635 384 l 1,57,-1
 617 369 l 1,58,-1
 889 696 l 2,59,60
 897 706 897 706 906.5 709 c 128,-1,61
 916 712 916 712 925 709 c 128,-1,62
 934 706 934 706 939.5 699.5 c 128,-1,63
 945 693 945 693 944 683.5 c 128,-1,64
 943 674 943 674 933 662 c 2,65,-1
 681 360 l 1,66,-1
 653 382 l 1,67,68
 691 378 691 378 722.5 361 c 128,-1,69
 754 344 754 344 777 314 c 128,-1,70
 800 284 800 284 814 242 c 2,71,-1
 885 31 l 1,72,-1
 859 54 l 1,73,-1
 922 54 l 2,74,75
 939 54 939 54 948 45 c 128,-1,76
 957 36 957 36 954 18 c 2,77,-1
 930 -131 l 2,78,79
 928 -145 928 -145 920 -152 c 128,-1,80
 912 -159 912 -159 898 -159 c 0,0,1
EndSplineSet
EndChar

StartChar: uni0498
Encoding: 1176 1176 589
Width: 643
GlyphClass: 2
Flags: W
AnchorPoint: "Anchor-2" 289 0 basechar 0
AnchorPoint: "Anchor-0" 390 705 basechar 0
LayerCount: 2
Fore
SplineSet
264 -160 m 0,0,1
 251 -160 251 -160 245 -151 c 128,-1,2
 239 -142 239 -142 241 -127 c 2,3,-1
 264 24 l 1,4,-1
 321 24 l 1,5,-1
 296 -132 l 2,6,7
 295 -146 295 -146 286.5 -153 c 128,-1,8
 278 -160 278 -160 264 -160 c 0,0,1
304 -8 m 0,9,10
 223 -8 223 -8 159 10.5 c 128,-1,11
 95 29 95 29 43 70 c 0,12,13
 34 77 34 77 31 86 c 128,-1,14
 28 95 28 95 30.5 104 c 128,-1,15
 33 113 33 113 39 118.5 c 128,-1,16
 45 124 45 124 54.5 124.5 c 128,-1,17
 64 125 64 125 75 117 c 0,18,19
 109 91 109 91 145 76 c 128,-1,20
 181 61 181 61 221.5 54.5 c 128,-1,21
 262 48 262 48 307 48 c 0,22,23
 360 48 360 48 405 63 c 128,-1,24
 450 78 450 78 477.5 112.5 c 128,-1,25
 505 147 505 147 505 207 c 0,26,27
 505 268 505 268 466 299 c 128,-1,28
 427 330 427 330 352 330 c 2,29,-1
 209 330 l 2,30,31
 194 330 194 330 186 336.5 c 128,-1,32
 178 343 178 343 179 355 c 0,33,34
 181 369 181 369 189.5 376 c 128,-1,35
 198 383 198 383 212 383 c 2,36,-1
 360 383 l 2,37,38
 443 383 443 383 492.5 422.5 c 128,-1,39
 542 462 542 462 542 537 c 0,40,41
 542 580 542 580 519.5 606 c 128,-1,42
 497 632 497 632 460 644.5 c 128,-1,43
 423 657 423 657 376 657 c 0,44,45
 318 657 318 657 262.5 641 c 128,-1,46
 207 625 207 625 159 591 c 0,47,48
 147 583 147 583 137 583 c 128,-1,49
 127 583 127 583 121 589 c 128,-1,50
 115 595 115 595 113 603.5 c 128,-1,51
 111 612 111 612 115 621 c 128,-1,52
 119 630 119 630 129 637 c 0,53,54
 183 674 183 674 248.5 693.5 c 128,-1,55
 314 713 314 713 379 713 c 0,56,57
 442 713 442 713 493 694.5 c 128,-1,58
 544 676 544 676 574 638 c 128,-1,59
 604 600 604 600 604 544 c 0,60,61
 604 462 604 462 555 411.5 c 128,-1,62
 506 361 506 361 424 350 c 1,63,-1
 424 364 l 1,64,65
 491 354 491 354 529.5 311.5 c 128,-1,66
 568 269 568 269 568 204 c 0,67,68
 568 129 568 129 532.5 82 c 128,-1,69
 497 35 497 35 437 13.5 c 128,-1,70
 377 -8 377 -8 304 -8 c 0,9,10
EndSplineSet
Substitution2: "'locl' Localized Forms in Cyrillic lookup 17 subtable" uni0498.loclCHU
Substitution2: "'locl' Localized Forms in Cyrillic lookup 16 subtable" uni0498.loclBSH
AlternateSubs2: "'aalt' Access All Alternates lookup 1 subtable" uni0498.loclBSH uni0498.loclCHU
EndChar

StartChar: uni049A
Encoding: 1178 1178 590
Width: 664
GlyphClass: 1
Flags: W
LayerCount: 2
Fore
SplineSet
575 -159 m 0,0,1
 563 -159 563 -159 556 -151 c 128,-1,2
 549 -143 549 -143 551 -126 c 2,3,-1
 574 23 l 1,4,-1
 588 0 l 1,5,-1
 535 0 l 2,6,7
 526 0 526 0 516.5 5 c 128,-1,8
 507 10 507 10 503 23 c 2,9,-1
 442 208 l 2,10,11
 421 274 421 274 384.5 302 c 128,-1,12
 348 330 348 330 291 330 c 2,13,-1
 168 330 l 1,14,-1
 119 27 l 2,15,16
 117 10 117 10 108.5 2 c 128,-1,17
 100 -6 100 -6 84 -6 c 0,18,19
 69 -6 69 -6 62 3 c 128,-1,20
 55 12 55 12 58 29 c 2,21,-1
 162 684 l 2,22,23
 165 699 165 699 173.5 705 c 128,-1,24
 182 711 182 711 197 711 c 256,25,26
 212 711 212 711 218.5 702 c 128,-1,27
 225 693 225 693 223 676 c 2,28,-1
 176 384 l 1,29,-1
 313 384 l 1,30,-1
 295 369 l 1,31,-1
 567 696 l 2,32,33
 575 706 575 706 584.5 709 c 128,-1,34
 594 712 594 712 603 709 c 128,-1,35
 612 706 612 706 617.5 699.5 c 128,-1,36
 623 693 623 693 622 683.5 c 128,-1,37
 621 674 621 674 611 662 c 2,38,-1
 360 360 l 1,39,-1
 331 382 l 1,40,41
 388 376 388 376 429.5 340.5 c 128,-1,42
 471 305 471 305 492 242 c 2,43,-1
 563 31 l 1,44,-1
 534 54 l 1,45,-1
 600 54 l 2,46,47
 617 54 617 54 625.5 45 c 128,-1,48
 634 36 634 36 631 18 c 2,49,-1
 607 -131 l 2,50,51
 605 -145 605 -145 597.5 -152 c 128,-1,52
 590 -159 590 -159 575 -159 c 0,0,1
EndSplineSet
EndChar

StartChar: uni049C
Encoding: 1180 1180 591
Width: 645
GlyphClass: 1
Flags: W
LayerCount: 2
Fore
SplineSet
84 -6 m 0,0,1
 69 -6 69 -6 62 3 c 128,-1,2
 55 12 55 12 58 29 c 2,3,-1
 162 682 l 2,4,5
 165 697 165 697 173.5 704 c 128,-1,6
 182 711 182 711 197 711 c 256,7,8
 212 711 212 711 218.5 702 c 128,-1,9
 225 693 225 693 223 676 c 2,10,-1
 176 384 l 1,11,-1
 252 384 l 1,12,-1
 275 536 l 2,13,14
 279 560 279 560 303 560 c 0,15,16
 315 560 315 560 320.5 552.5 c 128,-1,17
 326 545 326 545 324 532 c 2,18,-1
 300 384 l 1,19,-1
 331 384 l 1,20,-1
 315 371 l 1,21,-1
 586 697 l 2,22,23
 594 707 594 707 603.5 709.5 c 128,-1,24
 613 712 613 712 622 709.5 c 128,-1,25
 631 707 631 707 636.5 700.5 c 128,-1,26
 642 694 642 694 641 684 c 128,-1,27
 640 674 640 674 630 662 c 2,28,-1
 379 360 l 1,29,-1
 350 382 l 1,30,31
 389 378 389 378 420 361 c 128,-1,32
 451 344 451 344 474.5 314 c 128,-1,33
 498 284 498 284 512 242 c 2,34,-1
 582 34 l 2,35,36
 586 22 586 22 582.5 13 c 128,-1,37
 579 4 579 4 571.5 -1 c 128,-1,38
 564 -6 564 -6 554.5 -6 c 128,-1,39
 545 -6 545 -6 536.5 0 c 128,-1,40
 528 6 528 6 524 18 c 2,41,-1
 462 209 l 2,42,43
 441 275 441 275 404.5 302.5 c 128,-1,44
 368 330 368 330 311 330 c 2,45,-1
 283 330 l 1,46,-1
 293 339 l 1,47,-1
 268 179 l 2,48,49
 264 156 264 156 240 156 c 0,50,51
 215 156 215 156 220 183 c 2,52,-1
 243 330 l 1,53,-1
 167 330 l 1,54,-1
 118 23 l 2,55,56
 117 9 117 9 108.5 1.5 c 128,-1,57
 100 -6 100 -6 84 -6 c 0,0,1
EndSplineSet
EndChar

StartChar: uni049E
Encoding: 1182 1182 592
Width: 654
GlyphClass: 1
Flags: W
LayerCount: 2
Fore
SplineSet
120 -6 m 256,0,1
 105 -6 105 -6 98 3 c 128,-1,2
 91 12 91 12 94 29 c 2,3,-1
 176 544 l 1,4,-1
 59 544 l 2,5,6
 45 544 45 544 37.5 550.5 c 128,-1,7
 30 557 30 557 32 569 c 256,8,9
 34 581 34 581 41.5 587 c 128,-1,10
 49 593 49 593 62 593 c 2,11,-1
 192 593 l 1,12,-1
 179 568 l 1,13,-1
 197 682 l 2,14,15
 200 697 200 697 208.5 704 c 128,-1,16
 217 711 217 711 231 711 c 0,17,18
 246 711 246 711 253 702 c 128,-1,19
 260 693 260 693 258 676 c 2,20,-1
 241 567 l 1,21,-1
 235 593 l 1,22,-1
 355 593 l 2,23,24
 370 593 370 593 377.5 586.5 c 128,-1,25
 385 580 385 580 382 569 c 0,26,27
 381 557 381 557 373 550.5 c 128,-1,28
 365 544 365 544 352 544 c 2,29,-1
 237 544 l 1,30,-1
 211 384 l 1,31,-1
 340 384 l 1,32,-1
 322 369 l 1,33,-1
 593 696 l 2,34,35
 602 706 602 706 611.5 709 c 128,-1,36
 621 712 621 712 629.5 709.5 c 128,-1,37
 638 707 638 707 643.5 700 c 128,-1,38
 649 693 649 693 648 683.5 c 128,-1,39
 647 674 647 674 638 662 c 2,40,-1
 387 360 l 1,41,-1
 357 382 l 1,42,43
 395 378 395 378 427 361 c 128,-1,44
 459 344 459 344 482.5 314 c 128,-1,45
 506 284 506 284 519 242 c 2,46,-1
 589 34 l 2,47,48
 593 22 593 22 589.5 13 c 128,-1,49
 586 4 586 4 578.5 -1 c 128,-1,50
 571 -6 571 -6 561.5 -5.5 c 128,-1,51
 552 -5 552 -5 543.5 0.5 c 128,-1,52
 535 6 535 6 531 19 c 2,53,-1
 469 208 l 2,54,55
 448 274 448 274 411.5 302 c 128,-1,56
 375 330 375 330 318 330 c 2,57,-1
 203 330 l 1,58,-1
 154 23 l 2,59,60
 152 9 152 9 143.5 1.5 c 128,-1,61
 135 -6 135 -6 120 -6 c 256,0,1
EndSplineSet
EndChar

StartChar: uni04A0
Encoding: 1184 1184 593
Width: 754
GlyphClass: 1
Flags: W
LayerCount: 2
Fore
SplineSet
213 -6 m 256,0,1
 198 -6 198 -6 191 3 c 128,-1,2
 184 12 184 12 187 29 c 2,3,-1
 286 651 l 1,4,-1
 95 651 l 2,5,6
 81 651 81 651 73.5 657.5 c 128,-1,7
 66 664 66 664 66 674 c 0,8,9
 66 689 66 689 75 697 c 128,-1,10
 84 705 84 705 98 705 c 2,11,-1
 324 705 l 2,12,13
 339 705 339 705 346 696 c 128,-1,14
 353 687 353 687 350 669 c 2,15,-1
 305 384 l 1,16,-1
 442 384 l 1,17,-1
 424 369 l 1,18,-1
 695 696 l 2,19,20
 704 706 704 706 713.5 709 c 128,-1,21
 723 712 723 712 731.5 709 c 128,-1,22
 740 706 740 706 745.5 699.5 c 128,-1,23
 751 693 751 693 750 683.5 c 128,-1,24
 749 674 749 674 740 662 c 2,25,-1
 488 360 l 1,26,-1
 459 382 l 1,27,28
 517 376 517 376 558 340.5 c 128,-1,29
 599 305 599 305 621 242 c 2,30,-1
 690 34 l 2,31,32
 695 22 695 22 691.5 13 c 128,-1,33
 688 4 688 4 680 -1 c 128,-1,34
 672 -6 672 -6 662.5 -6 c 128,-1,35
 653 -6 653 -6 645 0 c 128,-1,36
 637 6 637 6 633 18 c 2,37,-1
 571 208 l 2,38,39
 550 274 550 274 513.5 302 c 128,-1,40
 477 330 477 330 420 330 c 2,41,-1
 296 330 l 1,42,-1
 248 27 l 2,43,44
 245 10 245 10 236.5 2 c 128,-1,45
 228 -6 228 -6 213 -6 c 256,0,1
EndSplineSet
EndChar

StartChar: uni04A2
Encoding: 1186 1186 594
Width: 796
GlyphClass: 1
Flags: W
LayerCount: 2
Fore
SplineSet
675 -159 m 0,0,1
 663 -159 663 -159 656 -151 c 128,-1,2
 649 -143 649 -143 651 -126 c 2,3,-1
 671 0 l 1,4,-1
 597 0 l 2,5,6
 581 0 581 0 574.5 9.5 c 128,-1,7
 568 19 568 19 571 37 c 2,8,-1
 617 330 l 1,9,-1
 167 330 l 1,10,-1
 119 25 l 2,11,12
 117 10 117 10 108.5 2 c 128,-1,13
 100 -6 100 -6 84 -6 c 0,14,15
 69 -6 69 -6 62 3.5 c 128,-1,16
 55 13 55 13 58 31 c 2,17,-1
 161 680 l 2,18,19
 164 696 164 696 172 703.5 c 128,-1,20
 180 711 180 711 195 711 c 0,21,22
 211 711 211 711 217.5 701.5 c 128,-1,23
 224 692 224 692 222 674 c 2,24,-1
 175 385 l 1,25,-1
 626 385 l 1,26,-1
 672 680 l 2,27,28
 675 696 675 696 683 703.5 c 128,-1,29
 691 711 691 711 706 711 c 256,30,31
 721 711 721 711 728 702 c 128,-1,32
 735 693 735 693 733 674 c 2,33,-1
 632 30 l 1,34,-1
 611 54 l 1,35,-1
 699 54 l 2,36,37
 716 54 716 54 724.5 46 c 128,-1,38
 733 38 733 38 731 20 c 2,39,-1
 707 -131 l 2,40,41
 705 -145 705 -145 697 -152 c 128,-1,42
 689 -159 689 -159 675 -159 c 0,0,1
EndSplineSet
EndChar

StartChar: uni04A4
Encoding: 1188 1188 595
Width: 931
GlyphClass: 1
Flags: W
LayerCount: 2
Fore
SplineSet
84 -6 m 0,0,1
 69 -6 69 -6 62.5 3.5 c 128,-1,2
 56 13 56 13 59 31 c 2,3,-1
 162 680 l 2,4,5
 165 696 165 696 173 703.5 c 128,-1,6
 181 711 181 711 196 711 c 256,7,8
 211 711 211 711 218 701.5 c 128,-1,9
 225 692 225 692 222 674 c 2,10,-1
 176 385 l 1,11,-1
 625 385 l 1,12,-1
 670 673 l 2,13,14
 673 689 673 689 682.5 697 c 128,-1,15
 692 705 692 705 708 705 c 2,16,-1
 972 705 l 2,17,18
 987 705 987 705 994.5 699.5 c 128,-1,19
 1002 694 1002 694 1002 683 c 0,20,21
 1002 667 1002 667 993 658.5 c 128,-1,22
 984 650 984 650 969 650 c 2,23,-1
 729 650 l 1,24,-1
 629 25 l 2,25,26
 627 10 627 10 619 2 c 128,-1,27
 611 -6 611 -6 595 -6 c 0,28,29
 580 -6 580 -6 573 3.5 c 128,-1,30
 566 13 566 13 569 31 c 2,31,-1
 616 330 l 1,32,-1
 168 330 l 1,33,-1
 119 25 l 2,34,35
 118 10 118 10 109 2 c 128,-1,36
 100 -6 100 -6 84 -6 c 0,0,1
EndSplineSet
EndChar

StartChar: uni0524
Encoding: 1316 1316 596
Width: 791
GlyphClass: 1
Flags: W
LayerCount: 2
Fore
SplineSet
667 -159 m 0,0,1
 655 -159 655 -159 648 -151 c 128,-1,2
 641 -143 641 -143 644 -126 c 2,3,-1
 664 0 l 1,4,-1
 591 0 l 2,5,6
 575 0 575 0 568.5 9.5 c 128,-1,7
 562 19 562 19 565 37 c 2,8,-1
 662 650 l 1,9,-1
 219 650 l 1,10,-1
 119 24 l 2,11,12
 117 10 117 10 108.5 2 c 128,-1,13
 100 -6 100 -6 84 -6 c 0,14,15
 69 -6 69 -6 62 3 c 128,-1,16
 55 12 55 12 58 30 c 2,17,-1
 160 673 l 2,18,19
 163 689 163 689 172.5 697 c 128,-1,20
 182 705 182 705 198 705 c 2,21,-1
 694 705 l 2,22,23
 712 705 712 705 720.5 695.5 c 128,-1,24
 729 686 729 686 726 667 c 2,25,-1
 626 30 l 1,26,-1
 605 54 l 1,27,-1
 692 54 l 2,28,29
 709 54 709 54 717.5 46 c 128,-1,30
 726 38 726 38 723 20 c 2,31,-1
 699 -131 l 2,32,33
 697 -145 697 -145 689.5 -152 c 128,-1,34
 682 -159 682 -159 667 -159 c 0,0,1
EndSplineSet
EndChar

StartChar: uni04A8
Encoding: 1192 1192 597
Width: 792
GlyphClass: 1
Flags: W
LayerCount: 2
Fore
SplineSet
364 -8 m 0,0,1
 281 -8 281 -8 216.5 26 c 128,-1,2
 152 60 152 60 115.5 126.5 c 128,-1,3
 79 193 79 193 79 288 c 0,4,5
 79 384 79 384 104 462.5 c 128,-1,6
 129 541 129 541 176.5 597 c 128,-1,7
 224 653 224 653 290 683 c 128,-1,8
 356 713 356 713 439 713 c 0,9,10
 452 713 452 713 467.5 711.5 c 128,-1,11
 483 710 483 710 495 708 c 0,12,13
 512 705 512 705 517.5 695.5 c 128,-1,14
 523 686 523 686 521 673 c 0,15,16
 520 665 520 665 515 660 c 128,-1,17
 510 655 510 655 503 653 c 128,-1,18
 496 651 496 651 487 652 c 0,19,20
 475 655 475 655 459.5 656.5 c 128,-1,21
 444 658 444 658 431 657 c 0,22,23
 343 656 343 656 278.5 611 c 128,-1,24
 214 566 214 566 179 484 c 128,-1,25
 144 402 144 402 144 289 c 0,26,27
 144 207 144 207 172.5 153 c 128,-1,28
 201 99 201 99 252 72.5 c 128,-1,29
 303 46 303 46 371 46 c 0,30,31
 441 46 441 46 496.5 72.5 c 128,-1,32
 552 99 552 99 590 145 c 128,-1,33
 628 191 628 191 648.5 251 c 128,-1,34
 669 311 669 311 669 378 c 0,35,36
 669 436 669 436 643 468 c 128,-1,37
 617 500 617 500 568 500 c 0,38,39
 517 500 517 500 482.5 467.5 c 128,-1,40
 448 435 448 435 430.5 383.5 c 128,-1,41
 413 332 413 332 413 272 c 0,42,43
 413 202 413 202 440 151 c 128,-1,44
 467 100 467 100 516.5 73 c 128,-1,45
 566 46 566 46 634 46 c 0,46,47
 662 46 662 46 690 51 c 128,-1,48
 718 56 718 56 743 66 c 0,49,50
 754 71 754 71 762.5 69 c 128,-1,51
 771 67 771 67 776 60.5 c 128,-1,52
 781 54 781 54 781.5 45.5 c 128,-1,53
 782 37 782 37 777.5 29 c 128,-1,54
 773 21 773 21 763 17 c 0,55,56
 737 4 737 4 704 -2 c 128,-1,57
 671 -8 671 -8 633 -8 c 0,58,59
 571 -8 571 -8 520 12.5 c 128,-1,60
 469 33 469 33 431 70.5 c 128,-1,61
 393 108 393 108 372 159 c 128,-1,62
 351 210 351 210 351 270 c 0,63,64
 351 347 351 347 377 412 c 128,-1,65
 403 477 403 477 452 516 c 128,-1,66
 501 555 501 555 571 555 c 0,67,68
 621 555 621 555 656 534 c 128,-1,69
 691 513 691 513 710.5 474 c 128,-1,70
 730 435 730 435 730 382 c 0,71,72
 730 302 730 302 703 231.5 c 128,-1,73
 676 161 676 161 626.5 107 c 128,-1,74
 577 53 577 53 510 22.5 c 128,-1,75
 443 -8 443 -8 364 -8 c 0,0,1
EndSplineSet
EndChar

StartChar: uni04AA
Encoding: 1194 1194 598
Width: 670
GlyphClass: 2
Flags: W
AnchorPoint: "Anchor-2" 366 0 basechar 0
AnchorPoint: "Anchor-0" 435 705 basechar 0
LayerCount: 2
Fore
SplineSet
341 -160 m 256,0,1
 328 -160 328 -160 322 -151 c 128,-1,2
 316 -142 316 -142 318 -127 c 2,3,-1
 341 24 l 1,4,-1
 398 24 l 1,5,-1
 373 -132 l 2,6,7
 372 -146 372 -146 363 -153 c 128,-1,8
 354 -160 354 -160 341 -160 c 256,0,1
378 -8 m 0,9,10
 289 -8 289 -8 222 25.5 c 128,-1,11
 155 59 155 59 117.5 128.5 c 128,-1,12
 80 198 80 198 80 306 c 0,13,14
 80 393 80 393 105 467 c 128,-1,15
 130 541 130 541 176.5 596 c 128,-1,16
 223 651 223 651 289 682 c 128,-1,17
 355 713 355 713 437 713 c 0,18,19
 502 713 502 713 557.5 693 c 128,-1,20
 613 673 613 673 653 635 c 0,21,22
 661 628 661 628 663.5 618 c 128,-1,23
 666 608 666 608 662.5 599.5 c 128,-1,24
 659 591 659 591 652 585.5 c 128,-1,25
 645 580 645 580 636 580 c 128,-1,26
 627 580 627 580 618 588 c 0,27,28
 579 624 579 624 534 640 c 128,-1,29
 489 656 489 656 434 656 c 0,30,31
 345 656 345 656 280.5 610.5 c 128,-1,32
 216 565 216 565 181 486.5 c 128,-1,33
 146 408 146 408 146 306 c 0,34,35
 146 215 146 215 174.5 158 c 128,-1,36
 203 101 203 101 256 75 c 128,-1,37
 309 49 309 49 383 49 c 0,38,39
 433 49 433 49 475.5 64.5 c 128,-1,40
 518 80 518 80 560 115 c 0,41,42
 570 123 570 123 579 123 c 128,-1,43
 588 123 588 123 595 117.5 c 128,-1,44
 602 112 602 112 604.5 103.5 c 128,-1,45
 607 95 607 95 604.5 85.5 c 128,-1,46
 602 76 602 76 592 69 c 0,47,48
 545 29 545 29 492 10.5 c 128,-1,49
 439 -8 439 -8 378 -8 c 0,9,10
EndSplineSet
Substitution2: "'locl' Localized Forms in Cyrillic lookup 17 subtable" uni04AA.loclCHU
Substitution2: "'locl' Localized Forms in Cyrillic lookup 16 subtable" uni04AA.loclBSH
AlternateSubs2: "'aalt' Access All Alternates lookup 1 subtable" uni04AA.loclBSH uni04AA.loclCHU
EndChar

StartChar: uni04AC
Encoding: 1196 1196 599
Width: 574
GlyphClass: 1
Flags: W
LayerCount: 2
Fore
SplineSet
326 -160 m 0,0,1
 312 -160 312 -160 306 -150.5 c 128,-1,2
 300 -141 300 -141 302 -126 c 2,3,-1
 322 0 l 1,4,-1
 256 0 l 2,5,6
 238 0 238 0 229.5 10 c 128,-1,7
 221 20 221 20 223 38 c 2,8,-1
 320 650 l 1,9,-1
 94 650 l 2,10,11
 80 650 80 650 72 656.5 c 128,-1,12
 64 663 64 663 64 674 c 0,13,14
 64 689 64 689 73.5 697 c 128,-1,15
 83 705 83 705 97 705 c 2,16,-1
 617 705 l 2,17,18
 632 705 632 705 639.5 699.5 c 128,-1,19
 647 694 647 694 647 683 c 0,20,21
 647 667 647 667 638 658.5 c 128,-1,22
 629 650 629 650 614 650 c 2,23,-1
 382 650 l 1,24,-1
 284 34 l 1,25,-1
 259 54 l 1,26,-1
 351 54 l 2,27,28
 369 54 369 54 377 44.5 c 128,-1,29
 385 35 385 35 382 17 c 2,30,-1
 358 -131 l 2,31,32
 354 -160 354 -160 326 -160 c 0,0,1
EndSplineSet
EndChar

StartChar: uni04B2
Encoding: 1202 1202 602
Width: 679
GlyphClass: 1
Flags: W
LayerCount: 2
Fore
SplineSet
567 -159 m 0,0,1
 555 -159 555 -159 548 -151 c 128,-1,2
 541 -143 541 -143 543 -126 c 2,3,-1
 566 23 l 1,4,-1
 586 0 l 1,5,-1
 539 0 l 2,6,7
 527 0 527 0 519.5 5 c 128,-1,8
 512 10 512 10 504 22 c 2,9,-1
 326 331 l 1,10,-1
 348 331 l 1,11,-1
 66 12 l 2,12,13
 58 2 58 2 50.5 -2 c 128,-1,14
 43 -6 43 -6 32 -6 c 0,15,16
 20 -6 20 -6 12.5 0.5 c 128,-1,17
 5 7 5 7 5 18 c 128,-1,18
 5 29 5 29 15 40 c 2,19,-1
 311 372 l 1,20,-1
 311 351 l 1,21,-1
 129 665 l 2,22,23
 122 678 122 678 122.5 688.5 c 128,-1,24
 123 699 123 699 131 705 c 128,-1,25
 139 711 139 711 151 711 c 256,26,27
 163 711 163 711 169.5 705.5 c 128,-1,28
 176 700 176 700 183 688 c 2,29,-1
 351 395 l 1,30,-1
 336 395 l 1,31,-1
 597 693 l 2,32,33
 605 703 605 703 613 707 c 128,-1,34
 621 711 621 711 632 711 c 256,35,36
 643 711 643 711 650.5 704.5 c 128,-1,37
 658 698 658 698 658.5 687.5 c 128,-1,38
 659 677 659 677 649 665 c 2,39,-1
 367 347 l 1,40,-1
 367 375 l 1,41,-1
 565 34 l 1,42,-1
 530 54 l 1,43,-1
 591 54 l 2,44,45
 608 54 608 54 617 45 c 128,-1,46
 626 36 626 36 623 18 c 2,47,-1
 599 -131 l 2,48,49
 597 -145 597 -145 589 -152 c 128,-1,50
 581 -159 581 -159 567 -159 c 0,0,1
EndSplineSet
EndChar

StartChar: uni04B4
Encoding: 1204 1204 603
Width: 911
GlyphClass: 1
Flags: W
LayerCount: 2
Fore
SplineSet
796 -160 m 0,0,1
 783 -160 783 -160 777 -150.5 c 128,-1,2
 771 -141 771 -141 773 -126 c 2,3,-1
 793 0 l 1,4,-1
 219 0 l 2,5,6
 201 0 201 0 192.5 10 c 128,-1,7
 184 20 184 20 187 38 c 2,8,-1
 285 650 l 1,9,-1
 96 650 l 2,10,11
 82 650 82 650 74 656.5 c 128,-1,12
 66 663 66 663 66 674 c 0,13,14
 66 689 66 689 75 697 c 128,-1,15
 84 705 84 705 99 705 c 2,16,-1
 539 705 l 2,17,18
 554 705 554 705 561.5 699.5 c 128,-1,19
 569 694 569 694 569 683 c 0,20,21
 569 667 569 667 560 658.5 c 128,-1,22
 551 650 551 650 536 650 c 2,23,-1
 346 650 l 1,24,-1
 252 55 l 1,25,-1
 696 55 l 1,26,-1
 796 681 l 2,27,28
 798 696 798 696 806.5 703.5 c 128,-1,29
 815 711 815 711 830 711 c 256,30,31
 845 711 845 711 852 702 c 128,-1,32
 859 693 859 693 856 675 c 2,33,-1
 755 33 l 1,34,-1
 733 55 l 1,35,-1
 821 55 l 2,36,37
 839 55 839 55 847 45.5 c 128,-1,38
 855 36 855 36 852 18 c 2,39,-1
 828 -131 l 2,40,41
 824 -160 824 -160 796 -160 c 0,0,1
EndSplineSet
EndChar

StartChar: uni04B6
Encoding: 1206 1206 604
Width: 706
GlyphClass: 1
Flags: W
LayerCount: 2
Fore
SplineSet
522 308 m 1,0,1
 486 289 486 289 436 279 c 128,-1,2
 386 269 386 269 336 269 c 0,3,4
 249 269 249 269 193.5 302 c 128,-1,5
 138 335 138 335 117 399 c 128,-1,6
 96 463 96 463 110 556 c 2,7,-1
 130 681 l 2,8,9
 132 696 132 696 141 703.5 c 128,-1,10
 150 711 150 711 165 711 c 256,11,12
 180 711 180 711 186.5 701.5 c 128,-1,13
 193 692 193 692 190 675 c 2,14,-1
 172 561 l 2,15,16
 152 440 152 440 194.5 383 c 128,-1,17
 237 326 237 326 342 326 c 0,18,19
 390 326 390 326 439.5 336 c 128,-1,20
 489 346 489 346 533 369 c 1,21,-1
 582 681 l 2,22,23
 585 696 585 696 594 703.5 c 128,-1,24
 603 711 603 711 617 711 c 0,25,26
 632 711 632 711 638.5 701.5 c 128,-1,27
 645 692 645 692 643 675 c 2,28,-1
 540 30 l 1,29,-1
 519 54 l 1,30,-1
 608 54 l 2,31,32
 625 54 625 54 633.5 46 c 128,-1,33
 642 38 642 38 639 20 c 2,34,-1
 615 -131 l 2,35,36
 614 -145 614 -145 606 -152 c 128,-1,37
 598 -159 598 -159 583 -159 c 0,38,39
 571 -159 571 -159 564 -151 c 128,-1,40
 557 -143 557 -143 560 -126 c 2,41,-1
 580 0 l 1,42,-1
 505 0 l 2,43,44
 490 0 490 0 483.5 9.5 c 128,-1,45
 477 19 477 19 480 37 c 2,46,-1
 522 308 l 1,0,1
EndSplineSet
EndChar

StartChar: uni04B8
Encoding: 1208 1208 605
Width: 666
GlyphClass: 1
Flags: W
LayerCount: 2
Fore
SplineSet
504 -6 m 256,0,1
 489 -6 489 -6 482.5 3 c 128,-1,2
 476 12 476 12 478 30 c 2,3,-1
 522 308 l 1,4,5
 488 290 488 290 441 280.5 c 128,-1,6
 394 271 394 271 346 269 c 1,7,-1
 355 278 l 1,8,-1
 331 130 l 2,9,10
 327 106 327 106 303 106 c 0,11,12
 292 106 292 106 286.5 113.5 c 128,-1,13
 281 121 281 121 283 133 c 2,14,-1
 306 277 l 1,15,-1
 313 270 l 1,16,17
 234 274 234 274 184 308 c 128,-1,18
 134 342 134 342 115 404.5 c 128,-1,19
 96 467 96 467 110 556 c 2,20,-1
 130 681 l 2,21,22
 132 696 132 696 141 703.5 c 128,-1,23
 150 711 150 711 165 711 c 256,24,25
 180 711 180 711 186.5 701.5 c 128,-1,26
 193 692 193 692 190 675 c 2,27,-1
 172 561 l 2,28,29
 153 446 153 446 190.5 389 c 128,-1,30
 228 332 228 332 323 327 c 1,31,-1
 312 319 l 1,32,-1
 339 486 l 2,33,34
 343 510 343 510 366 510 c 0,35,36
 378 510 378 510 384 503.5 c 128,-1,37
 390 497 390 497 387 483 c 2,38,-1
 361 317 l 1,39,-1
 355 326 l 1,40,41
 401 327 401 327 446.5 337 c 128,-1,42
 492 347 492 347 533 369 c 1,43,-1
 582 681 l 2,44,45
 585 696 585 696 594 703.5 c 128,-1,46
 603 711 603 711 617 711 c 0,47,48
 632 711 632 711 638.5 701.5 c 128,-1,49
 645 692 645 692 643 675 c 2,50,-1
 539 24 l 2,51,52
 537 9 537 9 528 1.5 c 128,-1,53
 519 -6 519 -6 504 -6 c 256,0,1
EndSplineSet
EndChar

StartChar: uni04BA
Encoding: 1210 1210 606
Width: 666
GlyphClass: 2
Flags: W
LayerCount: 2
Fore
SplineSet
84 -6 m 256,0,1
 69 -6 69 -6 62 3.5 c 128,-1,2
 55 13 55 13 58 30 c 2,3,-1
 162 681 l 2,4,5
 165 696 165 696 173.5 703.5 c 128,-1,6
 182 711 182 711 197 711 c 256,7,8
 212 711 212 711 218.5 702 c 128,-1,9
 225 693 225 693 222 675 c 2,10,-1
 178 397 l 1,11,12
 215 416 215 416 265.5 426 c 128,-1,13
 316 436 316 436 365 436 c 0,14,15
 452 436 452 436 507.5 403 c 128,-1,16
 563 370 563 370 584.5 306.5 c 128,-1,17
 606 243 606 243 591 149 c 2,18,-1
 572 24 l 2,19,20
 570 9 570 9 561 1.5 c 128,-1,21
 552 -6 552 -6 537 -6 c 256,22,23
 522 -6 522 -6 515.5 4 c 128,-1,24
 509 14 509 14 511 30 c 2,25,-1
 530 144 l 2,26,27
 550 266 550 266 507.5 322.5 c 128,-1,28
 465 379 465 379 360 379 c 0,29,30
 311 379 311 379 261.5 369.5 c 128,-1,31
 212 360 212 360 168 336 c 1,32,-1
 119 24 l 2,33,34
 117 9 117 9 108 1.5 c 128,-1,35
 99 -6 99 -6 84 -6 c 256,0,1
EndSplineSet
EndChar

StartChar: uni0526
Encoding: 1318 1318 607
Width: 706
GlyphClass: 1
Flags: W
LayerCount: 2
Fore
SplineSet
530 144 m 2,0,1
 549 266 549 266 507 322.5 c 128,-1,2
 465 379 465 379 360 379 c 0,3,4
 311 379 311 379 261.5 369.5 c 128,-1,5
 212 360 212 360 168 336 c 1,6,-1
 119 24 l 2,7,8
 117 9 117 9 108 1.5 c 128,-1,9
 99 -6 99 -6 84 -6 c 256,10,11
 69 -6 69 -6 62 3.5 c 128,-1,12
 55 13 55 13 58 30 c 2,13,-1
 162 681 l 2,14,15
 165 696 165 696 173.5 703.5 c 128,-1,16
 182 711 182 711 197 711 c 256,17,18
 212 711 212 711 218.5 702 c 128,-1,19
 225 693 225 693 222 675 c 2,20,-1
 178 397 l 1,21,22
 215 416 215 416 265.5 426 c 128,-1,23
 316 436 316 436 365 436 c 0,24,25
 452 436 452 436 508 403 c 128,-1,26
 564 370 564 370 585.5 306.5 c 128,-1,27
 607 243 607 243 592 149 c 2,28,-1
 573 30 l 1,29,-1
 553 54 l 1,30,-1
 641 54 l 2,31,32
 658 54 658 54 666.5 46 c 128,-1,33
 675 38 675 38 672 20 c 2,34,-1
 648 -131 l 2,35,36
 647 -145 647 -145 639 -152 c 128,-1,37
 631 -159 631 -159 617 -159 c 0,38,39
 605 -159 605 -159 598 -151 c 128,-1,40
 591 -143 591 -143 593 -126 c 2,41,-1
 613 0 l 1,42,-1
 538 0 l 2,43,44
 523 0 523 0 516.5 9.5 c 128,-1,45
 510 19 510 19 513 37 c 2,46,-1
 530 144 l 2,0,1
EndSplineSet
EndChar

StartChar: uni04BC
Encoding: 1212 1212 608
Width: 905
GlyphClass: 2
Flags: W
AnchorPoint: "Anchor-3" 557 0 basechar 0
LayerCount: 2
Fore
SplineSet
525 -8 m 0,0,1
 425 -8 425 -8 355 37.5 c 128,-1,2
 285 83 285 83 251.5 161.5 c 128,-1,3
 218 240 218 240 227 338 c 1,4,-1
 238 322 l 1,5,-1
 215 322 l 2,6,7
 159 322 159 322 122 340 c 128,-1,8
 85 358 85 358 70 394 c 128,-1,9
 55 430 55 430 63 482 c 2,10,-1
 69 522 l 2,11,12
 74 549 74 549 103 549 c 0,13,14
 118 549 118 549 125 541 c 128,-1,15
 132 533 132 533 129 517 c 0,16,17
 128 510 128 510 127 500.5 c 128,-1,18
 126 491 126 491 124 483 c 0,19,20
 116 428 116 428 139 402 c 128,-1,21
 162 376 162 376 216 376 c 2,22,-1
 243 376 l 1,23,-1
 229 358 l 1,24,25
 237 438 237 438 264 503 c 128,-1,26
 291 568 291 568 336 615 c 128,-1,27
 381 662 381 662 443 687.5 c 128,-1,28
 505 713 505 713 582 713 c 0,29,30
 650 713 650 713 701 693 c 128,-1,31
 752 673 752 673 786 637 c 128,-1,32
 820 601 820 601 838.5 555 c 128,-1,33
 857 509 857 509 862 457.5 c 128,-1,34
 867 406 867 406 859 355 c 0,35,36
 858 342 858 342 852.5 335 c 128,-1,37
 847 328 847 328 839.5 325 c 128,-1,38
 832 322 832 322 822 322 c 2,39,-1
 280 322 l 1,40,-1
 293 338 l 1,41,42
 284 254 284 254 309.5 188.5 c 128,-1,43
 335 123 335 123 392 85.5 c 128,-1,44
 449 48 449 48 533 48 c 0,45,46
 603 48 603 48 657 65 c 128,-1,47
 711 82 711 82 757 114 c 0,48,49
 769 122 769 122 778.5 121.5 c 128,-1,50
 788 121 788 121 794 114.5 c 128,-1,51
 800 108 800 108 802 99.5 c 128,-1,52
 804 91 804 91 800.5 82 c 128,-1,53
 797 73 797 73 786 66 c 0,54,55
 733 28 733 28 665.5 10 c 128,-1,56
 598 -8 598 -8 525 -8 c 0,0,1
577 658 m 0,57,58
 493 658 493 658 433.5 619.5 c 128,-1,59
 374 581 374 581 339 513 c 128,-1,60
 304 445 304 445 295 359 c 1,61,-1
 285 376 l 1,62,-1
 816 376 l 1,63,-1
 797 352 l 1,64,65
 809 437 809 437 791 506.5 c 128,-1,66
 773 576 773 576 721 617 c 128,-1,67
 669 658 669 658 577 658 c 0,57,58
EndSplineSet
EndChar

StartChar: uni04C3
Encoding: 1219 1219 612
Width: 655
GlyphClass: 1
Flags: W
LayerCount: 2
Fore
SplineSet
340 -188 m 0,0,1
 314 -188 314 -188 289.5 -184 c 128,-1,2
 265 -180 265 -180 245 -174 c 0,3,4
 235 -171 235 -171 230.5 -164 c 128,-1,5
 226 -157 226 -157 226 -149 c 128,-1,6
 226 -141 226 -141 230 -134 c 128,-1,7
 234 -127 234 -127 242 -123.5 c 128,-1,8
 250 -120 250 -120 259 -124 c 0,9,10
 276 -129 276 -129 294.5 -132 c 128,-1,11
 313 -135 313 -135 334 -135 c 0,12,13
 401 -135 401 -135 444 -90.5 c 128,-1,14
 487 -46 487 -46 502 44 c 2,15,-1
 511 94 l 2,16,17
 525 179 525 179 507.5 231 c 128,-1,18
 490 283 490 283 443 307 c 128,-1,19
 396 331 396 331 320 331 c 2,20,-1
 167 331 l 1,21,-1
 118 23 l 2,22,23
 117 9 117 9 108.5 1.5 c 128,-1,24
 100 -6 100 -6 84 -6 c 0,25,26
 69 -6 69 -6 62 3 c 128,-1,27
 55 12 55 12 58 29 c 2,28,-1
 161 682 l 2,29,30
 164 697 164 697 172.5 704 c 128,-1,31
 181 711 181 711 196 711 c 256,32,33
 211 711 211 711 217.5 702 c 128,-1,34
 224 693 224 693 222 676 c 2,35,-1
 175 386 l 1,36,-1
 325 386 l 1,37,-1
 298 369 l 1,38,-1
 570 697 l 2,39,40
 578 707 578 707 588 709.5 c 128,-1,41
 598 712 598 712 606 709 c 128,-1,42
 614 706 614 706 619.5 699.5 c 128,-1,43
 625 693 625 693 624 683 c 128,-1,44
 623 673 623 673 613 662 c 2,45,-1
 362 360 l 1,46,-1
 345 384 l 1,47,48
 432 382 432 382 488 350.5 c 128,-1,49
 544 319 544 319 566.5 256.5 c 128,-1,50
 589 194 589 194 573 100 c 2,51,-1
 564 46 l 2,52,53
 552 -31 552 -31 522 -83 c 128,-1,54
 492 -135 492 -135 446.5 -161.5 c 128,-1,55
 401 -188 401 -188 340 -188 c 0,0,1
EndSplineSet
EndChar

StartChar: uni04C5
Encoding: 1221 1221 613
Width: 774
GlyphClass: 1
Flags: W
LayerCount: 2
Fore
SplineSet
627 -143 m 2,0,1
 623 -153 623 -153 615 -157 c 128,-1,2
 607 -161 607 -161 599.5 -160 c 128,-1,3
 592 -159 592 -159 586 -154.5 c 128,-1,4
 580 -150 580 -150 578.5 -142 c 128,-1,5
 577 -134 577 -134 582 -124 c 2,6,-1
 653 21 l 1,7,-1
 653 0 l 1,8,-1
 576 0 l 2,9,10
 560 0 560 0 553 8.5 c 128,-1,11
 546 17 546 17 549 36 c 2,12,-1
 646 650 l 1,13,-1
 313 650 l 1,14,-1
 283 460 l 2,15,16
 266 351 266 351 242 273.5 c 128,-1,17
 218 196 218 196 187.5 143 c 128,-1,18
 157 90 157 90 118 55 c 128,-1,19
 79 20 79 20 31 -4 c 0,20,21
 17 -11 17 -11 6 -7.5 c 128,-1,22
 -5 -4 -5 -4 -10 8 c 0,23,24
 -16 20 -16 20 -11.5 30.5 c 128,-1,25
 -7 41 -7 41 6 47 c 0,26,27
 42 66 42 66 74.5 93.5 c 128,-1,28
 107 121 107 121 135 167.5 c 128,-1,29
 163 214 163 214 186.5 289 c 128,-1,30
 210 364 210 364 228 475 c 2,31,-1
 259 671 l 2,32,33
 261 687 261 687 270.5 696 c 128,-1,34
 280 705 280 705 296 705 c 2,35,-1
 679 705 l 2,36,37
 697 705 697 705 705 695.5 c 128,-1,38
 713 686 713 686 711 667 c 2,39,-1
 610 32 l 1,40,-1
 596 54 l 1,41,-1
 677 54 l 2,42,43
 698 54 698 54 706 42.5 c 128,-1,44
 714 31 714 31 704 11 c 2,45,-1
 627 -143 l 2,0,1
EndSplineSet
EndChar

StartChar: uni04C7
Encoding: 1223 1223 614
Width: 756
GlyphClass: 1
Flags: W
LayerCount: 2
Fore
SplineSet
422 -192 m 0,0,1
 409 -192 409 -192 402 -185 c 128,-1,2
 395 -178 395 -178 394.5 -167.5 c 128,-1,3
 394 -157 394 -157 400.5 -149 c 128,-1,4
 407 -141 407 -141 419 -141 c 0,5,6
 481 -140 481 -140 516 -111 c 128,-1,7
 551 -82 551 -82 561 -19 c 2,8,-1
 616 330 l 1,9,-1
 168 330 l 1,10,-1
 119 25 l 2,11,12
 118 10 118 10 109 2 c 128,-1,13
 100 -6 100 -6 84 -6 c 0,14,15
 69 -6 69 -6 62.5 3.5 c 128,-1,16
 56 13 56 13 59 31 c 2,17,-1
 162 680 l 2,18,19
 165 696 165 696 173 703.5 c 128,-1,20
 181 711 181 711 196 711 c 256,21,22
 211 711 211 711 218 701.5 c 128,-1,23
 225 692 225 692 222 674 c 2,24,-1
 176 385 l 1,25,-1
 625 385 l 1,26,-1
 671 680 l 2,27,28
 674 696 674 696 682.5 703.5 c 128,-1,29
 691 711 691 711 706 711 c 256,30,31
 721 711 721 711 727.5 702 c 128,-1,32
 734 693 734 693 732 674 c 2,33,-1
 622 -18 l 2,34,35
 613 -77 613 -77 588 -115 c 128,-1,36
 563 -153 563 -153 522 -172 c 128,-1,37
 481 -191 481 -191 422 -192 c 0,0,1
EndSplineSet
EndChar

StartChar: uni04C9
Encoding: 1225 1225 615
Width: 794
GlyphClass: 1
Flags: W
LayerCount: 2
Fore
SplineSet
648 -143 m 2,0,1
 643 -153 643 -153 635.5 -157 c 128,-1,2
 628 -161 628 -161 620.5 -160 c 128,-1,3
 613 -159 613 -159 607 -154.5 c 128,-1,4
 601 -150 601 -150 599.5 -142 c 128,-1,5
 598 -134 598 -134 603 -124 c 2,6,-1
 674 21 l 1,7,-1
 674 0 l 1,8,-1
 596 0 l 2,9,10
 581 0 581 0 574 8.5 c 128,-1,11
 567 17 567 17 570 36 c 2,12,-1
 617 330 l 1,13,-1
 167 330 l 1,14,-1
 119 25 l 2,15,16
 117 10 117 10 108.5 2 c 128,-1,17
 100 -6 100 -6 84 -6 c 0,18,19
 69 -6 69 -6 62 3.5 c 128,-1,20
 55 13 55 13 58 31 c 2,21,-1
 161 680 l 2,22,23
 164 696 164 696 172 703.5 c 128,-1,24
 180 711 180 711 195 711 c 0,25,26
 211 711 211 711 217.5 701.5 c 128,-1,27
 224 692 224 692 222 674 c 2,28,-1
 175 385 l 1,29,-1
 626 385 l 1,30,-1
 672 680 l 2,31,32
 675 696 675 696 683 703.5 c 128,-1,33
 691 711 691 711 706 711 c 256,34,35
 721 711 721 711 728 702 c 128,-1,36
 735 693 735 693 733 674 c 2,37,-1
 631 32 l 1,38,-1
 617 54 l 1,39,-1
 698 54 l 2,40,41
 719 54 719 54 726.5 42.5 c 128,-1,42
 734 31 734 31 724 11 c 2,43,-1
 648 -143 l 2,0,1
EndSplineSet
EndChar

StartChar: uni04CB
Encoding: 1227 1227 616
Width: 704
GlyphClass: 1
Flags: W
LayerCount: 2
Fore
SplineSet
377 -160 m 256,0,1
 363 -160 363 -160 357.5 -152 c 128,-1,2
 352 -144 352 -144 354 -130 c 2,3,-1
 377 21 l 2,4,5
 380 37 380 37 389.5 45.5 c 128,-1,6
 399 54 399 54 415 54 c 2,7,-1
 510 54 l 1,8,-1
 478 26 l 1,9,-1
 522 308 l 1,10,11
 486 289 486 289 436 279 c 128,-1,12
 386 269 386 269 336 269 c 0,13,14
 249 269 249 269 193.5 302 c 128,-1,15
 138 335 138 335 117 399 c 128,-1,16
 96 463 96 463 110 556 c 2,17,-1
 130 681 l 2,18,19
 132 696 132 696 141 703.5 c 128,-1,20
 150 711 150 711 165 711 c 256,21,22
 180 711 180 711 186.5 701.5 c 128,-1,23
 193 692 193 692 190 675 c 2,24,-1
 172 561 l 2,25,26
 152 440 152 440 194.5 383 c 128,-1,27
 237 326 237 326 342 326 c 0,28,29
 390 326 390 326 439.5 336 c 128,-1,30
 489 346 489 346 533 369 c 1,31,-1
 582 681 l 2,32,33
 585 696 585 696 594 703.5 c 128,-1,34
 603 711 603 711 617 711 c 0,35,36
 632 711 632 711 638.5 701.5 c 128,-1,37
 645 692 645 692 643 675 c 2,38,-1
 540 32 l 2,39,40
 537 15 537 15 528 7.5 c 128,-1,41
 519 0 519 0 505 0 c 2,42,-1
 431 0 l 1,43,-1
 410 -130 l 2,44,45
 409 -144 409 -144 400 -152 c 128,-1,46
 391 -160 391 -160 377 -160 c 256,0,1
EndSplineSet
EndChar

StartChar: uni04CD
Encoding: 1229 1229 617
Width: 888
GlyphClass: 1
Flags: W
LayerCount: 2
Fore
SplineSet
740 -143 m 2,0,1
 735 -153 735 -153 727.5 -157 c 128,-1,2
 720 -161 720 -161 712 -160 c 128,-1,3
 704 -159 704 -159 698.5 -154.5 c 128,-1,4
 693 -150 693 -150 691.5 -142 c 128,-1,5
 690 -134 690 -134 694 -124 c 2,6,-1
 765 21 l 1,7,-1
 765 0 l 1,8,-1
 694 0 l 2,9,10
 678 0 678 0 671 8.5 c 128,-1,11
 664 17 664 17 667 36 c 2,12,-1
 761 632 l 1,13,-1
 785 632 l 1,14,-1
 434 120 l 2,15,16
 429 110 429 110 422.5 106.5 c 128,-1,17
 416 103 416 103 406 103 c 0,18,19
 394 103 394 103 387.5 108.5 c 128,-1,20
 381 114 381 114 377 125 c 2,21,-1
 191 631 l 1,22,-1
 212 631 l 1,23,-1
 116 26 l 2,24,25
 115 13 115 13 107.5 6 c 128,-1,26
 100 -1 100 -1 87 -1 c 0,27,28
 73 -1 73 -1 66 7.5 c 128,-1,29
 59 16 59 16 61 31 c 2,30,-1
 164 683 l 2,31,32
 167 698 167 698 174.5 704.5 c 128,-1,33
 182 711 182 711 195 711 c 0,34,35
 207 711 207 711 213.5 705.5 c 128,-1,36
 220 700 220 700 225 687 c 2,37,-1
 421 147 l 1,38,-1
 394 147 l 1,39,-1
 767 692 l 2,40,41
 775 702 775 702 782.5 706.5 c 128,-1,42
 790 711 790 711 801 711 c 0,43,44
 815 711 815 711 821.5 702.5 c 128,-1,45
 828 694 828 694 825 678 c 2,46,-1
 722 32 l 1,47,-1
 709 54 l 1,48,-1
 790 54 l 2,49,50
 810 54 810 54 818 42.5 c 128,-1,51
 826 31 826 31 816 11 c 2,52,-1
 740 -143 l 2,0,1
EndSplineSet
EndChar

StartChar: uni04E0
Encoding: 1248 1248 626
Width: 643
GlyphClass: 1
Flags: W
LayerCount: 2
Fore
SplineSet
304 -8 m 0,0,1
 224 -8 224 -8 160 10.5 c 128,-1,2
 96 29 96 29 43 70 c 0,3,4
 34 77 34 77 31 86 c 128,-1,5
 28 95 28 95 30 104 c 128,-1,6
 32 113 32 113 38.5 118.5 c 128,-1,7
 45 124 45 124 54.5 124.5 c 128,-1,8
 64 125 64 125 75 117 c 0,9,10
 126 77 126 77 182.5 62.5 c 128,-1,11
 239 48 239 48 307 48 c 0,12,13
 361 48 361 48 406 63 c 128,-1,14
 451 78 451 78 478.5 113 c 128,-1,15
 506 148 506 148 506 207 c 0,16,17
 506 249 506 249 487.5 276 c 128,-1,18
 469 303 469 303 431.5 316.5 c 128,-1,19
 394 330 394 330 338 330 c 2,20,-1
 241 330 l 2,21,22
 232 330 232 330 226 334.5 c 128,-1,23
 220 339 220 339 217.5 346.5 c 128,-1,24
 215 354 215 354 217.5 362 c 128,-1,25
 220 370 220 370 228 377 c 2,26,-1
 549 673 l 1,27,-1
 552 651 l 1,28,-1
 145 651 l 2,29,30
 130 651 130 651 123 657 c 128,-1,31
 116 663 116 663 116 674 c 0,32,33
 116 690 116 690 126.5 697.5 c 128,-1,34
 137 705 137 705 149 705 c 2,35,-1
 594 705 l 2,36,37
 606 705 606 705 612.5 700 c 128,-1,38
 619 695 619 695 621 687.5 c 128,-1,39
 623 680 623 680 619 670.5 c 128,-1,40
 615 661 615 661 605 653 c 2,41,-1
 292 364 l 1,42,-1
 285 383 l 1,43,-1
 351 383 l 2,44,45
 428 383 428 383 476 360 c 128,-1,46
 524 337 524 337 546.5 297 c 128,-1,47
 569 257 569 257 569 207 c 0,48,49
 569 132 569 132 533.5 84.5 c 128,-1,50
 498 37 498 37 438 14.5 c 128,-1,51
 378 -8 378 -8 304 -8 c 0,0,1
EndSplineSet
EndChar

StartChar: uni04E8
Encoding: 1256 1256 630
Width: 759
GlyphClass: 2
Flags: W
AnchorPoint: "Anchor-5" 397 353 basechar 0
AnchorPoint: "Anchor-3" 407 0 basechar 0
AnchorPoint: "Anchor-2" 353 0 basechar 0
AnchorPoint: "Anchor-1" 492 705 basechar 0
AnchorPoint: "Anchor-0" 443 705 basechar 0
LayerCount: 2
Fore
SplineSet
114 332 m 1,0,-1
 122 384 l 1,1,-1
 687 384 l 1,2,-1
 679 332 l 1,3,-1
 114 332 l 1,0,-1
362 -8 m 256,4,5
 276 -8 276 -8 212.5 26 c 128,-1,6
 149 60 149 60 114 127.5 c 128,-1,7
 79 195 79 195 79 291 c 0,8,9
 79 381 79 381 102 457.5 c 128,-1,10
 125 534 125 534 170 591.5 c 128,-1,11
 215 649 215 649 280.5 681 c 128,-1,12
 346 713 346 713 431 713 c 0,13,14
 518 713 518 713 581.5 679 c 128,-1,15
 645 645 645 645 680 578 c 128,-1,16
 715 511 715 511 715 414 c 0,17,18
 715 324 715 324 692 247.5 c 128,-1,19
 669 171 669 171 624 113.5 c 128,-1,20
 579 56 579 56 513.5 24 c 128,-1,21
 448 -8 448 -8 362 -8 c 256,4,5
364 48 m 0,22,23
 457 48 457 48 520.5 96 c 128,-1,24
 584 144 584 144 616.5 227 c 128,-1,25
 649 310 649 310 649 413 c 0,26,27
 649 537 649 537 590.5 597 c 128,-1,28
 532 657 532 657 428 657 c 0,29,30
 337 657 337 657 273.5 609 c 128,-1,31
 210 561 210 561 177.5 478.5 c 128,-1,32
 145 396 145 396 145 292 c 0,33,34
 145 168 145 168 203 108 c 128,-1,35
 261 48 261 48 364 48 c 0,22,23
EndSplineSet
EndChar

StartChar: uni04FA
Encoding: 1274 1274 638
Width: 568
GlyphClass: 1
Flags: W
LayerCount: 2
Fore
SplineSet
50 -180 m 2,0,1
 36 -181 36 -181 28.5 -174.5 c 128,-1,2
 21 -168 21 -168 20 -157 c 0,3,4
 19 -145 19 -145 26.5 -138 c 128,-1,5
 34 -131 34 -131 47 -130 c 2,6,-1
 69 -129 l 2,7,8
 121 -124 121 -124 151.5 -93 c 128,-1,9
 182 -62 182 -62 191 0 c 1,10,-1
 121 0 l 2,11,12
 105 0 105 0 97 9 c 128,-1,13
 89 18 89 18 92 35 c 2,14,-1
 139 330 l 1,15,-1
 67 330 l 2,16,17
 54 330 54 330 47 335.5 c 128,-1,18
 40 341 40 341 40 351 c 0,19,20
 40 365 40 365 48.5 372.5 c 128,-1,21
 57 380 57 380 70 380 c 2,22,-1
 147 380 l 1,23,-1
 194 674 l 2,24,25
 196 690 196 690 206 697.5 c 128,-1,26
 216 705 216 705 231 705 c 2,27,-1
 604 705 l 2,28,29
 619 705 619 705 626.5 699.5 c 128,-1,30
 634 694 634 694 634 683 c 0,31,32
 634 667 634 667 625 658.5 c 128,-1,33
 616 650 616 650 601 650 c 2,34,-1
 251 650 l 1,35,-1
 208 380 l 1,36,-1
 369 380 l 2,37,38
 382 380 382 380 389.5 374.5 c 128,-1,39
 397 369 397 369 397 359 c 0,40,41
 397 346 397 346 388.5 338 c 128,-1,42
 380 330 380 330 366 330 c 2,43,-1
 200 330 l 1,44,-1
 154 33 l 1,45,-1
 139 54 l 1,46,-1
 222 54 l 2,47,48
 239 54 239 54 247 44.5 c 128,-1,49
 255 35 255 35 252 19 c 2,50,-1
 250 5 l 2,51,52
 241 -54 241 -54 219 -93 c 128,-1,53
 197 -132 197 -132 162 -153 c 128,-1,54
 127 -174 127 -174 78 -178 c 2,55,-1
 50 -180 l 2,0,1
EndSplineSet
EndChar

StartChar: uni04FC
Encoding: 1276 1276 639
Width: 640
GlyphClass: 1
Flags: W
LayerCount: 2
Fore
SplineSet
378 -180 m 0,0,1
 365 -182 365 -182 356 -176.5 c 128,-1,2
 347 -171 347 -171 344 -160 c 0,3,4
 342 -147 342 -147 348 -139 c 128,-1,5
 354 -131 354 -131 368 -129 c 0,6,7
 432 -120 432 -120 459.5 -89.5 c 128,-1,8
 487 -59 487 -59 487 -6 c 0,9,10
 487 19 487 19 477.5 52.5 c 128,-1,11
 468 86 468 86 445 126 c 2,12,-1
 326 331 l 1,13,-1
 348 331 l 1,14,-1
 66 12 l 2,15,16
 58 2 58 2 50.5 -2 c 128,-1,17
 43 -6 43 -6 32 -6 c 256,18,19
 21 -6 21 -6 13 0.5 c 128,-1,20
 5 7 5 7 5 18 c 128,-1,21
 5 29 5 29 15 40 c 2,22,-1
 311 372 l 1,23,-1
 311 351 l 1,24,-1
 129 665 l 2,25,26
 122 678 122 678 122.5 688.5 c 128,-1,27
 123 699 123 699 131 705 c 128,-1,28
 139 711 139 711 151 711 c 256,29,30
 163 711 163 711 169.5 705.5 c 128,-1,31
 176 700 176 700 183 688 c 2,32,-1
 351 395 l 1,33,-1
 336 395 l 1,34,-1
 597 693 l 2,35,36
 605 703 605 703 613 707 c 128,-1,37
 621 711 621 711 632 711 c 256,38,39
 643 711 643 711 650.5 704.5 c 128,-1,40
 658 698 658 698 659 687.5 c 128,-1,41
 660 677 660 677 649 666 c 2,42,-1
 367 347 l 1,43,-1
 367 375 l 1,44,-1
 501 145 l 2,45,46
 526 102 526 102 536.5 62 c 128,-1,47
 547 22 547 22 547 -7 c 0,48,49
 547 -86 547 -86 504 -127 c 128,-1,50
 461 -168 461 -168 378 -180 c 0,0,1
EndSplineSet
EndChar

StartChar: uni0510
Encoding: 1296 1296 641
Width: 643
GlyphClass: 1
Flags: W
LayerCount: 2
Fore
SplineSet
303 -8 m 0,0,1
 223 -8 223 -8 167 12 c 128,-1,2
 111 32 111 32 82.5 71 c 128,-1,3
 54 110 54 110 55 166 c 0,4,5
 56 220 56 220 80 263 c 128,-1,6
 104 306 104 306 146.5 333.5 c 128,-1,7
 189 361 189 361 247 368 c 1,8,-1
 245 354 l 1,9,10
 187 367 187 367 155 404.5 c 128,-1,11
 123 442 123 442 124 503 c 0,12,13
 125 568 125 568 160 615 c 128,-1,14
 195 662 195 662 256.5 687.5 c 128,-1,15
 318 713 318 713 396 713 c 0,16,17
 442 713 442 713 482 705 c 128,-1,18
 522 697 522 697 557 680 c 128,-1,19
 592 663 592 663 622 636 c 0,20,21
 631 629 631 629 634 619.5 c 128,-1,22
 637 610 637 610 634 601 c 128,-1,23
 631 592 631 592 624 586 c 128,-1,24
 617 580 617 580 607.5 580.5 c 128,-1,25
 598 581 598 581 586 590 c 0,26,27
 542 629 542 629 495 643 c 128,-1,28
 448 657 448 657 391 657 c 0,29,30
 298 657 298 657 242.5 615.5 c 128,-1,31
 187 574 187 574 186 501 c 0,32,33
 186 442 186 442 224.5 412.5 c 128,-1,34
 263 383 263 383 339 383 c 2,35,-1
 470 383 l 2,36,37
 484 383 484 383 492.5 376.5 c 128,-1,38
 501 370 501 370 499 358 c 0,39,40
 498 345 498 345 490 337.5 c 128,-1,41
 482 330 482 330 467 330 c 2,42,-1
 315 330 l 2,43,44
 222 330 222 330 170 289 c 128,-1,45
 118 248 118 248 117 174 c 0,46,47
 117 109 117 109 165.5 78.5 c 128,-1,48
 214 48 214 48 306 48 c 0,49,50
 381 48 381 48 437.5 65 c 128,-1,51
 494 82 494 82 539 116 c 0,52,53
 552 124 552 124 562 123.5 c 128,-1,54
 572 123 572 123 578.5 118 c 128,-1,55
 585 113 585 113 586.5 104.5 c 128,-1,56
 588 96 588 96 585 87 c 128,-1,57
 582 78 582 78 572 72 c 0,58,59
 521 33 521 33 453.5 12.5 c 128,-1,60
 386 -8 386 -8 303 -8 c 0,0,1
EndSplineSet
EndChar

